<?xml version="1.0" encoding="UTF-8" standalone="no"?>
<!-- Created with Inkscape (http://www.inkscape.org/) -->

<svg
   width="181mm"
   height="69mm"
   viewBox="0 0 181 69"
   version="1.1"
   id="svg5"
   sodipodi:docname="adv2.svg"
   inkscape:version="1.2.2 (b0a8486541, 2022-12-01)"
   xmlns:inkscape="http://www.inkscape.org/namespaces/inkscape"
   xmlns:sodipodi="http://sodipodi.sourceforge.net/DTD/sodipodi-0.dtd"
   xmlns="http://www.w3.org/2000/svg"
   xmlns:svg="http://www.w3.org/2000/svg">
  <sodipodi:namedview
     id="namedview20"
     pagecolor="#ffffff"
     bordercolor="#000000"
     borderopacity="0.25"
     inkscape:showpageshadow="2"
     inkscape:pageopacity="0.0"
     inkscape:pagecheckerboard="0"
     inkscape:deskcolor="#d1d1d1"
     inkscape:document-units="mm"
     showgrid="false"
     inkscape:zoom="2.6999491"
     inkscape:cx="461.67536"
     inkscape:cy="147.78056"
     inkscape:window-width="1920"
     inkscape:window-height="1008"
     inkscape:window-x="0"
     inkscape:window-y="0"
     inkscape:window-maximized="1"
     inkscape:current-layer="layer1"
     showguides="false" />
  <defs
     id="defs2">
    <rect
       x="370.40356"
       y="44.863762"
       width="274.84464"
       height="84.863914"
       id="rect3922" />
    <rect
       x="92.943909"
       y="84.570633"
       width="345.01022"
       height="209.03252"
       id="rect236" />
  </defs>
  <g
     id="layer1">
    <g
       aria-label="bea nó sú "
       transform="matrix(0.26458333,0,0,0.26458333,-15.34518,26.459613)"
       id="text234"
       style="font-size:65.3333px;line-height:0;font-family:Uiua386;-inkscape-font-specification:Uiua386;text-align:center;letter-spacing:-7.2px;word-spacing:-7.2px;white-space:pre;shape-inside:url(#rect236);display:inline;stroke-width:2.64567;stroke-linecap:round;stroke-linejoin:round">
      <path
         d="m 136.6132,101.88364 q 0,1.176 -0.784,1.96 -0.784,0.78399 -1.96,0.78399 -1.176,0 -1.96,-0.78399 -0.784,-0.784 -0.784,-1.96 V 88.68631 88.620977 61.050325 q 0,-1.175999 0.784,-1.959999 0.784,-0.783999 1.96,-0.783999 1.176,0 1.96,0.783999 0.784,0.784 0.784,1.959999 v 14.830659 q 3.65866,-3.201332 8.36266,-3.201332 5.87999,0 9.99599,4.899998 3.85467,4.57333 3.85467,11.041327 0,7.317329 -4.83467,12.151993 -3.78933,3.78933 -9.01599,3.78933 -4.76933,0 -8.36266,-3.136 z m 0,-13.262663 q 0,4.965331 3.26666,8.231995 2.22133,2.221333 5.096,2.221333 3.26666,0 5.74933,-2.874666 2.61333,-3.135998 2.61333,-7.513329 0,-4.442664 -2.61333,-7.578662 -0.0653,0 -0.26134,-0.196 -0.13066,-0.196 -0.45733,-0.522667 -2.156,-2.155998 -4.96533,-2.155998 -3.332,0 -5.88,3.005331 -2.54799,3.005332 -2.54799,7.382663 z"
         style="fill:#6060eb"
         id="path145" />
      <path
         d="m 186.18786,97.310306 q 1.176,0 1.96,0.849332 0.78399,0.784 0.78399,1.960002 0,1.43733 -1.11066,2.22133 -3.00533,2.22133 -9.016,2.22133 -10.06132,0 -13.98132,-5.879995 -2.61333,-3.789331 -2.61333,-9.995995 0,-0.130666 0,-0.196 0,-0.06533 0,-0.06533 0,-0.06533 0,-0.130667 0.13066,-7.709329 4.44266,-12.021326 3.724,-3.789332 9.99599,-3.789332 6.79467,0 10.25733,4.573331 3.00533,3.985331 3.00533,11.237327 0,0.06533 0,0.130667 0,1.175999 -0.84933,1.959999 -0.784,0.784 -1.89466,0.784 h -19.27333 q 0.45734,3.527998 2.22134,5.291997 2.54799,2.547998 8.68932,2.547998 2.48267,0 3.78934,-0.326666 1.37199,-0.392 2.02533,-0.849333 0.65333,-0.522666 1.568,-0.522666 z m -9.53867,-19.273323 q -4.31199,0 -6.46799,2.482665 -1.69867,2.025332 -2.156,5.161331 h 16.20266 q -0.45734,-4.050665 -2.28667,-5.814664 -1.764,-1.829332 -5.292,-1.829332 z"
         style="fill:#6060eb"
         id="path147" />
      <path
         d="m 220.67053,96.983639 q 0,1.763999 0.32666,2.417332 0.52267,0.261333 0.91467,0.588 0.784,0.849329 0.784,2.025329 0,1.11067 -0.84934,1.96 -0.78399,0.784 -1.82933,0.784 -0.45733,0 -0.98,-0.196 -1.11066,-0.32666 -2.02533,-1.24133 -0.392,-0.392 -0.71867,-0.91467 -2.28666,0.91467 -5.55333,1.63334 -2.74399,0.52266 -4.76933,0.52266 -3.13599,0 -5.35733,-0.84933 -2.22133,-0.84933 -3.65866,-2.22133 -2.548,-2.613335 -2.548,-6.794666 0,-3.789332 2.61333,-6.33733 1.96,-2.025332 5.42267,-3.135999 2.93999,-0.979999 6.33733,-0.979999 2.15599,0 6.33733,1.045333 v -2.286666 q 0,-1.763999 -0.91467,-2.678665 -0.392,-0.326666 -0.91467,-0.653333 -1.82933,-0.979999 -3.78933,-0.979999 -1.89466,0 -4.83466,0.391999 -2.87467,0.392 -5.16133,1.241333 -0.52267,0.196 -1.04534,0.196 -1.04533,0 -1.89466,-0.784 -0.784,-0.849332 -0.784,-2.025332 0,-1.175999 0.784,-1.959999 0.45733,-0.457333 1.04533,-0.653333 2.87467,-0.979999 6.20666,-1.437332 3.39734,-0.522667 5.55333,-0.522667 3.528,0 6.59867,1.698666 1.24133,0.653333 2.156,1.567999 2.548,2.547999 2.548,6.598663 z m -5.55333,-6.010663 q -4.508,-1.176 -6.33733,-1.176 -2.48267,0 -4.63867,0.718667 -2.156,0.718666 -3.20133,1.763999 -0.98,0.979999 -0.98,2.417332 0,1.894665 0.91467,2.874665 0.588,0.522666 1.764,0.979999 1.24133,0.457333 3.00533,0.457333 1.764,0 4.24666,-0.457333 2.48267,-0.522666 3.98533,-1.175999 0.71867,-0.261333 1.24134,-0.522667 z"
         style="fill:#6060eb"
         id="path149" />
      <path
         d="m 257.73988,75.619651 q 3.39733,-2.939999 7.77466,-2.939999 5.61867,0 9.47333,4.965331 3.65867,4.573331 3.65867,10.975994 v 13.262663 q 0,1.176 -0.784,1.96 -0.784,0.78399 -1.96,0.78399 -1.176,0 -1.96,-0.78399 -0.784,-0.784 -0.784,-1.96 V 88.620977 q 0,-5.226664 -3.332,-8.493329 -1.89467,-1.894665 -4.312,-1.894665 -3.00533,0 -5.29199,2.809331 -2.48267,3.135999 -2.48267,7.578663 v 13.262663 q 0,1.176 -0.784,1.96 -0.784,0.78399 -1.96,0.78399 -1.176,0 -1.96,-0.78399 -0.784,-0.784 -0.784,-1.96 V 88.620977 75.423651 q 0,-1.176 0.784,-1.959999 0.784,-0.784 1.96,-0.784 1.176,0 1.96,0.784 0.784,0.783999 0.784,1.959999 z"
         style="fill:#ebaf60"
         id="path151" />
      <path
         d="m 293.13721,67.714322 q -1.11066,0 -1.89466,-0.784 -0.784,-0.783999 -0.784,-1.959999 0,-1.241332 0.84933,-2.025332 l 8.49333,-7.839996 q 0.784,-0.718666 1.89466,-0.718666 1.176,0 1.96,0.784 0.784,0.783999 0.784,1.959998 0,1.241333 -0.84933,2.025333 l -8.49333,7.839995 q -0.784,0.718667 -1.96,0.718667 z m -10.19199,20.906655 q 0,-6.990663 4.76933,-11.825327 4.116,-4.115998 9.73466,-4.115998 6.20666,0 10.38799,4.834664 4.116,4.638664 4.116,11.106661 0,7.055996 -4.76933,11.890663 -4.116,4.05066 -9.73466,4.05066 -6.14133,0 -10.38799,-4.769329 -4.116,-4.638664 -4.116,-11.171994 z m 5.48799,0 q 0,4.769331 3.26667,8.035996 2.41733,2.417332 5.74933,2.417332 3.59333,0 6.272,-3.005332 2.74399,-3.005332 2.74399,-7.447996 0,-4.703997 -3.33199,-8.035996 -2.352,-2.351998 -5.55333,-2.351998 -3.724,0 -6.468,3.005331 -2.67867,3.005332 -2.67867,7.382663 z"
         style="fill:#ebaf60"
         id="path153" />
      <path
         d="m 343.14257,101.55697 q -0.784,-0.784 -0.784,-1.959999 0,-1.175999 0.71866,-1.894666 0.84934,-0.914666 2.02534,-0.914666 0.84933,0 1.568,0.522667 2.67866,1.829332 7.31732,1.829332 2.87467,0 4.57334,-0.588 1.04533,-0.326666 1.56799,-0.849333 0.52267,-0.522666 0.52267,-1.502666 0,-1.241332 -0.98,-2.221332 -1.82933,-1.763999 -6.468,-2.874665 -5.61866,-1.241332 -8.23199,-3.854664 -2.61333,-2.678666 -2.61333,-6.14133 0,-3.527998 2.156,-5.683997 2.74399,-2.743999 8.49333,-2.743999 5.81466,0 10.97599,2.482666 0.392,0.196 0.71867,0.522666 0.78399,0.784 0.78399,1.959999 0,1.175999 -0.84933,2.025332 -0.784,0.784 -1.82933,0.784 -0.588,0 -1.30667,-0.326667 -3.98533,-1.959999 -8.36266,-1.959999 -3.59333,0 -4.704,1.176 -0.588,0.522666 -0.588,1.698665 0,3.135999 6.59867,4.703998 6.20666,1.437332 9.14666,4.311998 2.548,2.613331 2.548,6.141329 0,3.331999 -2.09067,5.422661 -3.00533,3.00533 -10.06133,3.00533 -6.33733,0 -10.45332,-2.74399 -0.196,-0.13067 -0.392,-0.32667 z"
         style="fill:#ebaf60"
         id="path155" />
      <path
         d="m 381.93723,67.714322 q -1.11067,0 -1.89467,-0.784 -0.784,-0.783999 -0.784,-1.959999 0,-1.241332 0.84934,-2.025332 l 8.49333,-7.839996 q 0.784,-0.718666 1.89466,-0.718666 1.176,0 1.96,0.784 0.784,0.783999 0.784,1.959998 0,1.241333 -0.84933,2.025333 l -8.49333,7.839995 q -0.784,0.718667 -1.96,0.718667 z m 12.02133,33.973318 q -3.39733,2.93999 -7.77467,2.93999 -5.61866,0 -9.47332,-4.965326 -3.65867,-4.573331 -3.65867,-11.041327 V 75.423651 q 0,-1.176 0.784,-1.959999 0.784,-0.784 1.96,-0.784 1.176,0 1.96,0.784 0.784,0.783999 0.784,1.959999 v 13.197326 q 0,5.291997 3.332,8.558662 1.89466,1.894666 4.31199,1.894666 3.00534,0 5.292,-2.809332 2.48267,-3.135998 2.48267,-7.643996 V 75.423651 q 0,-1.176 0.784,-1.959999 0.784,-0.784 1.96,-0.784 1.17599,0 1.95999,0.784 0.784,0.783999 0.784,1.959999 v 13.197326 13.262663 q 0,1.176 -0.784,1.96 -0.784,0.78399 -1.95999,0.78399 -1.176,0 -1.96,-0.78399 -0.784,-0.784 -0.784,-1.96 z"
         style="fill:#ebaf60"
         id="path157" />
    </g>
    <path
       id="rect1892"
       style="fill:none;stroke:#6a6a6a;stroke-width:0.7;stroke-linecap:round;stroke-linejoin:round;stroke-dasharray:0.7, 1.4"
       d="M 17.090547,37.885718 H 93.025079 V 56.767281 H 17.090547 Z" />
    <path
       id="rect1892-3"
       style="fill:none;stroke:#6a6a6a;stroke-width:0.7;stroke-linecap:round;stroke-linejoin:round;stroke-dasharray:0.7, 1.4;stroke-dashoffset:0"
       d="M 12.512117,20.418092 H 138.77917 V 61.552065 H 12.512117 Z"
       sodipodi:nodetypes="ccccc" />
    <g
       transform="matrix(0.26458333,0,0,0.26458333,5.8208337,20.637503)"
       id="text3920"
       style="font-size:65.3333px;line-height:0;font-family:Uiua386;-inkscape-font-specification:Uiua386;text-align:center;white-space:pre;shape-inside:url(#rect3922);display:inline;fill:#ebaf60;stroke:#6a6a6a;stroke-width:2.64567;stroke-linecap:round;stroke-linejoin:round;stroke-dasharray:2.64567, 5.29134" />
    <g
       aria-label="sûaı"
       id="text3980"
       style="font-size:17.2861px;line-height:0;font-family:Uiua386;-inkscape-font-specification:Uiua386;text-align:center;letter-spacing:-1.905px;text-anchor:middle;fill:#ebaf60;stroke:#6a6a6a;stroke-width:0.2;stroke-linecap:round;stroke-linejoin:round;stroke-dasharray:0.2, 0.4"
       transform="translate(8.9958336,15.345836)">
      <path
         d="m 95.891286,38.039753 q -0.207433,-0.207433 -0.207433,-0.518583 0,-0.311149 0.190147,-0.501297 0.224719,-0.242005 0.535869,-0.242005 0.224719,0 0.414866,0.138289 0.708731,0.484011 1.936044,0.484011 0.760588,0 1.210027,-0.155575 0.276574,-0.08643 0.414864,-0.22472 0.13829,-0.138288 0.13829,-0.39758 0,-0.328436 -0.25929,-0.587727 -0.484011,-0.466725 -1.711325,-0.760589 -1.486604,-0.328436 -2.178048,-1.01988 -0.691444,-0.70873 -0.691444,-1.624893 0,-0.93345 0.570441,-1.503891 0.726016,-0.726016 2.247193,-0.726016 1.538463,0 2.904063,0.656872 0.10372,0.05186 0.19015,0.138289 0.20743,0.207433 0.20743,0.518583 0,0.311149 -0.22472,0.535869 -0.20743,0.207433 -0.48401,0.207433 -0.15557,0 -0.34572,-0.08643 -1.054452,-0.518583 -2.212621,-0.518583 -0.950735,0 -1.244599,0.31115 -0.155575,0.138289 -0.155575,0.449439 0,0.829733 1.745896,1.244599 1.642179,0.380294 2.420059,1.140883 0.67415,0.691444 0.67415,1.624893 0,0.881591 -0.55315,1.434746 -0.79516,0.795161 -2.662061,0.795161 -1.676752,0 -2.765776,-0.726016 -0.05186,-0.03457 -0.103717,-0.08643 z"
         style="fill:#eb608c;stroke:none"
         id="path162" />
      <path
         d="m 105.9137,28.87812 q -0.20743,0.207433 -0.51858,0.207433 -0.31115,0 -0.51858,-0.207433 -0.20744,-0.207433 -0.20744,-0.501297 0,-0.293863 0.17286,-0.484011 1.91876,-2.281765 1.93605,-2.299051 0.20743,-0.207433 0.51858,-0.207433 0.34572,0 0.57044,0.259291 l 1.81504,2.247193 q 0.15558,0.207434 0.15558,0.466725 0,0.31115 -0.20744,0.518583 -0.20743,0.207433 -0.51858,0.207433 -0.34572,0 -0.57044,-0.259291 l -1.26189,-1.555749 q -1.34831,1.590321 -1.3656,1.607607 z m 3.42265,9.196206 q -0.89888,0.777874 -2.05705,0.777874 -1.4866,0 -2.50648,-1.313744 -0.96802,-1.210027 -0.96802,-2.921351 v -3.491792 q 0,-0.31115 0.20743,-0.518583 0.20743,-0.207433 0.51858,-0.207433 0.31115,0 0.51859,0.207433 0.20743,0.207433 0.20743,0.518583 v 3.491792 q 0,1.400175 0.88159,2.26448 0.5013,0.501297 1.14088,0.501297 0.79516,0 1.40018,-0.743303 0.65687,-0.829733 0.65687,-2.022474 v -3.491792 q 0,-0.31115 0.20743,-0.518583 0.20744,-0.207433 0.51859,-0.207433 0.31115,0 0.51858,0.207433 0.20743,0.207433 0.20743,0.518583 v 3.491792 3.509079 q 0,0.31115 -0.20743,0.518583 -0.20743,0.207433 -0.51858,0.207433 -0.31115,0 -0.51859,-0.207433 -0.20743,-0.207433 -0.20743,-0.518583 z"
         style="fill:#eb608c;stroke:none"
         id="path164" />
      <path
         d="m 118.9439,36.829726 q 0,0.466725 0.0864,0.639586 0.13829,0.06914 0.24201,0.155575 0.20743,0.224719 0.20743,0.535869 0,0.293864 -0.22472,0.518583 -0.20743,0.207433 -0.48401,0.207433 -0.121,0 -0.25929,-0.05186 -0.29387,-0.08643 -0.53587,-0.328436 -0.10372,-0.103717 -0.19015,-0.242005 -0.60501,0.242005 -1.46932,0.432152 -0.72601,0.138289 -1.26188,0.138289 -0.82974,0 -1.41746,-0.224719 -0.58773,-0.22472 -0.96802,-0.587728 -0.67416,-0.691444 -0.67416,-1.797754 0,-1.002594 0.69144,-1.676752 0.51858,-0.535869 1.43475,-0.829733 0.77787,-0.259291 1.67675,-0.259291 0.57044,0 1.67675,0.276577 v -0.605013 q 0,-0.466725 -0.242,-0.70873 -0.10372,-0.08643 -0.24201,-0.172861 -0.48401,-0.259292 -1.00259,-0.259292 -0.5013,0 -1.27917,0.103717 -0.76059,0.103716 -1.36561,0.328436 -0.13829,0.05186 -0.27657,0.05186 -0.27658,0 -0.5013,-0.207433 -0.20743,-0.224719 -0.20743,-0.535869 0,-0.31115 0.20743,-0.518583 0.121,-0.121003 0.27658,-0.172861 0.76058,-0.259292 1.64218,-0.380295 0.89887,-0.138288 1.46931,-0.138288 0.93345,0 1.7459,0.449438 0.32844,0.172861 0.57044,0.414867 0.67416,0.674158 0.67416,1.745896 z m -1.46932,-1.590321 q -1.19274,-0.31115 -1.67675,-0.31115 -0.65687,0 -1.22731,0.190147 -0.57044,0.190147 -0.84702,0.466725 -0.25929,0.259292 -0.25929,0.639586 0,0.501297 0.242,0.760588 0.15558,0.138289 0.46673,0.259292 0.32843,0.121002 0.79516,0.121002 0.46672,0 1.12359,-0.121002 0.65688,-0.138289 1.05446,-0.31115 0.19014,-0.06914 0.32843,-0.138289 z"
         style="letter-spacing:-2.59556px;fill:#eb608c;stroke:none"
         id="path166" />
      <path
         d="m 123.15907,32.02419 h -1.52118 q -0.31115,0 -0.51858,-0.207433 -0.20743,-0.207433 -0.20743,-0.518583 0,-0.31115 0.20743,-0.518583 0.20743,-0.207433 0.51858,-0.207433 h 2.2472 q 0.31115,0 0.51858,0.207433 0.20743,0.207433 0.20743,0.518583 v 6.82801 q 0,0.31115 -0.20743,0.518583 -0.20743,0.207433 -0.51858,0.207433 -0.31115,0 -0.51859,-0.207433 -0.20743,-0.207433 -0.20743,-0.518583 z"
         style="letter-spacing:-2.59556px;fill:#eb608c;stroke:none"
         id="path168" />
    </g>
    <path
       style="fill:none;fill-opacity:1;stroke:#000000;stroke-width:0.7;stroke-linecap:round;stroke-linejoin:round;stroke-dasharray:none;stroke-dashoffset:0;stroke-opacity:1"
       d="M 51.032273,35.795792 V 23.230399 H 118.66668 V 38.02506 l -2.16073,-2.160732"
       id="path4562" />
    <path
       style="fill:none;fill-opacity:1;stroke:#000000;stroke-width:0.7;stroke-linecap:round;stroke-linejoin:round;stroke-dasharray:none;stroke-dashoffset:0;stroke-opacity:1"
       d="m 118.68522,38.050996 2.18158,-2.177501 v 0"
       id="path4827" />
    <path
       style="fill:none;fill-opacity:1;stroke:#000000;stroke-width:0.7;stroke-linecap:round;stroke-linejoin:round;stroke-dasharray:none;stroke-dashoffset:0;stroke-opacity:1"
       d="M 82.037519,17.081236 V 4.5158405 H 160.25529 V 44.181338 l -2.16073,-2.160732"
       id="path4562-6"
       sodipodi:nodetypes="ccccc" />
    <path
       style="fill:none;fill-opacity:1;stroke:#000000;stroke-width:0.7;stroke-linecap:round;stroke-linejoin:round;stroke-dasharray:none;stroke-dashoffset:0;stroke-opacity:1"
       d="m 160.27383,44.207275 2.18158,-2.177501 v 0"
       id="path4827-7"
       sodipodi:nodetypes="ccc" />
    <g
       aria-label="mâ"
       id="text3980-9"
       style="font-size:17.2861px;line-height:0;font-family:Uiua386;-inkscape-font-specification:Uiua386;text-align:center;letter-spacing:-1.905px;text-anchor:middle;fill:#ebaf60;stroke:#6a6a6a;stroke-width:0.2;stroke-linecap:round;stroke-linejoin:round;stroke-dasharray:0.2, 0.4"
       transform="translate(0,6.8791664)">
      <path
         d="m 156.75296,53.573469 q 0,0.311149 -0.20743,0.518583 -0.20743,0.207433 -0.51858,0.207433 -0.31115,0 -0.51859,-0.207433 -0.20743,-0.207434 -0.20743,-0.518583 v -5.185831 q 0,-0.432152 -0.32843,-0.760588 -0.32844,-0.328436 -0.76059,-0.328436 -0.43216,0 -0.76059,0.328436 -0.32844,0.328436 -0.32844,0.760588 v 5.185831 q 0,0.311149 -0.20743,0.518583 -0.20743,0.207433 -0.51858,0.207433 -0.31115,0 -0.51859,-0.207433 -0.20743,-0.207434 -0.20743,-0.518583 v -7.000871 q 0,-0.31115 0.20743,-0.518583 0.20744,-0.207433 0.51859,-0.207433 0.38029,0 0.60501,0.293863 0.55316,-0.293863 1.21003,-0.293863 1.05445,0 1.81504,0.760588 0.76059,-0.760588 1.81504,-0.760588 1.05445,0 1.79775,0.743302 0.7433,0.743302 0.7433,1.797754 v 5.185831 q 0,0.311149 -0.20743,0.518583 -0.20743,0.207433 -0.51858,0.207433 -0.31115,0 -0.51858,-0.207433 -0.20744,-0.207434 -0.20744,-0.518583 v -5.185831 q 0,-0.432152 -0.32843,-0.760588 -0.32844,-0.328436 -0.76059,-0.328436 -0.43215,0 -0.76059,0.328436 -0.32844,0.328436 -0.32844,0.760588 z"
         style="fill:#eb608c;stroke:none"
         id="path3528" />
      <path
         d="m 163.11073,44.325405 q -0.20744,0.207433 -0.51859,0.207433 -0.31115,0 -0.51858,-0.207433 -0.20743,-0.207433 -0.20743,-0.501297 0,-0.293864 0.17286,-0.484011 1.91876,-2.281765 1.93604,-2.299051 0.20744,-0.207433 0.51858,-0.207433 0.34573,0 0.57045,0.259291 l 1.81504,2.247193 q 0.15557,0.207433 0.15557,0.466725 0,0.31115 -0.20743,0.518583 -0.20743,0.207433 -0.51858,0.207433 -0.34573,0 -0.57045,-0.259291 l -1.26188,-1.55575 q -1.34832,1.590322 -1.3656,1.607608 z m 4.56353,7.951606 q 0,0.466725 0.0864,0.639586 0.13829,0.06914 0.242,0.155575 0.20744,0.224719 0.20744,0.535869 0,0.293863 -0.22472,0.518583 -0.20744,0.207433 -0.48401,0.207433 -0.12101,0 -0.2593,-0.05186 -0.29386,-0.08643 -0.53586,-0.328436 -0.10372,-0.103717 -0.19015,-0.242006 -0.60501,0.242006 -1.46932,0.432153 -0.72602,0.138289 -1.26189,0.138289 -0.82973,0 -1.41746,-0.22472 -0.58772,-0.224719 -0.96802,-0.587727 -0.67416,-0.691444 -0.67416,-1.797755 0,-1.002593 0.69145,-1.676751 0.51858,-0.535869 1.43475,-0.829733 0.77787,-0.259292 1.67675,-0.259292 0.57044,0 1.67675,0.276578 v -0.605013 q 0,-0.466725 -0.24201,-0.708731 -0.10371,-0.08643 -0.242,-0.172861 -0.48401,-0.259291 -1.0026,-0.259291 -0.50129,0 -1.27917,0.103717 -0.76059,0.103716 -1.3656,0.328435 -0.13829,0.05186 -0.27658,0.05186 -0.27657,0 -0.50129,-0.207433 -0.20744,-0.22472 -0.20744,-0.53587 0,-0.311149 0.20744,-0.518583 0.121,-0.121002 0.27657,-0.172861 0.76059,-0.259291 1.64218,-0.380294 0.89888,-0.138289 1.46932,-0.138289 0.93345,0 1.7459,0.449439 0.32843,0.172861 0.57044,0.414866 0.67416,0.674158 0.67416,1.745897 z m -1.46932,-1.590321 q -1.19274,-0.31115 -1.67675,-0.31115 -0.65687,0 -1.22732,0.190147 -0.57044,0.190147 -0.84701,0.466725 -0.2593,0.259291 -0.2593,0.639585 0,0.501297 0.24201,0.760589 0.15557,0.138289 0.46672,0.259291 0.32844,0.121003 0.79516,0.121003 0.46673,0 1.1236,-0.121003 0.65687,-0.138288 1.05445,-0.311149 0.19015,-0.06914 0.32844,-0.138289 z"
         style="fill:#eb608c;stroke:none"
         id="path3530" />
    </g>
  </g>
</svg>
