<?xml version="1.0" encoding="UTF-8" standalone="no"?>
<!-- Created with Inkscape (http://www.inkscape.org/) -->

<svg
   width="244mm"
   height="118mm"
   viewBox="0 0 244 118"
   version="1.1"
   id="svg5"
   xmlns="http://www.w3.org/2000/svg"
   xmlns:svg="http://www.w3.org/2000/svg">
  <defs
     id="defs2">
    <rect
       x="495.75522"
       y="228.11444"
       width="191.85217"
       height="122.91931"
       id="rect2066" />
    <rect
       x="216.842"
       y="88.347946"
       width="83.23278"
       height="66.652908"
       id="rect8530" />
    <rect
       x="96.101341"
       y="92.343094"
       width="271.63165"
       height="370.85809"
       id="rect6790" />
    <rect
       x="226.83022"
       y="27.368559"
       width="486.1185"
       height="101.23308"
       id="rect4126" />
    <rect
       x="27.948473"
       y="27.940496"
       width="315.97739"
       height="139.88478"
       id="rect236" />
    <rect
       x="27.948473"
       y="27.940496"
       width="315.97739"
       height="139.88478"
       id="rect236-3" />
    <rect
       x="226.83022"
       y="27.368559"
       width="518.60052"
       height="97.121124"
       id="rect4126-7" />
    <rect
       x="27.948473"
       y="27.940496"
       width="325.38458"
       height="218.44351"
       id="rect236-7" />
    <rect
       x="226.83022"
       y="27.368559"
       width="788.6189"
       height="104.84503"
       id="rect4126-7-2" />
    <rect
       x="226.83022"
       y="27.368559"
       width="486.1185"
       height="101.23308"
       id="rect4126-6" />
  </defs>
  <g
     id="layer1">
    <g
       aria-label="lim"
       transform="matrix(0.26458333,0,0,0.26458333,-27.891806,8.0675959)"
       id="text234"
       style="font-size:65.3333px;line-height:0;font-family:Uiua386;-inkscape-font-specification:Uiua386;text-align:center;letter-spacing:-7.2px;white-space:pre;shape-inside:url(#rect236);fill:#6161eb;stroke-width:0.5;stroke-linecap:round;stroke-linejoin:round">
      <path
         id="path987"
         d="m 207.47968,185.5591 q 0,1.176 -0.784,1.96 -0.784,0.784 -1.96,0.784 -1.176,0 -1.96,-0.784 -0.784,-0.784 -0.784,-1.96 v -19.59999 q 0,-1.63333 -1.24133,-2.87466 -1.24133,-1.24134 -2.87466,-1.24134 -1.63334,0 -2.87467,1.24134 -1.24133,1.24133 -1.24133,2.87466 v 19.59999 q 0,1.176 -0.784,1.96 -0.784,0.784 -1.96,0.784 -1.176,0 -1.96,-0.784 -0.784,-0.784 -0.784,-1.96 v -26.45998 q 0,-1.176 0.784,-1.96 0.784,-0.784 1.96,-0.784 1.43733,0 2.28666,1.11066 2.09067,-1.11066 4.57334,-1.11066 3.98533,0 6.85999,2.87466 2.87467,-2.87466 6.86,-2.87466 3.98533,0 6.79466,2.80933 2.80933,2.80933 2.80933,6.79466 v 19.59999 q 0,1.176 -0.784,1.96 -0.784,0.784 -1.96,0.784 -1.176,0 -1.95999,-0.784 -0.784,-0.784 -0.784,-1.96 v -19.59999 q 0,-1.63333 -1.24134,-2.87466 -1.24133,-1.24134 -2.87466,-1.24134 -1.63333,0 -2.87467,1.24134 -1.24133,1.24133 -1.24133,2.87466 z m -36.18133,-23.06265 h -5.74934 q -1.17599,0 -1.95999,-0.784 -0.784,-0.784 -0.784,-1.96 0,-1.176 0.784,-1.96 0.784,-0.784 1.95999,-0.784 h 8.49333 q 1.176,0 1.96,0.784 0.784,0.784 0.784,1.96 v 25.80665 q 0,1.176 -0.784,1.96 -0.784,0.784 -1.96,0.784 -1.176,0 -1.96,-0.784 -0.78399,-0.784 -0.78399,-1.96 z m -1.372,-11.69466 q -1.176,-1.176 -1.176,-2.80934 0,-1.63333 1.176,-2.80933 1.176,-1.176 2.80933,-1.176 1.63333,0 2.80933,1.176 1.176,1.176 1.176,2.80933 0,1.63334 -1.176,2.80934 -1.176,1.176 -2.80933,1.176 -1.63333,0 -2.80933,-1.176 z m -11.35068,32.79731 c 0,0.73916 0.784,1.176 0.784,1.96 0,0.784 -0.26133,1.43733 -0.784,1.96 -0.52267,0.52267 -1.176,0.784 -1.96,0.784 h -2.156 -2.28666 c -0.74045,-0.0436 -1.43734,-0.23955 -2.09067,-0.588 -1.30667,-0.74044 -2.352,-1.82933 -3.136,-3.26667 -0.65333,-1.13244 -1.08889,-2.39555 -1.30666,-3.78933 -0.17423,-1.39377 -0.26134,-3.39733 -0.26134,-6.01066 v -28.87732 c 0,-0.784 0.26133,-1.43733 0.784,-1.96 0.52267,-0.52266 1.176,-0.784 1.96,-0.784 0.784,0 1.43733,0.26134 1.96,0.784 0.52267,0.52267 0.784,1.176 0.784,1.96 v 28.87732 c 0,2.352 0.0871,3.98533 0.26133,4.9 0.21778,1.39377 0.60978,2.39555 1.176,3.00533 0.0871,0.0871 0.196,0.15244 0.32667,0.196 l 3.98533,0.0653 c 0.784,0 1.96,0.0448 1.96,0.784 z"
         style="font-size:65.3333px;line-height:0;font-family:Uiua386;-inkscape-font-specification:Uiua386;text-align:center;letter-spacing:-7.2px;white-space:pre;shape-inside:url(#rect236);fill:#6161eb;stroke-width:0.5;stroke-linecap:round;stroke-linejoin:round" />
      <path
         id="rect450"
         style="fill:none;stroke:#e914de;stroke-width:2.64567;stroke-dasharray:2.64567, 5.29134;stroke-opacity:0.632115"
         d="m 284.81143,137.51721 h 35.73836 v 60.61199 h -35.73836 z" />
      <path
         id="rect450-3"
         style="fill:none;stroke:#e914de;stroke-width:2.64567;stroke-dasharray:2.64567, 5.29134;stroke-opacity:0.632115"
         d="m 714.05841,136.63872 h 35.73836 v 60.61198 h -35.73836 z" />
      <g
         aria-label="understands    .
 "
         transform="translate(85.96339,142.47986)"
         id="text4124"
         style="letter-spacing:0px;shape-inside:url(#rect4126-6);display:inline;fill:#eb14df;stroke-width:2.64567;stroke-dasharray:2.64567, 5.29134;stroke-opacity:0.632115">
        <path
           d="m 270.63928,47.622463 q -3.78933,0 -6.86,-1.698666 -3.00533,-1.763999 -4.70399,-4.834664 -1.69867,-3.070665 -1.69867,-7.121329 v -18.03199 h 5.88 v 17.770657 q 0,2.547998 0.84933,4.442664 0.91467,1.829332 2.61333,2.809332 1.69867,0.979999 3.98533,0.979999 3.46267,0 5.42267,-2.155999 1.96,-2.221332 1.96,-6.075996 V 15.935814 h 5.87999 v 18.03199 q 0,4.050664 -1.69866,7.121329 -1.69867,3.070665 -4.704,4.834664 -2.94,1.698666 -6.92533,1.698666 z"
           style="font-family:Outfit;-inkscape-font-specification:Outfit"
           id="path6047" />
        <path
           d="M 313.82464,46.96913 V 28.871806 q 0,-3.527998 -2.22133,-5.814663 -2.22133,-2.286665 -5.74933,-2.286665 -2.352,0 -4.18133,1.045332 -1.82934,1.045333 -2.87467,2.874665 -1.04533,1.829333 -1.04533,4.181331 l -2.41733,-1.371999 q 0,-3.527998 1.568,-6.271996 1.568,-2.743999 4.37733,-4.311998 2.80933,-1.633332 6.33733,-1.633332 3.52799,0 6.20666,1.763999 2.744,1.763999 4.312,4.638664 1.568,2.809332 1.568,6.010663 V 46.96913 Z m -21.95199,0 V 15.935814 h 5.88 V 46.96913 Z"
           style="font-family:Outfit;-inkscape-font-specification:Outfit"
           id="path6049" />
        <path
           d="m 340.80731,47.622463 q -4.31199,0 -7.70932,-2.090666 -3.39734,-2.155998 -5.42267,-5.814663 -1.96,-3.658665 -1.96,-8.231996 0,-4.57333 1.96,-8.231995 2.02533,-3.658665 5.42267,-5.814664 3.39733,-2.155998 7.70932,-2.155998 3.46267,0 6.272,1.502665 2.80933,1.437333 4.508,4.050665 1.764,2.547998 1.96,5.94533 v 9.342662 q -0.196,3.331998 -1.89467,5.94533 -1.69866,2.613332 -4.508,4.115997 -2.80933,1.437333 -6.33733,1.437333 z m 0.98,-5.55333 q 2.94,0 5.096,-1.372 2.22133,-1.371999 3.46267,-3.723998 1.24133,-2.417332 1.24133,-5.487997 0,-3.201331 -1.30667,-5.55333 -1.24133,-2.351999 -3.46266,-3.723998 -2.156,-1.371999 -5.096,-1.371999 -2.94,0 -5.16133,1.371999 -2.22133,1.371999 -3.528,3.789331 -1.24133,2.351999 -1.24133,5.422664 0,3.135998 1.24133,5.55333 1.30667,2.351999 3.528,3.723998 2.28667,1.372 5.22666,1.372 z m 15.35333,4.899997 h -5.94533 v -8.362662 l 1.11066,-7.578663 -1.11066,-7.513329 V 0.32115536 h 5.94533 z"
           style="font-family:Outfit;-inkscape-font-specification:Outfit"
           id="path6051" />
        <path
           d="m 380.07267,47.622463 q -4.63866,0 -8.36266,-2.090666 -3.724,-2.155998 -5.88,-5.814663 -2.156,-3.658665 -2.156,-8.297329 0,-4.573331 2.09067,-8.231995 2.156,-3.658665 5.74933,-5.749331 3.65866,-2.155998 8.16666,-2.155998 4.312,0 7.57866,1.959998 3.332,1.959999 5.16134,5.422664 1.89466,3.462665 1.89466,7.839996 0,0.653333 -0.0653,1.437332 -0.0653,0.718667 -0.26134,1.698666 H 367.79001 V 28.74114 h 23.06266 l -2.156,1.894666 q 0,-3.135999 -1.11067,-5.291998 -1.11066,-2.221332 -3.136,-3.397331 -2.02533,-1.241333 -4.89999,-1.241333 -3.00534,0 -5.292,1.306666 -2.28667,1.306666 -3.528,3.658665 -1.24133,2.351999 -1.24133,5.55333 0,3.266665 1.30666,5.74933 1.30667,2.417332 3.724,3.789332 2.41733,1.306666 5.55333,1.306666 2.61333,0 4.76933,-0.914667 2.22133,-0.914666 3.78933,-2.743998 l 3.78934,3.854665 q -2.22134,2.613331 -5.488,3.985331 -3.20133,1.371999 -6.86,1.371999 z"
           style="font-family:Outfit;-inkscape-font-specification:Outfit"
           id="path6053" />
        <path
           d="M 400.71795,46.96913 V 15.935814 h 5.87999 V 46.96913 Z m 5.87999,-17.705324 -2.22133,-0.979999 q 0,-5.94533 2.744,-9.473328 2.744,-3.527998 7.90533,-3.527998 2.352,0 4.24666,0.849332 1.89467,0.784 3.528,2.678666 l -3.85466,3.985331 q -0.98,-1.045333 -2.156,-1.502666 -1.176,-0.457333 -2.744,-0.457333 -3.26667,0 -5.35733,2.090665 -2.09067,2.090666 -2.09067,6.33733 z"
           style="font-family:Outfit;-inkscape-font-specification:Outfit"
           id="path6055" />
        <path
           d="m 436.12864,47.622463 q -2.61333,0 -4.96533,-0.653333 -2.28667,-0.718666 -4.24667,-1.959999 -1.95999,-1.306666 -3.39733,-3.070665 l 3.78933,-3.789331 q 1.69867,2.090665 3.92,3.135998 2.22133,0.98 4.96533,0.98 2.744,0 4.24667,-0.914667 1.50266,-0.979999 1.50266,-2.678665 0,-1.698666 -1.24133,-2.613332 -1.176,-0.979999 -3.07066,-1.567999 -1.89467,-0.653333 -4.05067,-1.241333 -2.09066,-0.653333 -3.98533,-1.633332 -1.89467,-0.979999 -3.136,-2.678665 -1.176,-1.698666 -1.176,-4.507998 0,-2.809332 1.372,-4.834664 1.372,-2.090665 3.78933,-3.201331 2.48267,-1.110666 5.94533,-1.110666 3.65867,0 6.468,1.306665 2.87466,1.241333 4.704,3.789332 l -3.78933,3.789331 q -1.30667,-1.698666 -3.26667,-2.613332 -1.89467,-0.914666 -4.312,-0.914666 -2.548,0 -3.92,0.914666 -1.30666,0.849333 -1.30666,2.417332 0,1.567999 1.176,2.417332 1.176,0.849333 3.07066,1.437333 1.96,0.587999 4.05067,1.241332 2.09066,0.588 3.98533,1.633333 1.89466,1.045333 3.07066,2.809332 1.24134,1.763999 1.24134,4.638664 0,4.377331 -3.136,6.925329 -3.07067,2.547999 -8.29733,2.547999 z"
           style="font-family:Outfit;-inkscape-font-specification:Outfit"
           id="path6057" />
        <path
           d="M 458.92997,46.96913 V 2.9344873 h 5.87999 V 46.96913 Z m -7.644,-25.675986 v -5.35733 h 21.16799 v 5.35733 z"
           style="font-family:Outfit;-inkscape-font-specification:Outfit"
           id="path6059" />
        <path
           d="m 490.38788,47.622463 q -4.24666,0 -7.70933,-2.090666 -3.46266,-2.155998 -5.48799,-5.814663 -1.96,-3.658665 -1.96,-8.231996 0,-4.57333 1.96,-8.231995 2.02533,-3.658665 5.42266,-5.814664 3.46267,-2.155998 7.77466,-2.155998 3.528,0 6.272,1.502665 2.80933,1.437333 4.508,4.050665 1.69866,2.547998 1.89466,5.94533 v 9.342662 q -0.196,3.331998 -1.89466,5.94533 -1.63333,2.613332 -4.44267,4.115997 -2.74399,1.437333 -6.33733,1.437333 z m 0.98,-5.55333 q 4.37733,0 7.056,-2.939999 2.67866,-3.005331 2.67866,-7.643996 0,-3.201331 -1.24133,-5.55333 -1.176,-2.417332 -3.39733,-3.723998 -2.22133,-1.371999 -5.16133,-1.371999 -2.94,0 -5.22666,1.371999 -2.22134,1.371999 -3.528,3.789331 -1.24133,2.351999 -1.24133,5.422664 0,3.135998 1.24133,5.55333 1.30666,2.351999 3.59333,3.723998 2.28666,1.372 5.22666,1.372 z m 9.34266,4.899997 v -8.362662 l 1.11067,-7.578663 -1.11067,-7.513329 v -7.578662 h 5.94533 V 46.96913 Z"
           style="font-family:Outfit;-inkscape-font-specification:Outfit"
           id="path6061" />
        <path
           d="M 537.16659,46.96913 V 28.871806 q 0,-3.527998 -2.22133,-5.814663 -2.22133,-2.286665 -5.74933,-2.286665 -2.352,0 -4.18133,1.045332 -1.82933,1.045333 -2.87467,2.874665 -1.04533,1.829333 -1.04533,4.181331 l -2.41733,-1.371999 q 0,-3.527998 1.568,-6.271996 1.568,-2.743999 4.37733,-4.311998 2.80933,-1.633332 6.33733,-1.633332 3.528,0 6.20666,1.763999 2.744,1.763999 4.312,4.638664 1.568,2.809332 1.568,6.010663 V 46.96913 Z m -21.95198,0 V 15.935814 h 5.87999 V 46.96913 Z"
           style="font-family:Outfit;-inkscape-font-specification:Outfit"
           id="path6063" />
        <path
           d="m 564.14924,47.622463 q -4.312,0 -7.70933,-2.090666 -3.39733,-2.155998 -5.42266,-5.814663 -1.96,-3.658665 -1.96,-8.231996 0,-4.57333 1.96,-8.231995 2.02533,-3.658665 5.42266,-5.814664 3.39733,-2.155998 7.70933,-2.155998 3.46267,0 6.272,1.502665 2.80933,1.437333 4.508,4.050665 1.76399,2.547998 1.95999,5.94533 v 9.342662 q -0.196,3.331998 -1.89466,5.94533 -1.69867,2.613332 -4.508,4.115997 -2.80933,1.437333 -6.33733,1.437333 z m 0.98,-5.55333 q 2.94,0 5.096,-1.372 2.22133,-1.371999 3.46266,-3.723998 1.24134,-2.417332 1.24134,-5.487997 0,-3.201331 -1.30667,-5.55333 -1.24133,-2.351999 -3.46267,-3.723998 -2.15599,-1.371999 -5.09599,-1.371999 -2.94,0 -5.16133,1.371999 -2.22134,1.371999 -3.528,3.789331 -1.24133,2.351999 -1.24133,5.422664 0,3.135998 1.24133,5.55333 1.30666,2.351999 3.528,3.723998 2.28666,1.372 5.22666,1.372 z m 15.35333,4.899997 h -5.94533 v -8.362662 l 1.11066,-7.578663 -1.11066,-7.513329 V 0.32115536 h 5.94533 z"
           style="font-family:Outfit;-inkscape-font-specification:Outfit"
           id="path6065" />
        <path
           d="m 598.90662,47.622463 q -2.61333,0 -4.96533,-0.653333 -2.28666,-0.718666 -4.24666,-1.959999 -1.96,-1.306666 -3.39733,-3.070665 l 3.78933,-3.789331 q 1.69866,2.090665 3.92,3.135998 2.22133,0.98 4.96533,0.98 2.744,0 4.24666,-0.914667 1.50267,-0.979999 1.50267,-2.678665 0,-1.698666 -1.24134,-2.613332 -1.17599,-0.979999 -3.07066,-1.567999 -1.89467,-0.653333 -4.05066,-1.241333 -2.09067,-0.653333 -3.98534,-1.633332 -1.89466,-0.979999 -3.13599,-2.678665 -1.176,-1.698666 -1.176,-4.507998 0,-2.809332 1.372,-4.834664 1.372,-2.090665 3.78933,-3.201331 2.48266,-1.110666 5.94533,-1.110666 3.65866,0 6.46799,1.306665 2.87467,1.241333 4.704,3.789332 l -3.78933,3.789331 q -1.30667,-1.698666 -3.26667,-2.613332 -1.89466,-0.914666 -4.31199,-0.914666 -2.548,0 -3.92,0.914666 -1.30667,0.849333 -1.30667,2.417332 0,1.567999 1.176,2.417332 1.176,0.849333 3.07067,1.437333 1.96,0.587999 4.05066,1.241332 2.09067,0.588 3.98533,1.633333 1.89467,1.045333 3.07067,2.809332 1.24133,1.763999 1.24133,4.638664 0,4.377331 -3.136,6.925329 -3.07066,2.547999 -8.29733,2.547999 z"
           style="font-family:Outfit;-inkscape-font-specification:Outfit"
           id="path6067" />
        <path
           d="m 676.4573,47.622463 q -1.82934,0 -3.07067,-1.241333 -1.176,-1.306666 -1.176,-3.070665 0,-1.829332 1.176,-3.005331 1.24133,-1.241333 3.07067,-1.241333 1.82933,0 3.00533,1.241333 1.24133,1.175999 1.24133,3.005331 0,1.763999 -1.24133,3.070665 -1.176,1.241333 -3.00533,1.241333 z"
           style="font-family:Outfit;-inkscape-font-specification:Outfit"
           id="path6069" />
      </g>
    </g>
    <g
       aria-label="tua
lìm"
       transform="matrix(0.26458333,0,0,0.26458333,-28.874148,67.199064)"
       id="text234-9"
       style="font-size:65.3333px;line-height:0.9;font-family:Uiua386;-inkscape-font-specification:Uiua386;text-align:center;letter-spacing:-7.2px;white-space:pre;shape-inside:url(#rect236-7);display:inline;fill:#6161eb;stroke-width:0.5;stroke-linecap:round;stroke-linejoin:round">
      <path
         d="m 168.04958,70.212049 q 1.176,0 1.96,0.849333 0.784,0.784 0.784,1.959999 0,1.437332 -1.11067,2.221332 -2.94,2.155999 -7.77466,2.155999 -4.83466,0 -7.18666,-2.351999 -0.91467,-0.914666 -1.43734,-2.090665 -0.97999,-2.351999 -0.97999,-7.643996 V 51.788059 h -2.80934 q -1.176,0 -1.96,-0.783999 -0.78399,-0.784 -0.78399,-1.959999 0,-1.176 0.78399,-1.959999 0.784,-0.784 1.96,-0.784 h 2.80934 V 35.258735 q 0,-1.176 0.784,-1.959999 0.78399,-0.784 1.95999,-0.784 1.176,0 1.96,0.784 0.784,0.783999 0.784,1.959999 v 11.041327 h 7.056 q 1.176,0 1.96,0.784 0.784,0.783999 0.784,1.959999 0,1.175999 -0.784,1.959999 -0.784,0.783999 -1.96,0.783999 h -7.056 v 13.523993 q 0,2.417332 0.196,3.723998 0.196,1.241332 0.32667,1.567999 0.196,0.326666 0.32667,0.522666 0.78399,0.784 3.26666,0.784 3.00533,0 4.508,-1.110666 0.71866,-0.588 1.63333,-0.588 z"
         id="path3627" />
      <path
         d="m 198.35092,74.458713 q -3.39733,2.939999 -7.77466,2.939999 -5.61867,0 -9.47333,-4.965331 -3.65867,-4.573331 -3.65867,-11.041327 V 48.194728 q 0,-1.176 0.784,-1.959999 0.784,-0.784 1.96,-0.784 1.176,0 1.96,0.784 0.784,0.783999 0.784,1.959999 v 13.197326 q 0,5.291997 3.332,8.558662 1.89466,1.894666 4.312,1.894666 3.00533,0 5.29199,-2.809332 2.48267,-3.135999 2.48267,-7.643996 V 48.194728 q 0,-1.176 0.784,-1.959999 0.784,-0.784 1.96,-0.784 1.176,0 1.96,0.784 0.784,0.783999 0.784,1.959999 v 13.197326 13.262659 q 0,1.176 -0.784,1.959999 -0.784,0.784 -1.96,0.784 -1.176,0 -1.96,-0.784 -0.784,-0.783999 -0.784,-1.959999 z"
         id="path3629" />
      <path
         d="m 234.66292,69.754716 q 0,1.763999 0.32667,2.417332 0.52266,0.261333 0.91466,0.588 0.784,0.849333 0.784,2.025332 0,1.110666 -0.84933,1.959999 -0.784,0.783999 -1.82933,0.783999 -0.45734,0 -0.98,-0.195999 -1.11067,-0.326667 -2.02533,-1.241333 -0.392,-0.392 -0.71867,-0.914666 -2.28667,0.914666 -5.55333,1.633332 -2.744,0.522667 -4.76933,0.522667 -3.136,0 -5.35733,-0.849333 -2.22133,-0.849333 -3.65867,-2.221332 -2.548,-2.613332 -2.548,-6.794663 0,-3.789332 2.61334,-6.33733 1.95999,-2.025333 5.42266,-3.135999 2.94,-0.979999 6.33733,-0.979999 2.156,0 6.33733,1.045333 V 55.77339 q 0,-1.763999 -0.91467,-2.678665 -0.392,-0.326666 -0.91466,-0.653333 -1.82934,-0.979999 -3.78933,-0.979999 -1.89467,0 -4.83467,0.391999 -2.87466,0.392 -5.16133,1.241333 -0.52267,0.196 -1.04533,0.196 -1.04533,0 -1.89467,-0.784 -0.784,-0.849332 -0.784,-2.025332 0,-1.175999 0.784,-1.959999 0.45734,-0.457333 1.04534,-0.653333 2.87466,-0.979999 6.20666,-1.437332 3.39733,-0.522667 5.55333,-0.522667 3.528,0 6.59866,1.698666 1.24133,0.653333 2.156,1.567999 2.548,2.547999 2.548,6.598663 z m -5.55333,-6.010663 q -4.508,-1.176 -6.33733,-1.176 -2.48267,0 -4.63866,0.718667 -2.156,0.718666 -3.20134,1.763999 -0.98,0.979999 -0.98,2.417332 0,1.894665 0.91467,2.874665 0.588,0.522666 1.764,0.979999 1.24133,0.457333 3.00533,0.457333 1.764,0 4.24667,-0.457333 2.48266,-0.522666 3.98533,-1.175999 0.71866,-0.261333 1.24133,-0.522667 z"
         id="path3631" />
      <path
         d="m 170.48158,131.49468 q 0.784,0.784 0.784,1.96 0,1.176 -0.784,1.96 -0.784,0.784 -1.96,0.784 h -2.156 q -2.156,0 -2.28666,0 -1.11067,-0.0653 -2.09067,-0.588 -1.96,-1.11067 -3.136,-3.26667 -0.98,-1.69866 -1.30666,-3.78933 -0.26134,-2.09066 -0.26134,-6.01066 V 93.6667 q 0,-1.175999 0.784,-1.959999 0.784,-0.784 1.96,-0.784 1.176,0 1.96,0.784 0.784,0.784 0.784,1.959999 v 28.87732 q 0,3.528 0.26134,4.89999 0.32666,2.09067 1.17599,3.00534 0.13067,0.13066 0.32667,0.196 l 3.98533,0.0653 q 1.176,0 1.96,0.784 z"
         style="word-spacing:0px;fill:#61ddeb;fill-opacity:1"
         id="path3633" />
      <path
         d="m 176.10826,89.681369 q -0.784,-0.784 -0.784,-1.959999 0,-1.176 0.784,-1.959999 0.784,-0.784 1.89467,-0.784 1.17599,0 1.95999,0.718667 8.55867,8.231995 8.55867,8.231995 0.784,0.784 0.784,1.959999 0,1.175999 -0.784,1.959999 -0.784,0.784 -1.96,0.784 -1.11067,0 -1.89467,-0.718667 -8.55866,-8.231995 -8.55866,-8.231995 z m 5.096,20.710651 h -5.74933 q -1.176,0 -1.96,-0.784 -0.784,-0.78399 -0.784,-1.95999 0,-1.176 0.784,-1.96 0.784,-0.784 1.96,-0.784 h 8.49333 q 1.17599,0 1.95999,0.784 0.784,0.784 0.784,1.96 v 25.80665 q 0,1.176 -0.784,1.96 -0.784,0.784 -1.95999,0.784 -1.176,0 -1.96,-0.784 -0.784,-0.784 -0.784,-1.96 z"
         style="word-spacing:0px;fill:#61ddeb;fill-opacity:1"
         id="path3635" />
      <path
         d="m 217.38559,133.45468 q 0,1.176 -0.784,1.96 -0.784,0.784 -1.96,0.784 -1.176,0 -1.96,-0.784 -0.784,-0.784 -0.784,-1.96 v -19.59999 q 0,-1.63333 -1.24133,-2.87467 -1.24133,-1.24133 -2.87466,-1.24133 -1.63334,0 -2.87467,1.24133 -1.24133,1.24134 -1.24133,2.87467 v 19.59999 q 0,1.176 -0.784,1.96 -0.784,0.784 -1.96,0.784 -1.176,0 -1.96,-0.784 -0.784,-0.784 -0.784,-1.96 v -26.45999 q 0,-1.176 0.784,-1.96 0.784,-0.784 1.96,-0.784 1.43733,0 2.28667,1.11067 2.09066,-1.11067 4.57333,-1.11067 3.98533,0 6.85999,2.87467 2.87467,-2.87467 6.86,-2.87467 3.98533,0 6.79466,2.80934 2.80933,2.80933 2.80933,6.79466 v 19.59999 q 0,1.176 -0.784,1.96 -0.784,0.784 -1.95999,0.784 -1.176,0 -1.96,-0.784 -0.784,-0.784 -0.784,-1.96 v -19.59999 q 0,-1.63333 -1.24134,-2.87467 -1.24133,-1.24133 -2.87466,-1.24133 -1.63333,0 -2.87467,1.24133 -1.24133,1.24134 -1.24133,2.87467 z"
         style="fill:#61ddeb"
         id="path3637" />
    </g>
    <g
       aria-label="tua"
       transform="matrix(0.26458333,0,0,0.26458333,-27.950794,7.9875174)"
       id="text234-6"
       style="font-size:65.3333px;line-height:0;font-family:Uiua386;-inkscape-font-specification:Uiua386;text-align:center;letter-spacing:-7.2px;white-space:pre;shape-inside:url(#rect236-3);display:inline;fill:#6060eb;stroke-width:0.5;stroke-linecap:round;stroke-linejoin:round">
      <path
         d="m 163.34548,40.812066 q 1.176,0 1.96,0.849333 0.784,0.783999 0.784,1.959999 0,1.437332 -1.11067,2.221332 -2.94,2.155999 -7.77466,2.155999 -4.83467,0 -7.18666,-2.351999 -0.91467,-0.914666 -1.43734,-2.090666 -0.98,-2.351998 -0.98,-7.643995 V 22.388076 h -2.80933 q -1.176,0 -1.96,-0.784 -0.784,-0.783999 -0.784,-1.959999 0,-1.175999 0.784,-1.959998 0.784,-0.784 1.96,-0.784 h 2.80933 V 5.8587516 q 0,-1.1759993 0.784,-1.9599989 0.784,-0.7839996 1.96,-0.7839996 1.176,0 1.96,0.7839996 0.784,0.7839996 0.784,1.9599989 V 16.900079 h 7.056 q 1.176,0 1.96,0.784 0.784,0.783999 0.784,1.959998 0,1.176 -0.784,1.959999 -0.784,0.784 -1.96,0.784 h -7.056 v 13.523993 q 0,2.417332 0.196,3.723998 0.196,1.241332 0.32667,1.567999 0.196,0.326666 0.32666,0.522666 0.784,0.784 3.26667,0.784 3.00533,0 4.508,-1.110666 0.71866,-0.588 1.63333,-0.588 z"
         id="path6038" />
      <path
         d="m 193.64682,45.05873 q -3.39733,2.939999 -7.77467,2.939999 -5.61866,0 -9.47332,-4.965331 -3.65867,-4.573331 -3.65867,-11.041327 V 18.794745 q 0,-1.176 0.784,-1.959999 0.784,-0.784 1.96,-0.784 1.176,0 1.96,0.784 0.784,0.783999 0.784,1.959999 v 13.197326 q 0,5.291997 3.332,8.558662 1.89466,1.894665 4.31199,1.894665 3.00534,0 5.292,-2.809331 2.48267,-3.135999 2.48267,-7.643996 V 18.794745 q 0,-1.176 0.784,-1.959999 0.784,-0.784 1.96,-0.784 1.17599,0 1.95999,0.784 0.784,0.783999 0.784,1.959999 V 31.992071 45.25473 q 0,1.176 -0.784,1.959999 -0.784,0.784 -1.95999,0.784 -1.176,0 -1.96,-0.784 -0.784,-0.783999 -0.784,-1.959999 z"
         id="path6040" />
      <path
         d="m 229.95882,40.354733 q 0,1.763999 0.32666,2.417332 0.52267,0.261333 0.91467,0.588 0.784,0.849332 0.784,2.025332 0,1.110666 -0.84933,1.959999 -0.784,0.783999 -1.82933,0.783999 -0.45734,0 -0.98,-0.196 -1.11067,-0.326666 -2.02534,-1.241332 -0.392,-0.392 -0.71866,-0.914666 -2.28667,0.914666 -5.55333,1.633332 -2.744,0.522666 -4.76933,0.522666 -3.136,0 -5.35733,-0.849333 -2.22134,-0.849332 -3.65867,-2.221332 -2.548,-2.613332 -2.548,-6.794663 0,-3.789331 2.61333,-6.337329 1.96,-2.025333 5.42267,-3.135999 2.94,-0.979999 6.33733,-0.979999 2.156,0 6.33733,1.045333 v -2.286666 q 0,-1.763999 -0.91467,-2.678665 -0.392,-0.326667 -0.91466,-0.653333 -1.82934,-0.98 -3.78934,-0.98 -1.89466,0 -4.83466,0.392 -2.87466,0.392 -5.16133,1.241333 -0.52267,0.196 -1.04533,0.196 -1.04534,0 -1.89467,-0.784 -0.784,-0.849333 -0.784,-2.025332 0,-1.175999 0.784,-1.959999 0.45733,-0.457333 1.04533,-0.653333 2.87467,-0.979999 6.20667,-1.437332 3.39733,-0.522667 5.55333,-0.522667 3.528,0 6.59866,1.698666 1.24133,0.653333 2.156,1.567999 2.548,2.547999 2.548,6.598663 z m -5.55333,-6.010664 q -4.508,-1.175999 -6.33733,-1.175999 -2.48267,0 -4.63867,0.718666 -2.15599,0.718667 -3.20133,1.763999 -0.98,0.98 -0.98,2.417332 0,1.894666 0.91467,2.874665 0.588,0.522667 1.764,0.98 1.24133,0.457333 3.00533,0.457333 1.764,0 4.24666,-0.457333 2.48267,-0.522666 3.98534,-1.175999 0.71866,-0.261334 1.24133,-0.522667 z"
         id="path6042" />
    </g>
    <path
       id="rect450-5"
       style="fill:none;stroke:#e914de;stroke-width:0.7;stroke-linecap:round;stroke-linejoin:round;stroke-dasharray:0.7, 1.4;stroke-opacity:0.632115"
       d="m 47.68576,7.4559712 h 9.455774 V 23.492892 H 47.68576 Z" />
    <path
       id="rect450-5-20"
       style="fill:none;stroke:#e914de;stroke-width:0.7;stroke-linecap:round;stroke-linejoin:round;stroke-dasharray:0.7, 1.4;stroke-opacity:0.632115"
       d="m 114.13177,86.438591 h 9.45577 v 16.036919 h -9.45577 z" />
    <path
       id="rect450-5-23"
       style="fill:none;stroke:#e914de;stroke-width:0.7;stroke-linecap:round;stroke-linejoin:round;stroke-dasharray:0.7, 1.4;stroke-opacity:0.632115"
       d="m 216.45476,86.319939 h 9.45577 v 16.036921 h -9.45577 z" />
    <path
       id="rect450-5-2"
       style="fill:none;stroke:#e914de;stroke-width:0.7;stroke-linecap:round;stroke-linejoin:round;stroke-dasharray:0.7, 1.4;stroke-opacity:0.632115"
       d="m 115.29243,7.1125355 h 9.45577 V 23.149456 h -9.45577 z" />
    <g
       aria-label="makes     happen.
 "
       transform="matrix(0.26458333,0,0,0.26458333,-1.3688103,8.8100213)"
       id="text4124-3"
       style="font-size:65.3333px;line-height:0;font-family:Uiua386;-inkscape-font-specification:Uiua386;text-align:center;white-space:pre;shape-inside:url(#rect4126-7);display:inline;fill:#eb14df;stroke-width:2.64567;stroke-linecap:round;stroke-linejoin:round;stroke-dasharray:2.64567, 5.29134;stroke-opacity:0.632115">
      <path
         d="M 242.86219,46.96913 V 15.935814 h 5.87999 V 46.96913 Z m 20.97198,0 V 28.218473 q 0,-3.462664 -2.156,-5.422663 -2.09066,-2.025332 -5.29199,-2.025332 -2.156,0 -3.85467,0.914666 -1.69866,0.914666 -2.744,2.547998 -1.04533,1.633333 -1.04533,3.919998 l -2.41733,-1.175999 q 0,-3.527998 1.50267,-6.14133 1.56799,-2.613332 4.24666,-4.050665 2.67867,-1.502665 6.01066,-1.502665 3.26667,0 5.88,1.437332 2.67867,1.437333 4.18133,4.050665 1.568,2.613331 1.568,6.206663 V 46.96913 Z m 20.97199,0 V 28.218473 q 0,-3.462664 -2.156,-5.422663 -2.09066,-2.025332 -5.22666,-2.025332 -2.156,0 -3.92,0.914666 -1.69866,0.914666 -2.744,2.547998 -1.04533,1.633333 -1.04533,3.919998 l -3.332,-1.175999 q 0.196,-3.593332 1.89467,-6.14133 1.764,-2.613332 4.508,-4.050665 2.74399,-1.502665 6.01066,-1.502665 3.39733,0 6.076,1.437332 2.67866,1.437333 4.24666,4.050665 1.63333,2.613331 1.63333,6.271996 V 46.96913 Z"
         style="font-family:Outfit;-inkscape-font-specification:Outfit"
         id="path6009" />
      <path
         d="m 311.91945,47.622463 q -4.24666,0 -7.70933,-2.090666 -3.46266,-2.155998 -5.488,-5.814663 -1.95999,-3.658665 -1.95999,-8.231996 0,-4.57333 1.95999,-8.231995 2.02534,-3.658665 5.42267,-5.814664 3.46266,-2.155998 7.77466,-2.155998 3.528,0 6.272,1.502665 2.80933,1.437333 4.508,4.050665 1.69866,2.547998 1.89466,5.94533 v 9.342662 q -0.196,3.331998 -1.89466,5.94533 -1.63334,2.613332 -4.44267,4.115997 -2.744,1.437333 -6.33733,1.437333 z m 0.98,-5.55333 q 4.37733,0 7.056,-2.939999 2.67866,-3.005331 2.67866,-7.643996 0,-3.201331 -1.24133,-5.55333 -1.176,-2.417332 -3.39733,-3.723998 -2.22133,-1.371999 -5.16133,-1.371999 -2.94,0 -5.22667,1.371999 -2.22133,1.371999 -3.52799,3.789331 -1.24134,2.351999 -1.24134,5.422664 0,3.135998 1.24134,5.55333 1.30666,2.351999 3.59333,3.723998 2.28666,1.372 5.22666,1.372 z m 9.34266,4.899997 v -8.362662 l 1.11067,-7.578663 -1.11067,-7.513329 v -7.578662 h 5.94533 V 46.96913 Z"
         style="font-family:Outfit;-inkscape-font-specification:Outfit"
         id="path6011" />
      <path
         d="M 356.60748,46.96913 342.10349,31.093139 356.47681,15.935814 h 7.12133 l -16.00666,16.725324 0.26134,-3.397332 16.33332,17.705324 z m -19.86132,0 V 0.32115536 h 5.87999 V 46.96913 Z"
         style="font-family:Outfit;-inkscape-font-specification:Outfit"
         id="path6013" />
      <path
         d="m 381.89151,47.622463 q -4.63867,0 -8.36266,-2.090666 -3.724,-2.155998 -5.88,-5.814663 -2.156,-3.658665 -2.156,-8.297329 0,-4.573331 2.09067,-8.231995 2.156,-3.658665 5.74933,-5.749331 3.65866,-2.155998 8.16666,-2.155998 4.312,0 7.57866,1.959998 3.332,1.959999 5.16133,5.422664 1.89467,3.462665 1.89467,7.839996 0,0.653333 -0.0653,1.437332 -0.0653,0.718667 -0.26133,1.698666 H 369.60885 V 28.74114 h 23.06265 l -2.156,1.894666 q 0,-3.135999 -1.11066,-5.291998 -1.11067,-2.221332 -3.136,-3.397331 -2.02533,-1.241333 -4.9,-1.241333 -3.00533,0 -5.29199,1.306666 -2.28667,1.306666 -3.528,3.658665 -1.24134,2.351999 -1.24134,5.55333 0,3.266665 1.30667,5.74933 1.30667,2.417332 3.724,3.789332 2.41733,1.306666 5.55333,1.306666 2.61333,0 4.76933,-0.914667 2.22133,-0.914666 3.78933,-2.743998 l 3.78933,3.854665 q -2.22133,2.613331 -5.48799,3.985331 -3.20134,1.371999 -6.86,1.371999 z"
         style="font-family:Outfit;-inkscape-font-specification:Outfit"
         id="path6015" />
      <path
         d="m 412.4021,47.622463 q -2.61333,0 -4.96533,-0.653333 -2.28666,-0.718666 -4.24666,-1.959999 -1.96,-1.306666 -3.39733,-3.070665 l 3.78933,-3.789331 q 1.69866,2.090665 3.92,3.135998 2.22133,0.98 4.96533,0.98 2.744,0 4.24666,-0.914667 1.50267,-0.979999 1.50267,-2.678665 0,-1.698666 -1.24133,-2.613332 -1.176,-0.979999 -3.07067,-1.567999 -1.89467,-0.653333 -4.05066,-1.241333 -2.09067,-0.653333 -3.98534,-1.633332 -1.89466,-0.979999 -3.13599,-2.678665 -1.176,-1.698666 -1.176,-4.507998 0,-2.809332 1.372,-4.834664 1.372,-2.090665 3.78933,-3.201331 2.48266,-1.110666 5.94533,-1.110666 3.65866,0 6.46799,1.306665 2.87467,1.241333 4.704,3.789332 l -3.78933,3.789331 q -1.30667,-1.698666 -3.26666,-2.613332 -1.89467,-0.914666 -4.312,-0.914666 -2.548,0 -3.92,0.914666 -1.30667,0.849333 -1.30667,2.417332 0,1.567999 1.176,2.417332 1.176,0.849333 3.07067,1.437333 1.96,0.587999 4.05066,1.241332 2.09067,0.588 3.98533,1.633333 1.89467,1.045333 3.07067,2.809332 1.24133,1.763999 1.24133,4.638664 0,4.377331 -3.136,6.925329 -3.07066,2.547999 -8.29733,2.547999 z"
         style="font-family:Outfit;-inkscape-font-specification:Outfit"
         id="path6017" />
      <path
         d="M 520.33279,46.96913 V 28.871806 q 0,-3.527998 -2.22133,-5.814663 -2.22134,-2.286665 -5.74933,-2.286665 -2.352,0 -4.18133,1.045332 -1.82934,1.045333 -2.87467,2.874665 -1.04533,1.829333 -1.04533,4.181331 l -2.41733,-1.371999 q 0,-3.527998 1.56799,-6.271996 1.568,-2.743999 4.37734,-4.311998 2.80933,-1.633332 6.33733,-1.633332 3.52799,0 6.20666,1.567999 2.744,1.567999 4.312,4.377331 1.568,2.809331 1.568,6.467996 V 46.96913 Z m -21.95199,0 V 0.32115536 h 5.88 V 46.96913 Z"
         style="font-family:Outfit;-inkscape-font-specification:Outfit"
         id="path6019" />
      <path
         d="m 547.3808,47.622463 q -4.24666,0 -7.70933,-2.090666 -3.46266,-2.155998 -5.488,-5.814663 -1.95999,-3.658665 -1.95999,-8.231996 0,-4.57333 1.95999,-8.231995 2.02534,-3.658665 5.42267,-5.814664 3.46266,-2.155998 7.77466,-2.155998 3.528,0 6.272,1.502665 2.80933,1.437333 4.50799,4.050665 1.69867,2.547998 1.89467,5.94533 v 9.342662 q -0.196,3.331998 -1.89467,5.94533 -1.63333,2.613332 -4.44266,4.115997 -2.744,1.437333 -6.33733,1.437333 z m 0.98,-5.55333 q 4.37733,0 7.056,-2.939999 2.67866,-3.005331 2.67866,-7.643996 0,-3.201331 -1.24133,-5.55333 -1.176,-2.417332 -3.39733,-3.723998 -2.22134,-1.371999 -5.16133,-1.371999 -2.94,0 -5.22667,1.371999 -2.22133,1.371999 -3.528,3.789331 -1.24133,2.351999 -1.24133,5.422664 0,3.135998 1.24133,5.55333 1.30667,2.351999 3.59334,3.723998 2.28666,1.372 5.22666,1.372 z m 9.34266,4.899997 v -8.362662 l 1.11067,-7.578663 -1.11067,-7.513329 v -7.578662 h 5.94533 V 46.96913 Z"
         style="font-family:Outfit;-inkscape-font-specification:Outfit"
         id="path6021" />
      <path
         d="m 588.54082,47.622463 q -3.528,0 -6.40267,-1.437333 -2.80933,-1.502665 -4.50799,-4.115997 -1.69867,-2.613332 -1.89467,-5.94533 v -9.342662 q 0.196,-3.397332 1.89467,-5.94533 1.76399,-2.613332 4.57333,-4.050665 2.87466,-1.502665 6.33733,-1.502665 4.24666,0 7.64399,2.155998 3.46267,2.155999 5.42267,5.814664 1.95999,3.658665 1.95999,8.231995 0,4.573331 -1.95999,8.231996 -1.96,3.658665 -5.42267,5.814663 -3.39733,2.090666 -7.64399,2.090666 z M 572.20749,59.970456 V 15.935814 h 5.88 v 8.166662 l -1.11067,7.513329 1.11067,7.578663 v 20.775988 z m 15.35333,-17.901323 q 2.93999,0 5.16133,-1.372 2.22133,-1.371999 3.528,-3.723998 1.30666,-2.417332 1.30666,-5.55333 0,-3.070665 -1.30666,-5.487997 -1.30667,-2.417332 -3.528,-3.723998 -2.22134,-1.371999 -5.096,-1.371999 -2.94,0 -5.16133,1.371999 -2.22133,1.306666 -3.46267,3.723998 -1.24133,2.417332 -1.24133,5.55333 0,3.070665 1.176,5.487997 1.24133,2.351999 3.46267,3.723998 2.28666,1.372 5.16133,1.372 z"
         style="font-family:Outfit;-inkscape-font-specification:Outfit"
         id="path6023" />
      <path
         d="m 626.56483,47.622463 q -3.52799,0 -6.40266,-1.437333 -2.80933,-1.502665 -4.508,-4.115997 -1.69866,-2.613332 -1.89466,-5.94533 v -9.342662 q 0.196,-3.397332 1.89466,-5.94533 1.764,-2.613332 4.57333,-4.050665 2.87467,-1.502665 6.33733,-1.502665 4.24667,0 7.644,2.155998 3.46266,2.155999 5.42266,5.814664 1.96,3.658665 1.96,8.231995 0,4.573331 -1.96,8.231996 -1.96,3.658665 -5.42266,5.814663 -3.39733,2.090666 -7.644,2.090666 z M 610.23151,59.970456 V 15.935814 h 5.88 v 8.166662 l -1.11067,7.513329 1.11067,7.578663 v 20.775988 z m 15.35332,-17.901323 q 2.94,0 5.16133,-1.372 2.22134,-1.371999 3.528,-3.723998 1.30667,-2.417332 1.30667,-5.55333 0,-3.070665 -1.30667,-5.487997 -1.30666,-2.417332 -3.528,-3.723998 -2.22133,-1.371999 -5.09599,-1.371999 -2.94,0 -5.16133,1.371999 -2.22134,1.306666 -3.46267,3.723998 -1.24133,2.417332 -1.24133,5.55333 0,3.070665 1.176,5.487997 1.24133,2.351999 3.46266,3.723998 2.28667,1.372 5.16133,1.372 z"
         style="font-family:Outfit;-inkscape-font-specification:Outfit"
         id="path6025" />
      <path
         d="m 662.62888,47.622463 q -4.63866,0 -8.36266,-2.090666 -3.724,-2.155998 -5.88,-5.814663 -2.156,-3.658665 -2.156,-8.297329 0,-4.573331 2.09067,-8.231995 2.156,-3.658665 5.74933,-5.749331 3.65866,-2.155998 8.16666,-2.155998 4.312,0 7.57867,1.959998 3.33199,1.959999 5.16133,5.422664 1.89466,3.462665 1.89466,7.839996 0,0.653333 -0.0653,1.437332 -0.0653,0.718667 -0.26134,1.698666 H 650.34622 V 28.74114 h 23.06266 l -2.156,1.894666 q 0,-3.135999 -1.11067,-5.291998 -1.11066,-2.221332 -3.136,-3.397331 -2.02533,-1.241333 -4.89999,-1.241333 -3.00534,0 -5.292,1.306666 -2.28667,1.306666 -3.528,3.658665 -1.24133,2.351999 -1.24133,5.55333 0,3.266665 1.30666,5.74933 1.30667,2.417332 3.724,3.789332 2.41733,1.306666 5.55333,1.306666 2.61333,0 4.76933,-0.914667 2.22134,-0.914666 3.78933,-2.743998 l 3.78934,3.854665 q -2.22134,2.613331 -5.488,3.985331 -3.20133,1.371999 -6.86,1.371999 z"
         style="font-family:Outfit;-inkscape-font-specification:Outfit"
         id="path6027" />
      <path
         d="M 705.22613,46.96913 V 28.871806 q 0,-3.527998 -2.22133,-5.814663 -2.22133,-2.286665 -5.74933,-2.286665 -2.352,0 -4.18133,1.045332 -1.82934,1.045333 -2.87467,2.874665 -1.04533,1.829333 -1.04533,4.181331 l -2.41733,-1.371999 q 0,-3.527998 1.568,-6.271996 1.568,-2.743999 4.37733,-4.311998 2.80933,-1.633332 6.33733,-1.633332 3.52799,0 6.20666,1.763999 2.744,1.763999 4.312,4.638664 1.568,2.809332 1.568,6.010663 V 46.96913 Z m -21.95199,0 V 15.935814 h 5.88 V 46.96913 Z"
         style="font-family:Outfit;-inkscape-font-specification:Outfit"
         id="path6029" />
      <path
         d="m 724.23815,47.622463 q -1.82934,0 -3.07067,-1.241333 -1.176,-1.306666 -1.176,-3.070665 0,-1.829332 1.176,-3.005331 1.24133,-1.241333 3.07067,-1.241333 1.82933,0 3.00533,1.241333 1.24133,1.175999 1.24133,3.005331 0,1.763999 -1.24133,3.070665 -1.176,1.241333 -3.00533,1.241333 z"
         style="font-family:Outfit;-inkscape-font-specification:Outfit"
         id="path6031" />
    </g>
    <path
       id="rect450-5-0"
       style="fill:none;stroke:#e914de;stroke-width:0.7;stroke-linecap:round;stroke-linejoin:round;stroke-dasharray:0.7, 1.4;stroke-opacity:0.632115"
       d="m 47.756054,86.426094 h 9.455773 v 16.036916 h -9.455773 z" />
    <g
       aria-label="makes    understand    .
 "
       transform="matrix(0.26458333,0,0,0.26458333,-17.043988,88.228806)"
       id="text4124-3-2"
       style="font-size:65.3333px;line-height:0;font-family:Uiua386;-inkscape-font-specification:Uiua386;text-align:center;white-space:pre;shape-inside:url(#rect4126-7-2);display:inline;fill:#eb14df;stroke-width:2.64567;stroke-linecap:round;stroke-linejoin:round;stroke-dasharray:2.64567, 5.29134;stroke-opacity:0.632115">
      <path
         d="M 302.39465,46.96913 V 15.935814 h 5.87999 V 46.96913 Z m 20.97198,0 V 28.218473 q 0,-3.462664 -2.15599,-5.422663 -2.09067,-2.025332 -5.292,-2.025332 -2.156,0 -3.85467,0.914666 -1.69866,0.914666 -2.74399,2.547998 -1.04534,1.633333 -1.04534,3.919998 l -2.41733,-1.175999 q 0,-3.527998 1.50267,-6.14133 1.568,-2.613332 4.24666,-4.050665 2.67867,-1.502665 6.01066,-1.502665 3.26667,0 5.88,1.437332 2.67867,1.437333 4.18133,4.050665 1.568,2.613331 1.568,6.206663 V 46.96913 Z m 20.97199,0 V 28.218473 q 0,-3.462664 -2.156,-5.422663 -2.09066,-2.025332 -5.22666,-2.025332 -2.156,0 -3.92,0.914666 -1.69866,0.914666 -2.744,2.547998 -1.04533,1.633333 -1.04533,3.919998 l -3.332,-1.175999 q 0.196,-3.593332 1.89467,-6.14133 1.764,-2.613332 4.508,-4.050665 2.744,-1.502665 6.01066,-1.502665 3.39733,0 6.076,1.437332 2.67866,1.437333 4.24666,4.050665 1.63333,2.613331 1.63333,6.271996 V 46.96913 Z"
         style="font-family:Outfit;-inkscape-font-specification:Outfit"
         id="path5975" />
      <path
         d="m 371.45191,47.622463 q -4.24666,0 -7.70933,-2.090666 -3.46266,-2.155998 -5.48799,-5.814663 -1.96,-3.658665 -1.96,-8.231996 0,-4.57333 1.96,-8.231995 2.02533,-3.658665 5.42266,-5.814664 3.46266,-2.155998 7.77466,-2.155998 3.528,0 6.272,1.502665 2.80933,1.437333 4.508,4.050665 1.69866,2.547998 1.89466,5.94533 v 9.342662 q -0.196,3.331998 -1.89466,5.94533 -1.63334,2.613332 -4.44267,4.115997 -2.744,1.437333 -6.33733,1.437333 z m 0.98,-5.55333 q 4.37733,0 7.056,-2.939999 2.67866,-3.005331 2.67866,-7.643996 0,-3.201331 -1.24133,-5.55333 -1.176,-2.417332 -3.39733,-3.723998 -2.22133,-1.371999 -5.16133,-1.371999 -2.94,0 -5.22667,1.371999 -2.22133,1.371999 -3.52799,3.789331 -1.24134,2.351999 -1.24134,5.422664 0,3.135998 1.24134,5.55333 1.30666,2.351999 3.59333,3.723998 2.28666,1.372 5.22666,1.372 z m 9.34266,4.899997 v -8.362662 l 1.11067,-7.578663 -1.11067,-7.513329 v -7.578662 h 5.94533 V 46.96913 Z"
         style="font-family:Outfit;-inkscape-font-specification:Outfit"
         id="path5977" />
      <path
         d="M 416.13994,46.96913 401.63595,31.093139 416.00927,15.935814 h 7.12133 l -16.00665,16.725324 0.26133,-3.397332 16.33332,17.705324 z m -19.86132,0 V 0.32115536 h 5.88 V 46.96913 Z"
         style="font-family:Outfit;-inkscape-font-specification:Outfit"
         id="path5979" />
      <path
         d="m 441.42397,47.622463 q -4.63866,0 -8.36266,-2.090666 -3.724,-2.155998 -5.88,-5.814663 -2.156,-3.658665 -2.156,-8.297329 0,-4.573331 2.09067,-8.231995 2.156,-3.658665 5.74933,-5.749331 3.65866,-2.155998 8.16666,-2.155998 4.312,0 7.57866,1.959998 3.332,1.959999 5.16133,5.422664 1.89467,3.462665 1.89467,7.839996 0,0.653333 -0.0653,1.437332 -0.0653,0.718667 -0.26134,1.698666 H 429.14131 V 28.74114 h 23.06265 l -2.15599,1.894666 q 0,-3.135999 -1.11067,-5.291998 -1.11067,-2.221332 -3.136,-3.397331 -2.02533,-1.241333 -4.9,-1.241333 -3.00533,0 -5.29199,1.306666 -2.28667,1.306666 -3.528,3.658665 -1.24133,2.351999 -1.24133,5.55333 0,3.266665 1.30666,5.74933 1.30667,2.417332 3.724,3.789332 2.41733,1.306666 5.55333,1.306666 2.61333,0 4.76933,-0.914667 2.22133,-0.914666 3.78933,-2.743998 l 3.78933,3.854665 q -2.22133,2.613331 -5.48799,3.985331 -3.20134,1.371999 -6.86,1.371999 z"
         style="font-family:Outfit;-inkscape-font-specification:Outfit"
         id="path5981" />
      <path
         d="m 471.93457,47.622463 q -2.61334,0 -4.96534,-0.653333 -2.28666,-0.718666 -4.24666,-1.959999 -1.96,-1.306666 -3.39733,-3.070665 l 3.78933,-3.789331 q 1.69867,2.090665 3.92,3.135998 2.22133,0.98 4.96533,0.98 2.744,0 4.24666,-0.914667 1.50267,-0.979999 1.50267,-2.678665 0,-1.698666 -1.24133,-2.613332 -1.176,-0.979999 -3.07067,-1.567999 -1.89466,-0.653333 -4.05066,-1.241333 -2.09067,-0.653333 -3.98533,-1.633332 -1.89467,-0.979999 -3.136,-2.678665 -1.176,-1.698666 -1.176,-4.507998 0,-2.809332 1.372,-4.834664 1.372,-2.090665 3.78933,-3.201331 2.48266,-1.110666 5.94533,-1.110666 3.65866,0 6.46799,1.306665 2.87467,1.241333 4.704,3.789332 l -3.78933,3.789331 q -1.30666,-1.698666 -3.26666,-2.613332 -1.89467,-0.914666 -4.312,-0.914666 -2.548,0 -3.92,0.914666 -1.30667,0.849333 -1.30667,2.417332 0,1.567999 1.176,2.417332 1.176,0.849333 3.07067,1.437333 1.96,0.587999 4.05066,1.241332 2.09067,0.588 3.98533,1.633333 1.89467,1.045333 3.07067,2.809332 1.24133,1.763999 1.24133,4.638664 0,4.377331 -3.136,6.925329 -3.07066,2.547999 -8.29732,2.547999 z"
         style="font-family:Outfit;-inkscape-font-specification:Outfit"
         id="path5983" />
      <path
         d="m 556.80258,47.622463 q -3.78933,0 -6.85999,-1.698666 -3.00534,-1.763999 -4.704,-4.834664 -1.69867,-3.070665 -1.69867,-7.121329 v -18.03199 h 5.88 v 17.770657 q 0,2.547998 0.84933,4.442664 0.91467,1.829332 2.61333,2.809332 1.69867,0.979999 3.98533,0.979999 3.46267,0 5.42267,-2.155999 1.96,-2.221332 1.96,-6.075996 V 15.935814 h 5.87999 v 18.03199 q 0,4.050664 -1.69866,7.121329 -1.69867,3.070665 -4.704,4.834664 -2.94,1.698666 -6.92533,1.698666 z"
         style="font-family:Outfit;-inkscape-font-specification:Outfit"
         id="path5985" />
      <path
         d="M 599.98793,46.96913 V 28.871806 q 0,-3.527998 -2.22133,-5.814663 -2.22133,-2.286665 -5.74933,-2.286665 -2.352,0 -4.18133,1.045332 -1.82934,1.045333 -2.87467,2.874665 -1.04533,1.829333 -1.04533,4.181331 l -2.41733,-1.371999 q 0,-3.527998 1.568,-6.271996 1.568,-2.743999 4.37733,-4.311998 2.80933,-1.633332 6.33733,-1.633332 3.528,0 6.20666,1.763999 2.744,1.763999 4.312,4.638664 1.568,2.809332 1.568,6.010663 V 46.96913 Z m -21.95199,0 V 15.935814 h 5.88 V 46.96913 Z"
         style="font-family:Outfit;-inkscape-font-specification:Outfit"
         id="path5987" />
      <path
         d="m 626.97061,47.622463 q -4.312,0 -7.70933,-2.090666 -3.39733,-2.155998 -5.42266,-5.814663 -1.96,-3.658665 -1.96,-8.231996 0,-4.57333 1.96,-8.231995 2.02533,-3.658665 5.42266,-5.814664 3.39733,-2.155998 7.70933,-2.155998 3.46266,0 6.272,1.502665 2.80933,1.437333 4.50799,4.050665 1.764,2.547998 1.96,5.94533 v 9.342662 q -0.196,3.331998 -1.89466,5.94533 -1.69867,2.613332 -4.508,4.115997 -2.80933,1.437333 -6.33733,1.437333 z m 0.98,-5.55333 q 2.94,0 5.096,-1.372 2.22133,-1.371999 3.46266,-3.723998 1.24133,-2.417332 1.24133,-5.487997 0,-3.201331 -1.30666,-5.55333 -1.24134,-2.351999 -3.46267,-3.723998 -2.156,-1.371999 -5.096,-1.371999 -2.93999,0 -5.16133,1.371999 -2.22133,1.371999 -3.52799,3.789331 -1.24134,2.351999 -1.24134,5.422664 0,3.135998 1.24134,5.55333 1.30666,2.351999 3.52799,3.723998 2.28667,1.372 5.22667,1.372 z m 15.35332,4.899997 h -5.94533 v -8.362662 l 1.11067,-7.578663 -1.11067,-7.513329 V 0.32115536 h 5.94533 z"
         style="font-family:Outfit;-inkscape-font-specification:Outfit"
         id="path5989" />
      <path
         d="m 666.23599,47.622463 q -4.63866,0 -8.36266,-2.090666 -3.724,-2.155998 -5.88,-5.814663 -2.156,-3.658665 -2.156,-8.297329 0,-4.573331 2.09067,-8.231995 2.156,-3.658665 5.74933,-5.749331 3.65866,-2.155998 8.16666,-2.155998 4.312,0 7.57866,1.959998 3.332,1.959999 5.16133,5.422664 1.89467,3.462665 1.89467,7.839996 0,0.653333 -0.0653,1.437332 -0.0653,0.718667 -0.26133,1.698666 H 653.95333 V 28.74114 h 23.06265 l -2.156,1.894666 q 0,-3.135999 -1.11066,-5.291998 -1.11067,-2.221332 -3.136,-3.397331 -2.02533,-1.241333 -4.9,-1.241333 -3.00533,0 -5.29199,1.306666 -2.28667,1.306666 -3.528,3.658665 -1.24133,2.351999 -1.24133,5.55333 0,3.266665 1.30666,5.74933 1.30667,2.417332 3.724,3.789332 2.41733,1.306666 5.55333,1.306666 2.61333,0 4.76933,-0.914667 2.22133,-0.914666 3.78933,-2.743998 l 3.78933,3.854665 q -2.22133,2.613331 -5.48799,3.985331 -3.20134,1.371999 -6.86,1.371999 z"
         style="font-family:Outfit;-inkscape-font-specification:Outfit"
         id="path5991" />
      <path
         d="M 686.88125,46.96913 V 15.935814 h 5.88 V 46.96913 Z m 5.88,-17.705324 -2.22134,-0.979999 q 0,-5.94533 2.744,-9.473328 2.744,-3.527998 7.90533,-3.527998 2.352,0 4.24667,0.849332 1.89466,0.784 3.52799,2.678666 l -3.85466,3.985331 q -0.98,-1.045333 -2.156,-1.502666 -1.176,-0.457333 -2.744,-0.457333 -3.26666,0 -5.35733,2.090665 -2.09066,2.090666 -2.09066,6.33733 z"
         style="font-family:Outfit;-inkscape-font-specification:Outfit"
         id="path5993" />
      <path
         d="m 722.29196,47.622463 q -2.61334,0 -4.96533,-0.653333 -2.28667,-0.718666 -4.24667,-1.959999 -1.96,-1.306666 -3.39733,-3.070665 l 3.78933,-3.789331 q 1.69867,2.090665 3.92,3.135998 2.22133,0.98 4.96533,0.98 2.744,0 4.24666,-0.914667 1.50267,-0.979999 1.50267,-2.678665 0,-1.698666 -1.24133,-2.613332 -1.176,-0.979999 -3.07067,-1.567999 -1.89466,-0.653333 -4.05066,-1.241333 -2.09067,-0.653333 -3.98533,-1.633332 -1.89467,-0.979999 -3.136,-2.678665 -1.176,-1.698666 -1.176,-4.507998 0,-2.809332 1.372,-4.834664 1.372,-2.090665 3.78933,-3.201331 2.48266,-1.110666 5.94533,-1.110666 3.65866,0 6.468,1.306665 2.87466,1.241333 4.70399,3.789332 l -3.78933,3.789331 q -1.30666,-1.698666 -3.26666,-2.613332 -1.89467,-0.914666 -4.312,-0.914666 -2.548,0 -3.92,0.914666 -1.30666,0.849333 -1.30666,2.417332 0,1.567999 1.176,2.417332 1.17599,0.849333 3.07066,1.437333 1.96,0.587999 4.05066,1.241332 2.09067,0.588 3.98534,1.633333 1.89466,1.045333 3.07066,2.809332 1.24133,1.763999 1.24133,4.638664 0,4.377331 -3.13599,6.925329 -3.07067,2.547999 -8.29733,2.547999 z"
         style="font-family:Outfit;-inkscape-font-specification:Outfit"
         id="path5995" />
      <path
         d="M 745.09327,46.96913 V 2.9344873 h 5.87999 V 46.96913 Z m -7.644,-25.675986 v -5.35733 h 21.16799 v 5.35733 z"
         style="font-family:Outfit;-inkscape-font-specification:Outfit"
         id="path5997" />
      <path
         d="m 776.5512,47.622463 q -4.24666,0 -7.70933,-2.090666 -3.46266,-2.155998 -5.488,-5.814663 -1.95999,-3.658665 -1.95999,-8.231996 0,-4.57333 1.95999,-8.231995 2.02534,-3.658665 5.42267,-5.814664 3.46266,-2.155998 7.77466,-2.155998 3.528,0 6.272,1.502665 2.80933,1.437333 4.50799,4.050665 1.69867,2.547998 1.89467,5.94533 v 9.342662 q -0.196,3.331998 -1.89467,5.94533 -1.63333,2.613332 -4.44266,4.115997 -2.744,1.437333 -6.33733,1.437333 z m 0.98,-5.55333 q 4.37733,0 7.056,-2.939999 2.67866,-3.005331 2.67866,-7.643996 0,-3.201331 -1.24133,-5.55333 -1.176,-2.417332 -3.39733,-3.723998 -2.22133,-1.371999 -5.16133,-1.371999 -2.94,0 -5.22667,1.371999 -2.22133,1.371999 -3.52799,3.789331 -1.24134,2.351999 -1.24134,5.422664 0,3.135998 1.24134,5.55333 1.30666,2.351999 3.59333,3.723998 2.28666,1.372 5.22666,1.372 z m 9.34266,4.899997 v -8.362662 l 1.11067,-7.578663 -1.11067,-7.513329 v -7.578662 h 5.94533 V 46.96913 Z"
         style="font-family:Outfit;-inkscape-font-specification:Outfit"
         id="path5999" />
      <path
         d="M 823.32988,46.96913 V 28.871806 q 0,-3.527998 -2.22133,-5.814663 -2.22133,-2.286665 -5.74933,-2.286665 -2.352,0 -4.18133,1.045332 -1.82934,1.045333 -2.87467,2.874665 -1.04533,1.829333 -1.04533,4.181331 l -2.41733,-1.371999 q 0,-3.527998 1.568,-6.271996 1.568,-2.743999 4.37733,-4.311998 2.80933,-1.633332 6.33733,-1.633332 3.52799,0 6.20666,1.763999 2.744,1.763999 4.312,4.638664 1.568,2.809332 1.568,6.010663 V 46.96913 Z m -21.95199,0 V 15.935814 h 5.88 V 46.96913 Z"
         style="font-family:Outfit;-inkscape-font-specification:Outfit"
         id="path6001" />
      <path
         d="m 850.31253,47.622463 q -4.312,0 -7.70933,-2.090666 -3.39733,-2.155998 -5.42267,-5.814663 -1.95999,-3.658665 -1.95999,-8.231996 0,-4.57333 1.95999,-8.231995 2.02534,-3.658665 5.42267,-5.814664 3.39733,-2.155998 7.70933,-2.155998 3.46266,0 6.27199,1.502665 2.80934,1.437333 4.508,4.050665 1.764,2.547998 1.96,5.94533 v 9.342662 q -0.196,3.331998 -1.89466,5.94533 -1.69867,2.613332 -4.508,4.115997 -2.80933,1.437333 -6.33733,1.437333 z m 0.98,-5.55333 q 2.94,0 5.09599,-1.372 2.22134,-1.371999 3.46267,-3.723998 1.24133,-2.417332 1.24133,-5.487997 0,-3.201331 -1.30666,-5.55333 -1.24134,-2.351999 -3.46267,-3.723998 -2.156,-1.371999 -5.096,-1.371999 -2.93999,0 -5.16133,1.371999 -2.22133,1.371999 -3.52799,3.789331 -1.24134,2.351999 -1.24134,5.422664 0,3.135998 1.24134,5.55333 1.30666,2.351999 3.52799,3.723998 2.28667,1.372 5.22667,1.372 z m 15.35332,4.899997 h -5.94533 v -8.362662 l 1.11067,-7.578663 -1.11067,-7.513329 V 0.32115536 h 5.94533 z"
         style="font-family:Outfit;-inkscape-font-specification:Outfit"
         id="path6003" />
      <path
         d="m 934.72327,47.622463 q -1.82933,0 -3.07066,-1.241333 -1.176,-1.306666 -1.176,-3.070665 0,-1.829332 1.176,-3.005331 1.24133,-1.241333 3.07066,-1.241333 1.82934,0 3.00534,1.241333 1.24133,1.175999 1.24133,3.005331 0,1.763999 -1.24133,3.070665 -1.176,1.241333 -3.00534,1.241333 z"
         style="font-family:Outfit;-inkscape-font-specification:Outfit"
         id="path6005" />
    </g>
    <g
       aria-label="⛓"
       transform="matrix(0.12708142,0,0,0.12708142,24.262614,15.382559)"
       id="text6788"
       style="font-size:65.3333px;line-height:0;font-family:Outfit;-inkscape-font-specification:Outfit;text-align:center;text-anchor:middle;white-space:pre;shape-inside:url(#rect6790);fill:#eb60e7;stroke-width:2.64567;stroke-linecap:round;stroke-linejoin:round" />
    <g
       aria-label="⛓"
       transform="matrix(0.12708142,0,0,0.12708142,24.266687,27.943527)"
       id="text6788-2"
       style="font-size:65.3333px;line-height:0;font-family:Outfit;-inkscape-font-specification:Outfit;text-align:center;text-anchor:middle;white-space:pre;shape-inside:url(#rect6790);fill:#eb60e7;stroke-width:2.64567;stroke-linecap:round;stroke-linejoin:round" />
    <path
       id="path1879-8"
       style="fill:none;stroke:#e914de;stroke-width:0.7;stroke-linecap:round;stroke-linejoin:round;stroke-opacity:0.632115"
       d="m 119.66217,23.94452 -1.81333,1.813326 z m 46.54906,20.035511 V 37.242806 H 119.71865 V 23.894367 l 1.8903,1.890299 m -1.77854,-1.849693 1.81333,1.813326 z M 52.114685,44.499651 V 37.233259 H 119.77393 V 23.88482 l -1.8903,1.890299" />
    <g
       aria-label="ä"
       transform="matrix(0.14132107,0,0,0.14132107,40.381266,-0.82104892)"
       id="text2064"
       style="font-size:65.3333px;line-height:0;font-family:Outfit;-inkscape-font-specification:Outfit;text-align:center;text-anchor:middle;white-space:pre;shape-inside:url(#rect2066);display:inline;fill:#eb14df;stroke-width:2.64567;stroke-linecap:round;stroke-linejoin:round;stroke-opacity:0.632115">
      <path
         d="m 582.53497,211.12858 q -1.04534,-1.11067 -1.04534,-2.61333 0,-1.50267 1.04534,-2.548 1.11066,-1.11067 2.61333,-1.11067 1.50266,0 2.548,1.11067 1.11066,1.04533 1.11066,2.548 0,1.50266 -1.11066,2.61333 -1.04534,1.04533 -2.548,1.04533 -1.50267,0 -2.61333,-1.04533 z m 13.06666,0 q -1.04534,-1.11067 -1.04534,-2.61333 0,-1.50267 1.04534,-2.548 1.11066,-1.11067 2.61333,-1.11067 1.50266,0 2.548,1.11067 1.11066,1.04533 1.11066,2.548 0,1.50266 -1.11066,2.61333 -1.04534,1.04533 -2.548,1.04533 -1.50267,0 -2.61333,-1.04533 z m 8.10132,29.39998 q 0,1.764 0.32667,2.41733 0.52267,0.26134 0.91467,0.588 0.784,0.84934 0.784,2.02533 0,1.11067 -0.84934,1.96 -0.784,0.784 -1.82933,0.784 -0.45733,0 -0.98,-0.196 -1.11066,-0.32666 -2.02533,-1.24133 -0.392,-0.392 -0.71867,-0.91467 -2.28666,0.91467 -5.55333,1.63334 -2.74399,0.52266 -4.76933,0.52266 -3.136,0 -5.35733,-0.84933 -2.22133,-0.84933 -3.65866,-2.22133 -2.548,-2.61333 -2.548,-6.79466 0,-3.78934 2.61333,-6.33733 1.96,-2.02534 5.42266,-3.136 2.94,-0.98 6.33733,-0.98 2.156,0 6.33733,1.04533 v -2.28666 q 0,-1.764 -0.91466,-2.67867 -0.392,-0.32667 -0.91467,-0.65333 -1.82933,-0.98 -3.78933,-0.98 -1.89466,0 -4.83466,0.392 -2.87467,0.392 -5.16133,1.24133 -0.52267,0.196 -1.04534,0.196 -1.04533,0 -1.89466,-0.784 -0.784,-0.84933 -0.784,-2.02533 0,-1.176 0.784,-1.96 0.45733,-0.45733 1.04533,-0.65333 2.87467,-0.98 6.20666,-1.43734 3.39734,-0.52266 5.55333,-0.52266 3.528,0 6.59867,1.69866 1.24133,0.65334 2.156,1.568 2.54799,2.548 2.54799,6.59867 z m -5.55333,-6.01066 q -4.50799,-1.176 -6.33733,-1.176 -2.48266,0 -4.63866,0.71866 -2.156,0.71867 -3.20133,1.764 -0.98,0.98 -0.98,2.41734 0,1.89466 0.91467,2.87466 0.588,0.52267 1.76399,0.98 1.24134,0.45733 3.00534,0.45733 1.764,0 4.24666,-0.45733 2.48267,-0.52267 3.98533,-1.176 0.71867,-0.26133 1.24133,-0.52267 z"
         style="font-family:Uiua386;-inkscape-font-specification:Uiua386;fill:#60eb70"
         id="path5972" />
    </g>
  </g>
</svg>
