<?xml version="1.0" encoding="UTF-8" standalone="no"?>
<!-- Created with Inkscape (http://www.inkscape.org/) -->

<svg
   width="98mm"
   height="67mm"
   viewBox="0 0 98 67"
   version="1.1"
   id="svg5"
   xmlns="http://www.w3.org/2000/svg"
   xmlns:svg="http://www.w3.org/2000/svg">
  <defs
     id="defs2">
    <rect
       x="28.428806"
       y="153.17407"
       width="220.78191"
       height="120.8895"
       id="rect236" />
    <rect
       x="28.428806"
       y="153.17407"
       width="220.78191"
       height="120.8895"
       id="rect236-3" />
    <rect
       x="28.428806"
       y="153.17407"
       width="220.78191"
       height="120.8895"
       id="rect236-3-7" />
    <rect
       x="28.428806"
       y="153.17407"
       width="220.78191"
       height="120.8895"
       id="rect236-5" />
    <rect
       x="28.428806"
       y="153.17407"
       width="220.78191"
       height="120.8895"
       id="rect236-5-9" />
  </defs>
  <g
     id="layer1">
    <g
       aria-label="chr"
       transform="matrix(0.26458333,0,0,0.26458333,-13.173687,-18.667392)"
       id="text234"
       style="font-size:65.3333px;line-height:0;font-family:Uiua386;-inkscape-font-specification:Uiua386;text-align:center;letter-spacing:-7.2px;white-space:pre;shape-inside:url(#rect236);fill:#eaa361;stroke-width:2.26772;stroke-linecap:round;stroke-linejoin:round">
      <path
         d="m 116.88162,164.73782 q 1.11067,0 1.89467,0.784 0.84933,0.784 0.84933,1.96 0,1.24133 -0.98,2.09067 -4.18133,3.65866 -10.38799,3.65866 -6.79466,0 -10.910662,-4.704 -3.919998,-4.44266 -3.919998,-11.56399 0,-7.644 4.965331,-12.02133 4.050669,-3.528 9.015999,-3.528 5.55333,0 11.30266,4.57334 1.04533,0.78399 1.04533,2.09066 0,1.24133 -0.784,2.02533 -0.84933,0.784 -1.89467,0.784 -1.04533,0 -1.82933,-0.588 -4.24666,-3.332 -7.83999,-3.332 -2.87467,0 -5.35733,2.156 -3.070669,2.67867 -3.070669,7.77467 0,5.48799 2.939999,8.36266 2.352,2.41733 6.40266,2.41733 4.05067,0 6.72933,-2.28667 0.784,-0.65333 1.82933,-0.65333 z"
         style="fill:#6060eb"
         id="path178" />
      <path
         d="m 131.11097,144.22317 q 3.39733,-2.94 7.77466,-2.94 5.61867,0 9.47333,4.96533 3.65867,4.57333 3.65867,10.97599 v 13.26266 q 0,1.176 -0.784,1.96 -0.784,0.784 -1.96,0.784 -1.176,0 -1.96,-0.784 -0.784,-0.784 -0.784,-1.96 v -13.26266 q 0,-5.22666 -3.332,-8.49333 -1.89466,-1.89466 -4.312,-1.89466 -3.00533,0 -5.29199,2.80933 -2.48267,3.136 -2.48267,7.57866 v 13.26266 q 0,1.176 -0.784,1.96 -0.784,0.784 -1.96,0.784 -1.176,0 -1.96,-0.784 -0.784,-0.784 -0.784,-1.96 v -40.83331 q 0,-1.176 0.784,-1.96 0.784,-0.784 1.96,-0.784 1.176,0 1.96,0.784 0.784,0.784 0.784,1.96 z"
         style="fill:#6060eb"
         id="path180" />
      <path
         d="m 164.09097,170.48715 q 0,1.176 -0.784,1.96 -0.78399,0.784 -1.95999,0.784 -1.176,0 -1.96,-0.784 -0.784,-0.784 -0.784,-1.96 v -13.26266 -13.19732 q 0,-1.176 0.784,-1.96 0.784,-0.784 1.96,-0.784 1.176,0 1.95999,0.784 0.784,0.784 0.784,1.96 v 0.45733 q 3.65867,-3.20133 8.428,-3.20133 5.81466,0 9.93066,4.9 0.588,0.78399 0.588,1.76399 0,1.176 -0.784,1.96 -0.784,0.784 -1.96,0.784 -1.30666,0 -2.156,-0.98 -2.41733,-2.87466 -5.61866,-2.87466 -3.332,0 -5.88,3.00533 -2.548,3.00533 -2.548,7.38266 z"
         style="fill:#6060eb"
         id="path182" />
    </g>
    <g
       aria-label="ká"
       transform="matrix(0.26458333,0,0,0.26458333,11.878716,9.9476403)"
       id="text234-62"
       style="font-size:65.3333px;line-height:0;font-family:Uiua386;-inkscape-font-specification:Uiua386;text-align:center;letter-spacing:-7.2px;white-space:pre;shape-inside:url(#rect236-5);display:inline;fill:#eaa361;stroke-width:2.26772;stroke-linecap:round;stroke-linejoin:round">
      <path
         d="m 111.90964,130.69917 q 0,-1.176 0.784,-1.96 0.784,-0.78399 1.96,-0.78399 1.176,0 1.95999,0.78399 0.784,0.784 0.784,1.96 v 21.42933 l 12.41333,-11.30267 q 0.784,-0.71866 1.89467,-0.71866 1.176,0 1.96,0.784 0.784,0.784 0.784,1.96 0,1.24133 -0.84934,2.02533 l -9.40799,8.62399 11.69466,15.288 q 0.588,0.784 0.588,1.69866 0,1.176 -0.84934,1.96 -0.784,0.784 -1.95999,0.784 -1.372,0 -2.22134,-1.04533 l -11.36799,-14.96133 -2.67867,2.48267 v 10.77999 q 0,1.176 -0.784,1.96 -0.78399,0.784 -1.95999,0.784 -1.176,0 -1.96,-0.784 -0.784,-0.784 -0.784,-1.96 v -12.02132 z"
         id="path173" />
      <path
         d="m 150.5083,136.31784 q -1.11066,0 -1.89466,-0.784 -0.784,-0.784 -0.784,-1.96 0,-1.24133 0.84933,-2.02533 l 8.49333,-7.84 q 0.784,-0.71867 1.89467,-0.71867 1.176,0 1.96,0.784 0.78399,0.784 0.78399,1.96 0,1.24134 -0.84933,2.02534 l -8.49333,7.83999 q -0.784,0.71867 -1.96,0.71867 z m 16.33333,29.26931 q 0,1.764 0.32667,2.41734 0.52266,0.26133 0.91466,0.588 0.784,0.84933 0.784,2.02533 0,1.11066 -0.84933,1.96 -0.784,0.784 -1.82933,0.784 -0.45734,0 -0.98,-0.196 -1.11067,-0.32667 -2.02534,-1.24134 -0.392,-0.392 -0.71866,-0.91466 -2.28667,0.91466 -5.55333,1.63333 -2.744,0.52267 -4.76933,0.52267 -3.136,0 -5.35733,-0.84934 -2.22134,-0.84933 -3.65867,-2.22133 -2.548,-2.61333 -2.548,-6.79466 0,-3.78933 2.61333,-6.33733 1.96,-2.02533 5.42267,-3.136 2.94,-0.98 6.33733,-0.98 2.156,0 6.33733,1.04533 v -2.28666 q 0,-1.764 -0.91467,-2.67867 -0.392,-0.32666 -0.91466,-0.65333 -1.82934,-0.98 -3.78934,-0.98 -1.89466,0 -4.83466,0.392 -2.87466,0.392 -5.16133,1.24133 -0.52267,0.196 -1.04533,0.196 -1.04534,0 -1.89467,-0.784 -0.784,-0.84933 -0.784,-2.02533 0,-1.176 0.784,-1.96 0.45733,-0.45733 1.04533,-0.65333 2.87467,-0.98 6.20667,-1.43733 3.39733,-0.52267 5.55333,-0.52267 3.528,0 6.59866,1.69867 1.24133,0.65333 2.156,1.568 2.548,2.54799 2.548,6.59866 z m -5.55333,-6.01066 q -4.508,-1.176 -6.33733,-1.176 -2.48267,0 -4.63867,0.71867 -2.15599,0.71866 -3.20133,1.764 -0.98,0.98 -0.98,2.41733 0,1.89466 0.91467,2.87466 0.588,0.52267 1.764,0.98 1.24133,0.45734 3.00533,0.45734 1.764,0 4.24666,-0.45734 2.48267,-0.52266 3.98534,-1.176 0.71866,-0.26133 1.24133,-0.52266 z"
         id="path175" />
    </g>
    <g
       aria-label="nó"
       transform="matrix(0.26458333,0,0,0.26458333,38.158369,10.439596)"
       id="text234-62-1"
       style="font-size:65.3333px;line-height:0;font-family:Uiua386;-inkscape-font-specification:Uiua386;text-align:center;letter-spacing:-7.2px;white-space:pre;shape-inside:url(#rect236-5-9);display:inline;fill:#eaa361;stroke-width:2.26772;stroke-linecap:round;stroke-linejoin:round">
      <path
         d="m 115.11097,144.22317 q 3.39733,-2.94 7.77466,-2.94 5.61867,0 9.47333,4.96533 3.65866,4.57333 3.65866,10.97599 v 13.26266 q 0,1.176 -0.784,1.96 -0.78399,0.784 -1.95999,0.784 -1.176,0 -1.96,-0.784 -0.784,-0.784 -0.784,-1.96 v -13.26266 q 0,-5.22666 -3.332,-8.49333 -1.89467,-1.89466 -4.312,-1.89466 -3.00533,0 -5.292,2.80933 -2.48266,3.136 -2.48266,7.57866 v 13.26266 q 0,1.176 -0.784,1.96 -0.784,0.784 -1.96,0.784 -1.176,0 -1.96,-0.784 -0.784,-0.784 -0.784,-1.96 v -13.26266 -13.19732 q 0,-1.176 0.784,-1.96 0.784,-0.784 1.96,-0.784 1.176,0 1.96,0.784 0.784,0.784 0.784,1.96 z"
         id="path168" />
      <path
         d="m 150.5083,136.31784 q -1.11066,0 -1.89466,-0.784 -0.784,-0.784 -0.784,-1.96 0,-1.24133 0.84933,-2.02533 l 8.49333,-7.84 q 0.784,-0.71867 1.89467,-0.71867 1.176,0 1.96,0.784 0.78399,0.784 0.78399,1.96 0,1.24134 -0.84933,2.02534 l -8.49333,7.83999 q -0.784,0.71867 -1.96,0.71867 z m -10.19199,20.90665 q 0,-6.99066 4.76933,-11.82532 4.116,-4.116 9.73466,-4.116 6.20667,0 10.388,4.83466 4.11599,4.63867 4.11599,11.10666 0,7.056 -4.76933,11.89066 -4.11599,4.05067 -9.73466,4.05067 -6.14133,0 -10.38799,-4.76933 -4.116,-4.63867 -4.116,-11.172 z m 5.488,0 q 0,4.76933 3.26666,8.036 2.41733,2.41733 5.74933,2.41733 3.59333,0 6.272,-3.00533 2.744,-3.00533 2.744,-7.448 0,-4.70399 -3.332,-8.03599 -2.352,-2.352 -5.55333,-2.352 -3.724,0 -6.468,3.00533 -2.67866,3.00533 -2.67866,7.38266 z"
         id="path170" />
    </g>
    <g
       aria-label="ir̃"
       transform="matrix(0.26458333,0,0,0.26458333,17.06406,-18.124403)"
       id="text234-6"
       style="font-size:65.3333px;line-height:0;font-family:Uiua386;-inkscape-font-specification:Uiua386;text-align:center;letter-spacing:-7.8px;white-space:pre;shape-inside:url(#rect236-3);display:inline;fill:#eaa361;stroke-width:2.26772;stroke-linecap:round;stroke-linejoin:round">
      <path
         d="m 102.08296,147.4245 h -5.749326 q -1.176,0 -1.959999,-0.784 -0.784,-0.784 -0.784,-1.96 0,-1.176 0.784,-1.96 0.783999,-0.784 1.959999,-0.784 h 8.493326 q 1.176,0 1.96,0.784 0.784,0.784 0.784,1.96 v 25.80665 q 0,1.176 -0.784,1.96 -0.784,0.784 -1.96,0.784 -1.176,0 -1.96,-0.784 -0.784,-0.784 -0.784,-1.96 z m -1.372,-11.69466 q -1.175995,-1.176 -1.175995,-2.80933 0,-1.63334 1.175995,-2.80934 1.176,-1.176 2.80934,-1.176 1.63333,0 2.80933,1.176 1.176,1.176 1.176,2.80934 0,1.63333 -1.176,2.80933 -1.176,1.176 -2.80933,1.176 -1.63334,0 -2.80934,-1.176 z"
         style="fill:#c861ea"
         id="path161" />
      <path
         d="m 128.19097,170.48715 q 0,1.176 -0.784,1.96 -0.784,0.784 -1.96,0.784 -1.176,0 -1.96,-0.784 -0.78399,-0.784 -0.78399,-1.96 v -13.26266 -13.19732 q 0,-1.176 0.78399,-1.96 0.784,-0.784 1.96,-0.784 1.176,0 1.96,0.784 0.784,0.784 0.784,1.96 v 0.45733 q 3.65867,-3.20133 8.428,-3.20133 5.81466,0 9.93066,4.9 0.588,0.78399 0.588,1.76399 0,1.176 -0.784,1.96 -0.784,0.784 -1.96,0.784 -1.30667,0 -2.156,-0.98 -2.41733,-2.87466 -5.61866,-2.87466 -3.332,0 -5.88,3.00533 -2.548,3.00533 -2.548,7.38266 z"
         style="letter-spacing:-37.61px;fill:#c861ea"
         id="path163" />
      <path
         d="m 128.27831,122.72851 q -0.784,0.784 -1.96,0.784 -1.176,0 -1.96,-0.784 -1.11066,-1.11066 -0.71866,-2.61333 0.392,-1.82933 1.63333,-3.00533 1.82933,-1.82933 4.96533,-1.82933 3.85466,0 7.12133,2.41733 1.04533,0.784 2.156,1.11066 1.176,0.26134 2.28666,-0.0653 1.176,-0.392 1.63334,-0.784 0.196,-0.26133 0.32666,-0.588 0.196,-0.784 0.71867,-1.30666 0.784,-0.784 1.96,-0.784 1.176,0 1.96,0.784 1.11066,1.11066 0.71866,2.61333 -0.45733,1.89466 -1.82933,3.26666 -1.372,1.372 -3.724,2.02533 -2.80933,0.84934 -5.48799,0.13067 -2.09067,-0.52267 -3.98534,-1.89466 -1.82933,-1.43734 -3.85466,-1.43734 -0.784,0 -1.04533,0.26134 -0.13067,0.0653 -0.196,0.392 -0.13067,0.784 -0.71867,1.30666 z"
         style="letter-spacing:-37.61px;fill:#c861ea"
         id="path165" />
    </g>
    <path
       id="rect1106"
       style="fill:none;stroke:#e3a3f9;stroke-width:0.600001;stroke-linecap:round;stroke-linejoin:round;stroke-dasharray:0.600001, 1.2"
       d="M 40.020119,10.970389 H 58.063915 V 28.450318 H 40.020119 Z" />
    <g
       aria-label="r̃"
       transform="matrix(0.26458333,0,0,0.26458333,43.208252,-17.907223)"
       id="text234-6-5"
       style="font-size:65.3333px;line-height:0;font-family:Uiua386;-inkscape-font-specification:Uiua386;text-align:center;letter-spacing:-7.8px;white-space:pre;shape-inside:url(#rect236-3-7);display:inline;fill:#eaa361;stroke-width:2.26772;stroke-linecap:round;stroke-linejoin:round">
      <path
         d="m 112.49097,170.48715 q 0,1.176 -0.784,1.96 -0.784,0.784 -1.96,0.784 -1.176,0 -1.96,-0.784 -0.784,-0.784 -0.784,-1.96 v -13.26266 -13.19732 q 0,-1.176 0.784,-1.96 0.784,-0.784 1.96,-0.784 1.176,0 1.96,0.784 0.784,0.784 0.784,1.96 v 0.45733 q 3.65866,-3.20133 8.42799,-3.20133 5.81467,0 9.93067,4.9 0.58799,0.78399 0.58799,1.76399 0,1.176 -0.78399,1.96 -0.784,0.784 -1.96,0.784 -1.30667,0 -2.156,-0.98 -2.41733,-2.87466 -5.61867,-2.87466 -3.33199,0 -5.87999,3.00533 -2.548,3.00533 -2.548,7.38266 z"
         style="letter-spacing:-37.61px;fill:#c861ea"
         id="path155" />
      <path
         d="m 112.57831,122.72851 q -0.784,0.784 -1.96,0.784 -1.176,0 -1.96,-0.784 -1.11067,-1.11066 -0.71867,-2.61333 0.392,-1.82933 1.63334,-3.00533 1.82933,-1.82933 4.96533,-1.82933 3.85466,0 7.12133,2.41733 1.04533,0.784 2.15599,1.11066 1.176,0.26134 2.28667,-0.0653 1.176,-0.392 1.63333,-0.784 0.196,-0.26133 0.32667,-0.588 0.196,-0.784 0.71866,-1.30666 0.784,-0.784 1.96,-0.784 1.176,0 1.96,0.784 1.11067,1.11066 0.71867,2.61333 -0.45733,1.89466 -1.82933,3.26666 -1.372,1.372 -3.724,2.02533 -2.80933,0.84934 -5.488,0.13067 -2.09066,-0.52267 -3.98533,-1.89466 -1.82933,-1.43734 -3.85466,-1.43734 -0.784,0 -1.04534,0.26134 -0.13066,0.0653 -0.196,0.392 -0.13066,0.784 -0.71866,1.30666 z"
         style="letter-spacing:-37.61px;fill:#c861ea"
         id="path157" />
    </g>
    <path
       id="rect1106-3"
       style="fill:none;stroke:#e3a3f9;stroke-width:0.600001;stroke-linecap:round;stroke-linejoin:round;stroke-dasharray:0.600001, 1.2"
       d="M 65.635139,11.187567 H 83.678936 V 28.667496 H 65.635139 Z" />
    <path
       style="fill:none;fill-opacity:1;stroke:#000000;stroke-width:0.7;stroke-linecap:round;stroke-linejoin:round;stroke-dasharray:none;stroke-dashoffset:0;stroke-opacity:1"
       d="M 48.491402,42.463923 C 52.171353,31.215569 73.951036,47.902318 74.752387,30.83453 l -1.813527,1.813527"
       id="path10348" />
    <path
       style="fill:none;fill-opacity:1;stroke:#000000;stroke-width:0.7;stroke-linecap:round;stroke-linejoin:round;stroke-dasharray:none;stroke-dashoffset:0;stroke-opacity:1"
       d="m 74.766931,30.847299 1.864818,1.648767"
       id="path18031" />
    <path
       style="fill:none;fill-opacity:1;stroke:#000000;stroke-width:0.7;stroke-linecap:round;stroke-linejoin:round;stroke-dasharray:none;stroke-dashoffset:0;stroke-opacity:1"
       d="M 77.391222,44.240219 C 76.393137,23.820408 51.130237,46.120701 51.130237,29.70683 l 1.813527,1.813527"
       id="path10348-2" />
    <path
       style="fill:none;fill-opacity:1;stroke:#000000;stroke-width:0.7;stroke-linecap:round;stroke-linejoin:round;stroke-dasharray:none;stroke-dashoffset:0;stroke-opacity:1"
       d="m 51.115693,29.719599 -1.864818,1.648767"
       id="path18031-7" />
  </g>
</svg>
