<?xml version="1.0" encoding="UTF-8" standalone="no"?>
<!-- Created with Inkscape (http://www.inkscape.org/) -->

<svg
   width="40.0px"
   height="40.0px"
   viewBox="0 0 40.0 40.0"
   version="1.1"
   id="SVGRoot"
   xmlns="http://www.w3.org/2000/svg"
   xmlns:svg="http://www.w3.org/2000/svg">
  <defs
     id="defs291" />
  <g
     id="layer1">
    <g
       aria-label="◌"
       transform="matrix(0.8566208,0,0,0.8566208,-38.902361,-87.437716)"
       id="text8748-3-7"
       style="font-size:53.3333px;line-height:0;font-family:'Iosevka Term';-inkscape-font-specification:'Iosevka Term';text-align:center;white-space:pre;shape-inside:url(#rect8750-6-1);display:inline;fill:#c861eb;stroke-width:1.88976;stroke-linejoin:round">
      <path
         d="m 77.841027,126.33841 q -0.96,0 -1.599999,-0.63999 -0.64,-0.64 -0.64,-1.6 0,-0.96 0.64,-1.6 0.639999,-0.64 1.599999,-0.64 0.959999,0 1.599999,0.64 0.639999,0.64 0.639999,1.6 0,0.96 -0.639999,1.6 -0.64,0.63999 -1.599999,0.63999 z m 3.359998,8.10667 q -0.96,0 -1.599999,-0.64 -0.64,-0.64 -0.64,-1.6 0,-0.96 0.64,-1.6 0.639999,-0.64 1.599999,-0.64 0.959999,0 1.599999,0.64 0.639999,0.64 0.639999,1.6 0,0.96 -0.639999,1.6 -0.64,0.64 -1.599999,0.64 z m -3.359998,8.10666 q -0.96,0 -1.599999,-0.64 -0.64,-0.64 -0.64,-1.6 0,-0.96 0.64,-1.6 0.639999,-0.64 1.599999,-0.64 0.959999,0 1.599999,0.64 0.639999,0.64 0.639999,1.6 0,0.96 -0.639999,1.6 -0.64,0.64 -1.599999,0.64 z m -8.106662,3.30666 q -0.96,0 -1.599999,-0.64 -0.64,-0.64 -0.64,-1.6 0,-0.95999 0.64,-1.59999 0.639999,-0.64 1.599999,-0.64 0.959999,0 1.599999,0.64 0.639999,0.64 0.639999,1.59999 0,0.96 -0.639999,1.6 -0.64,0.64 -1.599999,0.64 z m -8.106662,-3.30666 q -0.959999,0 -1.599999,-0.64 -0.64,-0.64 -0.64,-1.6 0,-0.96 0.64,-1.6 0.64,-0.64 1.599999,-0.64 0.959999,0 1.599999,0.64 0.64,0.64 0.64,1.6 0,0.96 -0.64,1.6 -0.64,0.64 -1.599999,0.64 z m -3.359998,-8.10666 q -0.959999,0 -1.599999,-0.64 -0.64,-0.64 -0.64,-1.6 0,-0.96 0.64,-1.6 0.64,-0.64 1.599999,-0.64 0.959999,0 1.599999,0.64 0.64,0.64 0.64,1.6 0,0.96 -0.64,1.6 -0.64,0.64 -1.599999,0.64 z m 3.359998,-8.10667 q -0.959999,0 -1.599999,-0.63999 -0.64,-0.64 -0.64,-1.6 0,-0.96 0.64,-1.6 0.64,-0.64 1.599999,-0.64 0.959999,0 1.599999,0.64 0.64,0.64 0.64,1.6 0,0.96 -0.64,1.6 -0.64,0.63999 -1.599999,0.63999 z m 8.106662,-3.35999 q -0.96,0 -1.599999,-0.64 -0.64,-0.64 -0.64,-1.6 0,-0.96 0.64,-1.6 0.639999,-0.64 1.599999,-0.64 0.959999,0 1.599999,0.64 0.639999,0.64 0.639999,1.6 0,0.96 -0.639999,1.6 -0.64,0.64 -1.599999,0.64 z"
         style="font-family:Uiua386Color;-inkscape-font-specification:Uiua386Color"
         id="path356" />
    </g>
    <g
       aria-label="~"
       transform="matrix(3.2059716,-0.45159917,0.45159917,3.2059716,-278.14784,-104.9219)"
       id="text11416"
       style="font-size:14.1111px;line-height:0;font-family:Uiua386Color;-inkscape-font-specification:Uiua386Color;text-align:center;text-anchor:middle;fill:#c861eb;stroke-width:0.499999;stroke-linejoin:round">
      <path
         d="m 83.852228,47.078713 q -0.169334,0.169333 -0.423333,0.169333 -0.254,0 -0.423333,-0.169333 -0.169334,-0.169333 -0.169334,-0.423333 0,-0.254 0.169334,-0.423333 0.931332,-0.931333 1.93322,-0.931333 1.016,0 1.947332,0.931333 0.578555,0.578555 1.086555,0.578555 0.522111,0 1.100666,-0.578555 0.169333,-0.169333 0.423333,-0.169333 0.253999,0 0.423333,0.169333 0.169333,0.169333 0.169333,0.423333 0,0.254 -0.169333,0.423333 -0.931333,0.931333 -1.947332,0.931333 -1.001888,0 -1.933221,-0.931333 -0.578555,-0.578555 -1.100666,-0.578555 -0.507999,0 -1.086554,0.578555 z"
         style="stroke-width:0.5"
         id="path347" />
    </g>
  </g>
</svg>
