<?xml version="1.0" encoding="UTF-8" standalone="no"?>
<!-- Created with Inkscape (http://www.inkscape.org/) -->

<svg
   width="40.0px"
   height="40.0px"
   viewBox="0 0 40.0 40.0"
   version="1.1"
   id="SVGRoot"
   xmlns="http://www.w3.org/2000/svg"
   xmlns:svg="http://www.w3.org/2000/svg">
  <defs
     id="defs291" />
  <g
     id="layer1">
    <g
       aria-label="~"
       transform="matrix(3.2059716,-0.45159917,0.45159917,3.2059716,-280.14784,-104.9219)"
       id="text11416"
       style="font-size:14.1111px;line-height:0;font-family:Uiua386Color;-inkscape-font-specification:Uiua386Color;text-align:center;text-anchor:middle;fill:#c861eb;stroke-width:0.499999;stroke-linejoin:round">
      <path
         d="m 88.768017,51.709637 q -0.25078,-0.03533 -0.394418,-0.226062 -0.143638,-0.190738 -0.108312,-0.44152 0.03533,-0.250783 0.226062,-0.39442 0.19074,-0.143638 0.441522,-0.108312 0.250782,0.03533 0.39442,0.226064 0.143637,0.190738 0.108311,0.44152 -0.03533,0.250783 -0.226065,0.39442 -0.190737,0.143634 -0.44152,0.10831 z m 0.579432,2.241355 q -0.250782,-0.03533 -0.394419,-0.226063 -0.143638,-0.190739 -0.108312,-0.441521 0.03533,-0.250783 0.226065,-0.39442 0.190737,-0.143638 0.44152,-0.108313 0.250781,0.03533 0.39442,0.226066 0.143637,0.190737 0.108311,0.44152 -0.03533,0.250781 -0.226064,0.394419 -0.190738,0.143638 -0.441521,0.108312 z m -1.176041,1.994073 q -0.250783,-0.03533 -0.39442,-0.226064 -0.143638,-0.190737 -0.108311,-0.441521 0.03533,-0.25078 0.226064,-0.394419 0.190737,-0.143637 0.44152,-0.10831 0.250781,0.03533 0.394419,0.226063 0.143637,0.190738 0.108311,0.44152 -0.03533,0.250783 -0.226063,0.39442 -0.190738,0.143637 -0.44152,0.108311 z m -2.23939,0.565499 q -0.250784,-0.03533 -0.394421,-0.226065 -0.143636,-0.190737 -0.108311,-0.44152 0.03533,-0.250779 0.226064,-0.394417 0.190737,-0.143637 0.44152,-0.108312 0.250781,0.03533 0.394419,0.226065 0.143637,0.190738 0.108313,0.441517 -0.03533,0.250782 -0.226065,0.39442 -0.190738,0.143638 -0.441519,0.108312 z M 83.93598,55.348456 q -0.250781,-0.03533 -0.394418,-0.226064 -0.14364,-0.190739 -0.108313,-0.441521 0.03533,-0.250782 0.226063,-0.394421 0.19074,-0.143636 0.44152,-0.108311 0.250783,0.03533 0.39442,0.226065 0.143638,0.190737 0.108314,0.44152 -0.03533,0.250782 -0.226066,0.394419 -0.190739,0.143639 -0.44152,0.108313 z m -0.579431,-2.241354 q -0.250782,-0.03533 -0.39442,-0.226064 -0.143637,-0.190738 -0.108311,-0.44152 0.03533,-0.250781 0.226063,-0.39442 0.19074,-0.143638 0.441521,-0.108312 0.250782,0.03533 0.394419,0.226065 0.143638,0.190738 0.108312,0.441519 -0.03533,0.250783 -0.226064,0.39442 -0.190739,0.143638 -0.44152,0.108312 z m 1.176043,-1.994076 q -0.250783,-0.03533 -0.394421,-0.226061 -0.143637,-0.190739 -0.108312,-0.441521 0.03533,-0.250782 0.226064,-0.394419 0.190739,-0.143637 0.441521,-0.108313 0.250781,0.03533 0.394418,0.226064 0.143638,0.190739 0.108313,0.441521 -0.03533,0.250783 -0.226065,0.39442 -0.190737,0.143634 -0.441518,0.108309 z m 2.241353,-0.579429 q -0.250785,-0.03533 -0.39442,-0.226064 -0.143638,-0.190739 -0.108312,-0.44152 0.03533,-0.250783 0.226064,-0.39442 0.190738,-0.143638 0.44152,-0.108313 0.250781,0.03533 0.394419,0.226065 0.143637,0.190738 0.108312,0.441519 -0.03533,0.250783 -0.226063,0.394421 -0.190739,0.143638 -0.44152,0.108312 z"
         style="font-size:53.3333px;line-height:0;font-family:Uiua386Color;-inkscape-font-specification:Uiua386Color;text-align:center;white-space:pre;shape-inside:url(#rect8750);display:inline;fill:#6161eb;stroke-width:0.498539;stroke-linejoin:round"
         id="path368" />
    </g>
  </g>
</svg>
