<?xml version="1.0" encoding="UTF-8" standalone="no"?>
<!-- Created with Inkscape (http://www.inkscape.org/) -->

<svg
   width="40.0px"
   height="40.0px"
   viewBox="0 0 40.0 40.0"
   version="1.1"
   id="SVGRoot"
   xmlns="http://www.w3.org/2000/svg"
   xmlns:svg="http://www.w3.org/2000/svg">
  <defs
     id="defs291" />
  <g
     id="layer1">
    <g
       aria-label="~"
       transform="matrix(3.2059716,-0.45159917,0.45159917,3.2059716,-280.14784,-104.9219)"
       id="text11416"
       style="font-size:14.1111px;line-height:0;font-family:Uiua386Color;-inkscape-font-specification:Uiua386Color;text-align:center;text-anchor:middle;fill:#c861eb;stroke-width:0.499999;stroke-linejoin:round">
      <g
         aria-label="◌"
         transform="matrix(0.2609688,0.03676056,-0.03676056,0.2609688,73.092514,15.875632)"
         id="text8748-9"
         style="font-size:53.3333px;line-height:0;font-family:'Iosevka Term';-inkscape-font-specification:'Iosevka Term';text-align:center;white-space:pre;shape-inside:url(#rect8750-5);display:inline;fill:#61eb71;stroke-width:1.88976;stroke-linejoin:round">
        <path
           d="m 77.841027,126.33841 q -0.96,0 -1.599999,-0.63999 -0.64,-0.64 -0.64,-1.6 0,-0.96 0.64,-1.6 0.639999,-0.64 1.599999,-0.64 0.959999,0 1.599999,0.64 0.639999,0.64 0.639999,1.6 0,0.96 -0.639999,1.6 -0.64,0.63999 -1.599999,0.63999 z m 3.359998,8.10667 q -0.96,0 -1.599999,-0.64 -0.64,-0.64 -0.64,-1.6 0,-0.96 0.64,-1.6 0.639999,-0.64 1.599999,-0.64 0.959999,0 1.599999,0.64 0.639999,0.64 0.639999,1.6 0,0.96 -0.639999,1.6 -0.64,0.64 -1.599999,0.64 z m -3.359998,8.10666 q -0.96,0 -1.599999,-0.64 -0.64,-0.64 -0.64,-1.6 0,-0.96 0.64,-1.6 0.639999,-0.64 1.599999,-0.64 0.959999,0 1.599999,0.64 0.639999,0.64 0.639999,1.6 0,0.96 -0.639999,1.6 -0.64,0.64 -1.599999,0.64 z m -8.106662,3.30666 q -0.96,0 -1.599999,-0.64 -0.64,-0.64 -0.64,-1.6 0,-0.95999 0.64,-1.59999 0.639999,-0.64 1.599999,-0.64 0.959999,0 1.599999,0.64 0.639999,0.64 0.639999,1.59999 0,0.96 -0.639999,1.6 -0.64,0.64 -1.599999,0.64 z m -8.106662,-3.30666 q -0.959999,0 -1.599999,-0.64 -0.64,-0.64 -0.64,-1.6 0,-0.96 0.64,-1.6 0.64,-0.64 1.599999,-0.64 0.959999,0 1.599999,0.64 0.64,0.64 0.64,1.6 0,0.96 -0.64,1.6 -0.64,0.64 -1.599999,0.64 z m -3.359998,-8.10666 q -0.959999,0 -1.599999,-0.64 -0.64,-0.64 -0.64,-1.6 0,-0.96 0.64,-1.6 0.64,-0.64 1.599999,-0.64 0.959999,0 1.599999,0.64 0.64,0.64 0.64,1.6 0,0.96 -0.64,1.6 -0.64,0.64 -1.599999,0.64 z m 3.359998,-8.10667 q -0.959999,0 -1.599999,-0.63999 -0.64,-0.64 -0.64,-1.6 0,-0.96 0.64,-1.6 0.64,-0.64 1.599999,-0.64 0.959999,0 1.599999,0.64 0.64,0.64 0.64,1.6 0,0.96 -0.64,1.6 -0.64,0.63999 -1.599999,0.63999 z m 8.106662,-3.35999 q -0.96,0 -1.599999,-0.64 -0.64,-0.64 -0.64,-1.6 0,-0.96 0.64,-1.6 0.639999,-0.64 1.599999,-0.64 0.959999,0 1.599999,0.64 0.639999,0.64 0.639999,1.6 0,0.96 -0.639999,1.6 -0.64,0.64 -1.599999,0.64 z"
           style="font-family:Uiua386Color;-inkscape-font-specification:Uiua386Color"
           id="path365" />
      </g>
      <g
         aria-label="¨"
         id="text12297"
         style="font-size:14.1111px;line-height:0;font-family:Uiua386Color;-inkscape-font-specification:Uiua386Color;text-align:center;text-anchor:middle;fill:#61eb71;stroke-width:0.499999;stroke-linejoin:round"
         transform="matrix(0.98633876,0.13893753,-0.13893753,0.98633876,80.319262,-27.595479)">
        <path
           d="m 16.452476,73.368507 q 0,-0.197556 -0.09878,-0.381 -0.08467,-0.197555 -0.239889,-0.338666 -0.141111,-0.155223 -0.324555,-0.239889 -0.183444,-0.09878 -0.381,-0.09878 -0.352777,0 -0.705555,0.366889 -0.338666,0.352777 -0.338666,0.691444 0,0.366888 0.338666,0.705555 0.338667,0.338666 0.705555,0.338666 0.211667,0 0.395111,-0.08467 0.183444,-0.08467 0.324555,-0.225777 0.155222,-0.155222 0.239889,-0.338667 0.08467,-0.183444 0.08467,-0.39511 z m 3.97933,0 q 0,-0.197556 -0.09878,-0.381 -0.08467,-0.197555 -0.239889,-0.338666 -0.141111,-0.155223 -0.324555,-0.239889 -0.183444,-0.09878 -0.381,-0.09878 -0.352777,0 -0.705555,0.366889 -0.338666,0.352777 -0.338666,0.691444 0,0.366888 0.338666,0.705555 0.338667,0.338666 0.705555,0.338666 0.211667,0 0.395111,-0.08467 0.183445,-0.08467 0.324556,-0.225777 0.155222,-0.155222 0.239888,-0.338667 0.08467,-0.183444 0.08467,-0.39511 z"
           style="stroke-width:0.5"
           id="path344" />
      </g>
    </g>
  </g>
</svg>
