<?xml version="1.0" encoding="UTF-8" standalone="no"?>
<!-- Created with Inkscape (http://www.inkscape.org/) -->

<svg
   width="40.0px"
   height="40.0px"
   viewBox="0 0 40.0 40.0"
   version="1.1"
   id="SVGRoot"
   sodipodi:docname="creaky (kopya).svg"
   inkscape:version="1.2.2 (b0a8486541, 2022-12-01)"
   xmlns:inkscape="http://www.inkscape.org/namespaces/inkscape"
   xmlns:sodipodi="http://sodipodi.sourceforge.net/DTD/sodipodi-0.dtd"
   xmlns="http://www.w3.org/2000/svg"
   xmlns:svg="http://www.w3.org/2000/svg">
  <sodipodi:namedview
     id="namedview9"
     pagecolor="#ffffff"
     bordercolor="#000000"
     borderopacity="0.25"
     inkscape:showpageshadow="2"
     inkscape:pageopacity="0.0"
     inkscape:pagecheckerboard="0"
     inkscape:deskcolor="#d1d1d1"
     showgrid="false"
     inkscape:zoom="14.11634"
     inkscape:cx="25.821141"
     inkscape:cy="9.9175849"
     inkscape:window-width="1920"
     inkscape:window-height="1008"
     inkscape:window-x="0"
     inkscape:window-y="0"
     inkscape:window-maximized="1"
     inkscape:current-layer="text11416" />
  <defs
     id="defs291">
    <rect
       x="-26.943135"
       y="-21.469873"
       width="180.04038"
       height="159.61297"
       id="rect393" />
  </defs>
  <g
     id="layer1">
    <g
       aria-label="◌"
       transform="matrix(0.8566208,0,0,0.8566208,-38.902361,-87.437716)"
       id="text8748-3-7"
       style="font-size:53.3333px;line-height:0;font-family:'Iosevka Term';-inkscape-font-specification:'Iosevka Term';text-align:center;white-space:pre;shape-inside:url(#rect8750-6-1);display:inline;fill:#c861eb;stroke-width:1.88976;stroke-linejoin:round">
      <path
         d="m 77.841027,126.33841 q -0.96,0 -1.599999,-0.63999 -0.64,-0.64 -0.64,-1.6 0,-0.96 0.64,-1.6 0.639999,-0.64 1.599999,-0.64 0.959999,0 1.599999,0.64 0.639999,0.64 0.639999,1.6 0,0.96 -0.639999,1.6 -0.64,0.63999 -1.599999,0.63999 z m 3.359998,8.10667 q -0.96,0 -1.599999,-0.64 -0.64,-0.64 -0.64,-1.6 0,-0.96 0.64,-1.6 0.639999,-0.64 1.599999,-0.64 0.959999,0 1.599999,0.64 0.639999,0.64 0.639999,1.6 0,0.96 -0.639999,1.6 -0.64,0.64 -1.599999,0.64 z m -3.359998,8.10666 q -0.96,0 -1.599999,-0.64 -0.64,-0.64 -0.64,-1.6 0,-0.96 0.64,-1.6 0.639999,-0.64 1.599999,-0.64 0.959999,0 1.599999,0.64 0.639999,0.64 0.639999,1.6 0,0.96 -0.639999,1.6 -0.64,0.64 -1.599999,0.64 z m -8.106662,3.30666 q -0.96,0 -1.599999,-0.64 -0.64,-0.64 -0.64,-1.6 0,-0.95999 0.64,-1.59999 0.639999,-0.64 1.599999,-0.64 0.959999,0 1.599999,0.64 0.639999,0.64 0.639999,1.59999 0,0.96 -0.639999,1.6 -0.64,0.64 -1.599999,0.64 z m -8.106662,-3.30666 q -0.959999,0 -1.599999,-0.64 -0.64,-0.64 -0.64,-1.6 0,-0.96 0.64,-1.6 0.64,-0.64 1.599999,-0.64 0.959999,0 1.599999,0.64 0.64,0.64 0.64,1.6 0,0.96 -0.64,1.6 -0.64,0.64 -1.599999,0.64 z m -3.359998,-8.10666 q -0.959999,0 -1.599999,-0.64 -0.64,-0.64 -0.64,-1.6 0,-0.96 0.64,-1.6 0.64,-0.64 1.599999,-0.64 0.959999,0 1.599999,0.64 0.64,0.64 0.64,1.6 0,0.96 -0.64,1.6 -0.64,0.64 -1.599999,0.64 z m 3.359998,-8.10667 q -0.959999,0 -1.599999,-0.63999 -0.64,-0.64 -0.64,-1.6 0,-0.96 0.64,-1.6 0.64,-0.64 1.599999,-0.64 0.959999,0 1.599999,0.64 0.64,0.64 0.64,1.6 0,0.96 -0.64,1.6 -0.64,0.63999 -1.599999,0.63999 z m 8.106662,-3.35999 q -0.96,0 -1.599999,-0.64 -0.64,-0.64 -0.64,-1.6 0,-0.96 0.64,-1.6 0.639999,-0.64 1.599999,-0.64 0.959999,0 1.599999,0.64 0.639999,0.64 0.639999,1.6 0,0.96 -0.639999,1.6 -0.64,0.64 -1.599999,0.64 z"
         style="font-family:Uiua386Color;-inkscape-font-specification:Uiua386Color"
         id="path356" />
    </g>
    <g
       aria-label="~"
       transform="matrix(3.2059716,-0.45159917,0.45159917,3.2059716,-278.14784,-104.9219)"
       id="text11416"
       style="font-size:14.1111px;line-height:0;font-family:Uiua386Color;-inkscape-font-specification:Uiua386Color;text-align:center;text-anchor:middle;fill:#c861eb;stroke-width:0.499999;stroke-linejoin:round">
      <g
         aria-label="¯"
         transform="matrix(0.1952976,0.02750999,-0.02750999,0.1952976,73.276935,51.718439)"
         id="text391"
         style="font-size:65.3333px;font-family:Uiua386;-inkscape-font-specification:Uiua386;white-space:pre;shape-inside:url(#rect393);fill:#c860eb;fill-opacity:0.979865;stroke-width:0.5;stroke-linecap:round;stroke-dasharray:none;stroke-dashoffset:0">
        <path
           d="m 49.030477,-32.773364 q -1.175999,0 -1.959999,-0.783999 -0.784,-0.784 -0.784,-1.959999 0,-1.175999 0.784,-1.959999 0.784,-0.784 1.959999,-0.784 h 28.093318 q 1.175999,0 1.959999,0.784 0.783999,0.784 0.783999,1.959999 0,1.175999 -0.783999,1.959999 -0.784,0.783999 -1.959999,0.783999 z"
           id="path1677"
           style="stroke-width:0.5;stroke-dasharray:none;stroke-dashoffset:0" />
      </g>
    </g>
  </g>
</svg>
