<?xml version="1.0" encoding="UTF-8" standalone="no"?>
<!-- Created with Inkscape (http://www.inkscape.org/) -->

<svg
   width="73mm"
   height="36mm"
   viewBox="0 0 73 36"
   version="1.1"
   id="svg5"
   xmlns="http://www.w3.org/2000/svg"
   xmlns:svg="http://www.w3.org/2000/svg">
  <defs
     id="defs2">
    <rect
       x="68.698906"
       y="124.97569"
       width="153.00797"
       height="120.30908"
       id="rect17023" />
    <rect
       x="145.80795"
       y="122.59091"
       width="173.1114"
       height="88.07933"
       id="rect2765" />
    <rect
       x="4.6224236"
       y="15.764369"
       width="339.93741"
       height="96.562592"
       id="rect236" />
  </defs>
  <g
     id="layer1">
    <g
       aria-label="bëa    sú"
       transform="matrix(0.26458333,0,0,0.26458333,-9.6254706,13.681186)"
       id="text234"
       style="font-size:65.3333px;line-height:0;font-family:Uiua386;-inkscape-font-specification:Uiua386;text-align:center;letter-spacing:-7.2px;word-spacing:-7.2px;text-anchor:middle;white-space:pre;shape-inside:url(#rect236);fill:none;stroke-width:2.64567;stroke-linecap:round;stroke-linejoin:round;stroke-dasharray:2.64567, 5.29134">
      <path
         d="m 52.955773,33.076996 q 0,1.175999 -0.783999,1.959999 -0.784,0.783999 -1.959999,0.783999 -1.175999,0 -1.959999,-0.783999 -0.784,-0.784 -0.784,-1.959999 V 19.87967 19.814336 -7.7563153 q 0,-1.1759994 0.784,-1.9599989 0.784,-0.7839998 1.959999,-0.7839998 1.175999,0 1.959999,0.7839998 0.783999,0.7839995 0.783999,1.9599989 V 7.0743433 q 3.658665,-3.2013316 8.362663,-3.2013316 5.879996,0 9.995994,4.8999973 3.854665,4.573331 3.854665,11.041327 0,7.31733 -4.834664,12.151994 -3.789332,3.789331 -9.015995,3.789331 -4.769331,0 -8.362663,-3.135998 z m 0,-13.26266 q 0,4.965331 3.266665,8.231996 2.221332,2.221332 5.095998,2.221332 3.266664,0 5.74933,-2.874665 2.613332,-3.135998 2.613332,-7.513329 0,-4.442665 -2.613332,-7.578663 -0.06533,0 -0.261333,-0.196 -0.130667,-0.196 -0.457334,-0.522666 -2.155998,-2.155999 -4.96533,-2.155999 -3.331998,0 -5.879997,3.005332 -2.547999,3.005331 -2.547999,7.382662 z"
         style="fill:#60eb70"
         id="path22115" />
      <path
         d="m 83.845111,-1.2229855 q -1.045333,-1.1106661 -1.045333,-2.6133319 0,-1.5026659 1.045333,-2.5479987 1.110666,-1.110666 2.613332,-1.110666 1.502666,0 2.547999,1.110666 1.110666,1.0453328 1.110666,2.5479987 0,1.5026658 -1.110666,2.6133319 -1.045333,1.04533273 -2.547999,1.04533273 -1.502666,0 -2.613332,-1.04533273 z m 13.06666,0 q -1.045333,-1.1106661 -1.045333,-2.6133319 0,-1.5026659 1.045333,-2.5479987 1.110666,-1.110666 2.613332,-1.110666 1.502667,0 2.547997,1.110666 1.11067,1.0453328 1.11067,2.5479987 0,1.5026658 -1.11067,2.6133319 -1.04533,1.04533273 -2.547997,1.04533273 -1.502666,0 -2.613332,-1.04533273 z m 5.618659,29.7266505 q 1.176,0 1.96,0.849333 0.784,0.783999 0.784,1.959999 0,1.437332 -1.11066,2.221332 -3.00533,2.221332 -9.015998,2.221332 -10.061328,0 -13.981326,-5.879997 -2.613332,-3.789331 -2.613332,-9.995994 0,-0.130667 0,-0.196 0,-0.06533 0,-0.06533 0,-0.06533 0,-0.130666 0.130667,-7.709329 4.442664,-12.0213269 3.723998,-3.7893313 9.995995,-3.7893313 6.794663,0 10.257327,4.5733308 3.00533,3.9853314 3.00533,11.2373274 0,0.06533 0,0.130666 0,1.176 -0.84933,1.959999 -0.784,0.784 -1.89467,0.784 H 84.237111 q 0.457333,3.527998 2.221332,5.291997 2.547999,2.547999 8.689329,2.547999 2.482665,0 3.789331,-0.326667 1.371997,-0.392 2.025337,-0.849333 0.65333,-0.522666 1.56799,-0.522666 z M 92.991773,9.2303421 q -4.311998,0 -6.467997,2.4826649 -1.698665,2.025333 -2.155998,5.161331 H 100.57044 Q 100.1131,12.823673 98.28377,11.059674 96.519771,9.2303421 92.991773,9.2303421 Z"
         style="fill:#60eb70"
         id="path22117" />
      <path
         d="m 137.0131,28.176998 q 0,1.763999 0.32667,2.417332 0.52267,0.261334 0.91467,0.588 0.784,0.849333 0.784,2.025332 0,1.110666 -0.84934,1.959999 -0.784,0.784 -1.82933,0.784 -0.45733,0 -0.98,-0.196 -1.11067,-0.326667 -2.02533,-1.241333 -0.392,-0.391999 -0.71867,-0.914666 -2.28666,0.914666 -5.55333,1.633333 -2.744,0.522666 -4.76933,0.522666 -3.136,0 -5.35733,-0.849333 -2.22133,-0.849333 -3.65866,-2.221332 -2.548,-2.613332 -2.548,-6.794663 0,-3.789331 2.61333,-6.33733 1.96,-2.025332 5.42266,-3.135998 2.94,-0.98 6.33733,-0.98 2.156,0 6.33733,1.045333 v -2.286665 q 0,-1.763999 -0.91466,-2.678665 -0.392,-0.326667 -0.91467,-0.653333 -1.82933,-0.9799999 -3.78933,-0.9799999 -1.89467,0 -4.83466,0.3919999 -2.87467,0.392 -5.16134,1.241333 -0.52266,0.195999 -1.04533,0.195999 -1.04533,0 -1.89466,-0.783999 -0.784,-0.849333 -0.784,-2.0253324 0,-1.1759993 0.784,-1.9599989 0.45733,-0.4573331 1.04533,-0.653333 2.87466,-0.9799995 6.20666,-1.4373325 3.39733,-0.5226664 5.55333,-0.5226664 3.528,0 6.59867,1.6986657 1.24133,0.653333 2.15599,1.5679992 2.548,2.5479983 2.548,6.5986633 z m -5.55333,-6.010663 q -4.50799,-1.175999 -6.33733,-1.175999 -2.48266,0 -4.63866,0.718666 -2.156,0.718666 -3.20133,1.763999 -0.98,0.979999 -0.98,2.417332 0,1.894666 0.91466,2.874665 0.588,0.522667 1.764,0.98 1.24134,0.457333 3.00533,0.457333 1.764,0 4.24667,-0.457333 2.48266,-0.522667 3.98533,-1.176 0.71867,-0.261333 1.24133,-0.522666 z"
         style="fill:#60eb70"
         id="path22119" />
      <path
         d="m 245.08514,32.750329 q -0.784,-0.783999 -0.784,-1.959999 0,-1.175999 0.71866,-1.894665 0.84934,-0.914666 2.02533,-0.914666 0.84934,0 1.568,0.522666 2.67867,1.829332 7.31733,1.829332 2.87467,0 4.57333,-0.587999 1.04534,-0.326667 1.568,-0.849333 0.52267,-0.522667 0.52267,-1.502666 0,-1.241333 -0.98,-2.221332 -1.82933,-1.763999 -6.468,-2.874665 -5.61866,-1.241333 -8.23199,-3.854665 -2.61333,-2.678665 -2.61333,-6.14133 0,-3.527998 2.156,-5.6839968 2.74399,-2.7439985 8.49332,-2.7439985 5.81467,0 10.976,2.4826653 0.392,0.1959999 0.71866,0.5226664 0.784,0.7839996 0.784,1.9599989 0,1.1759997 -0.84933,2.0253327 -0.784,0.783999 -1.82933,0.783999 -0.588,0 -1.30667,-0.326666 -3.98533,-1.9599993 -8.36266,-1.9599993 -3.59333,0 -4.704,1.1759993 -0.588,0.522666 -0.588,1.698666 0,3.135998 6.59867,4.703997 6.20666,1.437333 9.14666,4.311998 2.548,2.613332 2.548,6.14133 0,3.331998 -2.09067,5.422664 -3.00533,3.005331 -10.06133,3.005331 -6.33733,0 -10.45332,-2.743998 -0.196,-0.130667 -0.392,-0.326667 z"
         style="fill:#ebaf60"
         id="path22121" />
      <path
         d="m 283.87981,-1.0923189 q -1.11066,0 -1.89466,-0.7839996 -0.784,-0.7839996 -0.784,-1.9599989 0,-1.2413327 0.84933,-2.0253323 l 8.49333,-7.8399953 q 0.784,-0.718667 1.89467,-0.718667 1.176,0 1.96,0.784 0.78399,0.783999 0.78399,1.959999 0,1.241332 -0.84933,2.0253321 l -8.49333,7.8399957 q -0.784,0.7186663 -1.96,0.7186663 z m 12.02133,33.9733149 q -3.39733,2.939998 -7.77466,2.939998 -5.61867,0 -9.47333,-4.96533 -3.65866,-4.573331 -3.65866,-11.041328 V 6.6170102 q 0,-1.1759994 0.784,-1.9599989 0.78399,-0.7839996 1.95999,-0.7839996 1.176,0 1.96,0.7839996 0.784,0.7839995 0.784,1.9599989 V 19.814336 q 0,5.291997 3.332,8.558662 1.89467,1.894666 4.312,1.894666 3.00533,0 5.292,-2.809332 2.48266,-3.135998 2.48266,-7.643996 V 6.6170102 q 0,-1.1759994 0.784,-1.9599989 0.784,-0.7839996 1.96,-0.7839996 1.176,0 1.96,0.7839996 0.784,0.7839995 0.784,1.9599989 v 13.1973258 13.26266 q 0,1.175999 -0.784,1.959999 -0.784,0.783999 -1.96,0.783999 -1.176,0 -1.96,-0.783999 -0.784,-0.784 -0.784,-1.959999 z"
         style="fill:#ebaf60"
         id="path22123" />
    </g>
    <g
       aria-label="já"
       transform="matrix(0.26458333,0,0,0.26458333,-20.637507,-14.81667)"
       id="text2763"
       style="font-size:65.3333px;line-height:0;font-family:Uiua386;-inkscape-font-specification:Uiua386;text-align:center;letter-spacing:-7.2px;text-anchor:middle;white-space:pre;shape-inside:url(#rect2765);fill:#ebaf60;stroke-width:2.64567;stroke-linecap:round;stroke-linejoin:round;stroke-dasharray:2.64567, 5.29134">
      <path
         d="m 217.47491,104.82114 q -1.176,-1.176 -1.176,-2.80933 0,-1.63333 1.176,-2.809334 1.176,-1.175999 2.80933,-1.175999 1.63333,0 2.80933,1.175999 1.176,1.176004 1.176,2.809334 0,1.63333 -1.176,2.80933 -1.176,1.176 -2.80933,1.176 -1.63333,0 -2.80933,-1.176 z m -5.292,11.75999 q -1.176,0 -1.96,-0.784 -0.784,-0.784 -0.784,-1.96 0,-1.17599 0.784,-1.95999 0.784,-0.784 1.89467,-0.784 l 9.86533,-0.13067 q 1.176,0 1.96,0.784 0.784,0.784 0.784,1.96 v 28.48532 q -0.0653,4.50799 -1.96,7.18666 -2.22134,3.20133 -6.01067,4.24666 -2.87466,0.71867 -9.27733,0.784 -1.17599,0 -1.95999,-0.784 -0.784,-0.784 -0.784,-1.96 0,-1.17599 0.784,-1.95999 0.784,-0.784 1.95999,-0.784 5.61867,-0.0653 7.84,-0.65334 1.82933,-0.52266 2.94,-2.09066 0.91467,-1.30667 0.91467,-3.98533 V 116.5158 Z"
         id="path22110" />
      <path
         d="m 244.05225,105.73581 q -1.11067,0 -1.89467,-0.784 -0.784,-0.784 -0.784,-1.96 0,-1.24134 0.84934,-2.02533 l 8.49333,-7.84 q 0.784,-0.718667 1.89466,-0.718667 1.176,0 1.96,0.784 0.784,0.783999 0.784,1.959999 0,1.241332 -0.84933,2.025332 l -8.49333,7.839996 q -0.784,0.71867 -1.96,0.71867 z m 16.33332,29.26931 q 0,1.764 0.32667,2.41734 0.52267,0.26133 0.91467,0.588 0.784,0.84933 0.784,2.02533 0,1.11066 -0.84934,1.96 -0.784,0.784 -1.82933,0.784 -0.45733,0 -0.98,-0.196 -1.11066,-0.32667 -2.02533,-1.24134 -0.392,-0.392 -0.71867,-0.91466 -2.28666,0.91466 -5.55333,1.63333 -2.744,0.52267 -4.76933,0.52267 -3.136,0 -5.35733,-0.84934 -2.22133,-0.84933 -3.65866,-2.22133 -2.548,-2.61333 -2.548,-6.79466 0,-3.78933 2.61333,-6.33733 1.96,-2.02533 5.42266,-3.136 2.94,-0.98 6.33733,-0.98 2.156,0 6.33733,1.04533 v -2.28666 q 0,-1.764 -0.91466,-2.67867 -0.392,-0.32666 -0.91467,-0.65333 -1.82933,-0.98 -3.78933,-0.98 -1.89467,0 -4.83466,0.392 -2.87467,0.392 -5.16133,1.24133 -0.52267,0.196 -1.04534,0.196 -1.04533,0 -1.89466,-0.784 -0.784,-0.84933 -0.784,-2.02533 0,-1.176 0.784,-1.96 0.45733,-0.45733 1.04533,-0.65333 2.87467,-0.98 6.20666,-1.43733 3.39733,-0.52267 5.55333,-0.52267 3.528,0 6.59867,1.69867 1.24133,0.65333 2.156,1.56799 2.54799,2.548 2.54799,6.59867 z m -5.55333,-6.01066 q -4.50799,-1.176 -6.33733,-1.176 -2.48266,0 -4.63866,0.71867 -2.156,0.71866 -3.20133,1.764 -0.98,0.98 -0.98,2.41733 0,1.89466 0.91466,2.87466 0.588,0.52267 1.764,0.98 1.24134,0.45734 3.00534,0.45734 1.76399,0 4.24666,-0.45734 2.48267,-0.52266 3.98533,-1.176 0.71867,-0.26133 1.24133,-0.52266 z"
         id="path22112" />
    </g>
    <path
       id="rect2823"
       style="fill:#eba860;fill-opacity:0.426699;stroke:#e69844;stroke-width:0.7;stroke-linecap:round;stroke-linejoin:round;stroke-dasharray:0.7, 1.4"
       d="M 31.342873,6.370172 H 51.713934 V 29.313913 H 31.342873 Z" />
    <g
       aria-label="✀"
       transform="matrix(0.07241529,0.03773988,-0.03773988,0.07241529,28.243727,-7.5770136)"
       id="text17021"
       style="font-size:65.3333px;line-height:0;font-family:Uiua386;-inkscape-font-specification:Uiua386;text-align:center;text-anchor:middle;white-space:pre;shape-inside:url(#rect17023);fill:#8c6a48;fill-opacity:0.979865;stroke-width:2.64567;stroke-linecap:round;stroke-linejoin:round;stroke-dasharray:2.64567, 5.29134">
      <path
         d="m 121.62498,120.13443 c -1.65511,0 -3.07066,0.56622 -4.24666,1.69867 -1.13245,1.08889 -1.69867,2.43911 -1.69867,4.05066 0,1.65511 0.56622,3.04889 1.69867,4.18133 1.176,1.13245 2.56978,1.69867 4.18133,1.69867 1.61155,0 2.98355,-0.56622 4.116,-1.69867 1.13244,-1.13244 1.69866,-2.50444 1.69866,-4.11599 0,-1.568 -0.56622,-2.91822 -1.69866,-4.05067 -1.13245,-1.176 -2.48267,-1.764 -4.05067,-1.764 z m -0.0653,-26.72132 c -1.65511,0 -3.04888,0.56622 -4.18133,1.69867 -1.13245,1.08889 -1.69867,2.43911 -1.69867,4.05066 0,1.61156 0.56622,3.00534 1.69867,4.18134 1.13245,1.13244 2.50445,1.69866 4.116,1.69866 1.61155,0 2.98355,-0.56622 4.116,-1.69866 1.13244,-1.13245 1.69866,-2.50445 1.69866,-4.116 0,-1.568 -0.56622,-2.91822 -1.69866,-4.05067 -1.13245,-1.176 -2.48267,-1.764 -4.05067,-1.764 z m 20.97199,16.52933 c -0.56622,-0.65333 -1.26311,-0.98 -2.09067,-0.98 -0.82755,0 -1.52444,0.32667 -2.09066,0.98 -0.56622,0.65333 -0.84933,1.45911 -0.84933,2.41733 0,0.91467 0.28311,1.69867 0.84933,2.352 0.56622,0.65333 1.24133,0.98 2.02533,0.98 0.82755,0 1.52444,-0.32667 2.09067,-0.98 0.60977,-0.69689 0.91466,-1.52444 0.91466,-2.48267 0,-0.91466 -0.28311,-1.67688 -0.84933,-2.28666 z m -1.96,0.45733 c 0.43555,0 0.80578,0.15245 1.11067,0.45734 0.30489,0.30489 0.45733,0.69688 0.45733,1.17599 0,0.56623 -0.17422,1.06712 -0.52267,1.50267 -0.34844,0.392 -0.74044,0.588 -1.176,0.588 -0.47911,0 -0.87111,-0.17422 -1.176,-0.52267 -0.30489,-0.392 -0.45733,-0.84933 -0.45733,-1.372 0,-0.56622 0.15244,-1.00177 0.45733,-1.30666 0.34845,-0.34845 0.784,-0.52267 1.30667,-0.52267 z m -9.34266,-5.87999 c 1.08889,0 2.24311,-0.13067 3.46266,-0.392 1.21956,-0.30489 1.93823,-0.45734 2.156,-0.45734 0.82756,0 1.96,0.588 3.39733,1.764 l 10.584,-6.20666 c 4.31199,-2.48267 8.07955,-3.724 11.30266,-3.724 1.82933,0 3.44089,0.34844 4.83466,1.04533 1.39378,0.69689 2.89645,1.89467 4.508,3.59333 l -21.23332,12.67466 8.88844,2.43261 -11.58109,6.15767 -7.30335,-2.64495 -3.13599,1.96 c -0.26133,0.13067 -0.56622,0.196 -0.91467,0.196 -0.21778,0 -0.89289,-0.0871 -2.02533,-0.26133 -1.08889,-0.21778 -1.96,-0.32667 -2.61333,-0.32667 -0.60978,0 -1.35023,0.13067 -2.22134,0.392 1.30667,1.91645 1.96,3.81111 1.96,5.684 0,2.52622 -0.89289,4.61689 -2.67866,6.272 -1.78578,1.65511 -4.05067,2.48266 -6.79467,2.48266 -2.87466,0 -5.20488,-0.87111 -6.99066,-2.61333 -1.74222,-1.78578 -2.61333,-4.13778 -2.61333,-7.056 0,-3.61511 1.39378,-6.31555 4.18133,-8.10133 1.52445,-0.91466 3.61511,-1.48088 6.272,-1.69866 2.70044,-0.21778 4.89999,-0.45734 6.59866,-0.71867 1.69867,-0.30489 2.548,-1.08889 2.548,-2.352 0,-1.26311 -0.91467,-2.02533 -2.744,-2.28666 -1.78578,-0.26133 -4.07245,-0.52267 -6.86,-0.784 -2.78755,-0.26133 -4.94355,-0.93644 -6.46799,-2.02533 -2.48267,-1.82933 -3.724,-4.46444 -3.724,-7.90533 0,-2.87467 0.87111,-5.18311 2.61333,-6.92533 1.78578,-1.78578 4.116,-2.678667 6.99066,-2.678667 2.65689,0 4.92178,0.849337 6.79467,2.547997 1.91644,1.69867 2.87466,3.74578 2.87466,6.14133 0,1.61155 -0.65333,3.44089 -1.96,5.488 0.60978,0.21778 1.24134,0.32667 1.89467,0.32667 z"
         id="path19047" />
    </g>
  </g>
</svg>
