<?xml version="1.0" encoding="UTF-8" standalone="no"?>
<!-- Created with Inkscape (http://www.inkscape.org/) -->

<svg
   width="40.0px"
   height="40.0px"
   viewBox="0 0 40.0 40.0"
   version="1.1"
   id="SVGRoot"
   xmlns="http://www.w3.org/2000/svg"
   xmlns:svg="http://www.w3.org/2000/svg">
  <defs
     id="defs291" />
  <g
     id="layer1">
    <g
       aria-label="~"
       transform="matrix(3.2059716,-0.45159917,0.45159917,3.2059716,-280.14784,-104.9219)"
       id="text11416"
       style="font-size:14.1111px;line-height:0;font-family:Uiua386Color;-inkscape-font-specification:Uiua386Color;text-align:center;text-anchor:middle;fill:#c861eb;stroke-width:0.499999;stroke-linejoin:round">
      <g
         aria-label="◌"
         transform="matrix(0.26071672,0.03672505,-0.03672505,0.26071672,73.113481,15.918248)"
         id="text8748-3"
         style="font-size:53.3333px;line-height:0;font-family:'Iosevka Term';-inkscape-font-specification:'Iosevka Term';text-align:center;white-space:pre;shape-inside:url(#rect8750-6);display:inline;fill:#6161eb;stroke-width:1.88976;stroke-linejoin:round">
        <path
           d="m 77.841027,126.33841 q -0.96,0 -1.599999,-0.63999 -0.64,-0.64 -0.64,-1.6 0,-0.96 0.64,-1.6 0.639999,-0.64 1.599999,-0.64 0.959999,0 1.599999,0.64 0.639999,0.64 0.639999,1.6 0,0.96 -0.639999,1.6 -0.64,0.63999 -1.599999,0.63999 z m 3.359998,8.10667 q -0.96,0 -1.599999,-0.64 -0.64,-0.64 -0.64,-1.6 0,-0.96 0.64,-1.6 0.639999,-0.64 1.599999,-0.64 0.959999,0 1.599999,0.64 0.639999,0.64 0.639999,1.6 0,0.96 -0.639999,1.6 -0.64,0.64 -1.599999,0.64 z m -3.359998,8.10666 q -0.96,0 -1.599999,-0.64 -0.64,-0.64 -0.64,-1.6 0,-0.96 0.64,-1.6 0.639999,-0.64 1.599999,-0.64 0.959999,0 1.599999,0.64 0.639999,0.64 0.639999,1.6 0,0.96 -0.639999,1.6 -0.64,0.64 -1.599999,0.64 z m -8.106662,3.30666 q -0.96,0 -1.599999,-0.64 -0.64,-0.64 -0.64,-1.6 0,-0.95999 0.64,-1.59999 0.639999,-0.64 1.599999,-0.64 0.959999,0 1.599999,0.64 0.639999,0.64 0.639999,1.59999 0,0.96 -0.639999,1.6 -0.64,0.64 -1.599999,0.64 z m -8.106662,-3.30666 q -0.959999,0 -1.599999,-0.64 -0.64,-0.64 -0.64,-1.6 0,-0.96 0.64,-1.6 0.64,-0.64 1.599999,-0.64 0.959999,0 1.599999,0.64 0.64,0.64 0.64,1.6 0,0.96 -0.64,1.6 -0.64,0.64 -1.599999,0.64 z m -3.359998,-8.10666 q -0.959999,0 -1.599999,-0.64 -0.64,-0.64 -0.64,-1.6 0,-0.96 0.64,-1.6 0.64,-0.64 1.599999,-0.64 0.959999,0 1.599999,0.64 0.64,0.64 0.64,1.6 0,0.96 -0.64,1.6 -0.64,0.64 -1.599999,0.64 z m 3.359998,-8.10667 q -0.959999,0 -1.599999,-0.63999 -0.64,-0.64 -0.64,-1.6 0,-0.96 0.64,-1.6 0.64,-0.64 1.599999,-0.64 0.959999,0 1.599999,0.64 0.64,0.64 0.64,1.6 0,0.96 -0.64,1.6 -0.64,0.63999 -1.599999,0.63999 z m 8.106662,-3.35999 q -0.96,0 -1.599999,-0.64 -0.64,-0.64 -0.64,-1.6 0,-0.96 0.64,-1.6 0.639999,-0.64 1.599999,-0.64 0.959999,0 1.599999,0.64 0.639999,0.64 0.639999,1.6 0,0.96 -0.639999,1.6 -0.64,0.64 -1.599999,0.64 z"
           style="font-family:Uiua386Color;-inkscape-font-specification:Uiua386Color;fill:#ebaf61"
           id="path359" />
      </g>
      <g
         aria-label="´"
         transform="matrix(0.25392518,0.06959842,-0.06959842,0.25392518,40.787671,5.326063)"
         id="text11307"
         style="font-size:53.3333px;line-height:0;font-family:Uiua386Color;-inkscape-font-specification:Uiua386Color;text-align:center;white-space:pre;shape-inside:url(#rect11309);display:inline;fill:#ebaf61;stroke-width:1.88976;stroke-linejoin:round">
        <path
           d="m 208.4291,113.09526 q -0.6547,0.60433 -1.56121,0.60433 -0.85613,0 -1.51083,-0.60433 -0.60434,-0.60434 -0.60434,-1.51084 0,-0.90649 0.60434,-1.51083 l 10.82766,-10.827662 q 0.6547,-0.604335 1.51084,-0.604335 0.9065,0 1.51083,0.604335 0.65471,0.604335 0.65471,1.510842 0,0.90649 -0.60434,1.51082 z"
           id="path353"
           style="stroke-width:1.78445" />
      </g>
    </g>
  </g>
</svg>
