<?xml version="1.0" encoding="UTF-8" standalone="no"?>
<!-- Created with Inkscape (http://www.inkscape.org/) -->

<svg
   width="107mm"
   height="88mm"
   viewBox="0 0 107 88"
   version="1.1"
   id="svg5"
   sodipodi:docname="tone.svg"
   inkscape:version="1.2.2 (b0a8486541, 2022-12-01)"
   xmlns:inkscape="http://www.inkscape.org/namespaces/inkscape"
   xmlns:sodipodi="http://sodipodi.sourceforge.net/DTD/sodipodi-0.dtd"
   xmlns:xlink="http://www.w3.org/1999/xlink"
   xmlns="http://www.w3.org/2000/svg"
   xmlns:svg="http://www.w3.org/2000/svg">
  <sodipodi:namedview
     id="namedview62"
     pagecolor="#ffffff"
     bordercolor="#000000"
     borderopacity="0.25"
     inkscape:showpageshadow="2"
     inkscape:pageopacity="0.0"
     inkscape:pagecheckerboard="0"
     inkscape:deskcolor="#d1d1d1"
     inkscape:document-units="mm"
     showgrid="false"
     inkscape:zoom="5.0391098"
     inkscape:cx="284.2764"
     inkscape:cy="66.479996"
     inkscape:window-width="1920"
     inkscape:window-height="1008"
     inkscape:window-x="0"
     inkscape:window-y="0"
     inkscape:window-maximized="1"
     inkscape:current-layer="layer1" />
  <defs
     id="defs2">
    <rect
       x="408.33344"
       y="192.48062"
       width="48.766705"
       height="73.572197"
       id="rect12622" />
    <linearGradient
       id="linearGradient12434">
      <stop
         style="stop-color:#61ddeb;stop-opacity:1;"
         offset="0"
         id="stop12430" />
      <stop
         style="stop-color:#61ddeb;stop-opacity:0;"
         offset="1"
         id="stop12432" />
    </linearGradient>
    <rect
       x="113.60289"
       y="308.05475"
       width="69.875381"
       height="58.764446"
       id="rect12403" />
    <rect
       x="155.34097"
       y="120.58346"
       width="114.19288"
       height="80.250252"
       id="rect11309" />
    <rect
       x="41.066566"
       y="132.20586"
       width="57.335777"
       height="25.964167"
       id="rect8750" />
    <rect
       x="46.933075"
       y="123.87558"
       width="85.093185"
       height="45.775604"
       id="rect8005" />
    <rect
       x="56.008396"
       y="181.35674"
       width="25.486855"
       height="18.242979"
       id="rect5191" />
    <rect
       x="310.71426"
       y="85.379036"
       width="35.910156"
       height="15.709847"
       id="rect2131" />
    <rect
       x="41.066566"
       y="132.20586"
       width="57.335777"
       height="25.964167"
       id="rect8750-6" />
    <rect
       x="41.066566"
       y="132.20586"
       width="57.335777"
       height="25.964167"
       id="rect8750-6-1" />
    <rect
       x="41.066566"
       y="132.20586"
       width="57.335777"
       height="25.964167"
       id="rect8750-5" />
    <rect
       x="41.066566"
       y="132.20586"
       width="57.335777"
       height="25.964167"
       id="rect8750-5-1" />
    <radialGradient
       xlink:href="#linearGradient12434"
       id="radialGradient12436"
       cx="148.54102"
       cy="296.58804"
       fx="148.54102"
       fy="296.58804"
       r="13.706658"
       gradientTransform="matrix(1,0,0,0.16342412,0,248.11839)"
       gradientUnits="userSpaceOnUse" />
    <rect
       x="41.066566"
       y="132.20586"
       width="57.335777"
       height="25.964167"
       id="rect8750-5-8" />
    <rect
       x="155.34097"
       y="120.58346"
       width="114.19288"
       height="80.250252"
       id="rect11309-6" />
  </defs>
  <g
     id="layer1">
    <path
       id="rect254"
       style="fill:#999999;stroke-width:500;stroke-linecap:round;stroke-linejoin:round;stroke-dasharray:none"
       d="M 3.8762492,3.9976888 V 30.429667 h 0.6159831 v -0.0078 H 30.311328 V 29.805933 H 4.4922323 V 3.9976888 Z" />
    <path
       id="rect254-5"
       style="fill:#999999;stroke-width:10.5833;stroke-linecap:round;stroke-linejoin:round"
       d="M 39.851415,4.0288883 V 30.460867 h 0.615983 v -0.0078 H 66.286497 V 29.837133 H 40.467398 V 4.0288883 Z" />
    <path
       id="rect254-3-4"
       style="fill:#999999;stroke-width:10.5833;stroke-linecap:round;stroke-linejoin:round"
       d="m 39.839327,44.006468 v 26.43198 h 0.615983 v -0.0078 H 66.274413 V 69.814714 H 40.45531 V 44.006468 Z" />
    <path
       id="rect254-3"
       style="fill:#999999;stroke-width:10.5833;stroke-linecap:round;stroke-linejoin:round"
       d="M 76.824664,4.1241033 V 30.556082 h 0.615983 v -0.0078 H 103.25975 V 29.932348 H 77.440647 V 4.1241033 Z" />
    <path
       id="rect254-3-44"
       style="fill:#999999;stroke-width:10.5833;stroke-linecap:round;stroke-linejoin:round"
       d="m 77.021669,44.04764 v 26.431982 h 0.615983 v -0.0078 H 103.45677 V 69.855888 H 77.637652 V 44.04764 Z" />
    <path
       id="rect254-3-8"
       style="fill:#999999;stroke-width:10.5833;stroke-linecap:round;stroke-linejoin:round"
       d="m 3.7307414,43.778763 v 26.431979 h 0.615983 v -0.0078 H 30.165825 V 69.587008 H 4.3467244 V 43.778763 Z" />
    <path
       style="fill:#f2f2f2;fill-opacity:1;stroke:#5f60ea;stroke-width:0.8;stroke-linecap:butt;stroke-linejoin:round;stroke-dasharray:none;stroke-opacity:1"
       d="M 7.8119456,5.394907 27.993295,20.56085"
       id="path663" />
    <path
       style="fill:#f2f2f2;stroke:#eaad5f;stroke-width:0.8;stroke-linecap:butt;stroke-linejoin:round;stroke-dasharray:none;stroke-opacity:1"
       d="M 63.722422,5.558353 45.106923,23.11767"
       id="path663-5" />
    <path
       style="fill:#000000;stroke:#c85fea;stroke-width:0.8;stroke-linecap:butt;stroke-linejoin:round;stroke-dasharray:none;stroke-opacity:1"
       d="M 101.73107,18.475876 79.890389,26.550665"
       id="path1535" />
    <g
       aria-label="~"
       transform="matrix(0.48783319,-0.09766133,0.0907168,0.4531442,-78.277335,13.607002)"
       id="text2129"
       style="font-size:11.3333px;line-height:0;font-family:'Nimbus Sans L';-inkscape-font-specification:'Nimbus Sans L';text-align:center;white-space:pre;shape-inside:url(#rect2131);display:inline;fill:#c861ea;stroke:#c75fea;stroke-width:0.625654;stroke-linejoin:round">
      <path
         d="m 326.57326,85.718905 q -0.136,0.136 -0.34,0.136 -0.204,0 -0.34,-0.136 -0.136,-0.135999 -0.136,-0.339999 0,-0.203999 0.136,-0.339999 0.748,-0.747998 1.55266,-0.747998 0.816,0 1.564,0.747998 0.46466,0.464666 0.87266,0.464666 0.41933,0 0.884,-0.464666 0.136,-0.135999 0.34,-0.135999 0.204,0 0.34,0.135999 0.136,0.136 0.136,0.339999 0,0.204 -0.136,0.339999 -0.748,0.747998 -1.564,0.747998 -0.80466,0 -1.55266,-0.747998 -0.46466,-0.464665 -0.884,-0.464665 -0.408,0 -0.87266,0.464665 z"
         style="font-family:Uiua386Color;-inkscape-font-specification:Uiua386Color"
         id="path375" />
    </g>
    <path
       style="fill:none;fill-opacity:1;stroke:#5fea70;stroke-width:0.8;stroke-linecap:butt;stroke-linejoin:round;stroke-dasharray:none;stroke-dashoffset:0;stroke-opacity:1"
       d="M 6.6681899,58.08438 14.407502,53.670021"
       id="path3731" />
    <path
       style="fill:none;fill-opacity:1;stroke:#5fea70;stroke-width:0.8;stroke-linecap:butt;stroke-linejoin:round;stroke-dasharray:none;stroke-dashoffset:0;stroke-opacity:1"
       d="m 18.029211,51.541271 11.007537,-6.44109"
       id="path3731-0" />
    <g
       aria-label="ʔ"
       transform="matrix(0.3308915,0,0,0.3308915,-6.5219146,-7.0056664)"
       id="text5189"
       style="font-size:11.3333px;line-height:0;font-family:Uiua386Color;-inkscape-font-specification:Uiua386Color;text-align:center;white-space:pre;shape-inside:url(#rect5191);display:inline;fill:#61ea71;stroke:#5fea70;stroke-width:0.755906;stroke-linejoin:round">
      <path
         d="m 68.309954,184.75741 v -1.76799 q 0,-0.29467 0.02267,-0.58933 0.034,-0.306 0.124666,-0.58934 0.09067,-0.28333 0.249333,-0.54399 0.158666,-0.26067 0.328666,-0.49867 0.181332,-0.238 0.351332,-0.476 0.169999,-0.24933 0.305999,-0.51 0.136,-0.272 0.203999,-0.56666 0.07933,-0.29467 0.07933,-0.58933 0,-0.272 -0.068,-0.544 -0.05667,-0.272 -0.226666,-0.48733 -0.158666,-0.22667 -0.419332,-0.34 -0.249333,-0.12467 -0.521332,-0.12467 -0.260666,0 -0.509999,0.0907 -0.237999,0.0793 -0.407998,0.272 -0.17,0.19266 -0.249333,0.442 -0.068,0.24933 -0.068,0.49866 v 0.034 h -0.883997 v -0.0453 q 0,-0.28334 0.05667,-0.55533 0.068,-0.28334 0.192666,-0.52134 0.136,-0.24933 0.328666,-0.45333 0.203999,-0.204 0.453332,-0.32866 0.249333,-0.12467 0.521332,-0.17 0.283332,-0.0567 0.566665,-0.0567 0.294666,0 0.577998,0.068 0.294666,0.0567 0.543998,0.204 0.260666,0.14733 0.453332,0.374 0.192667,0.22666 0.306,0.49866 0.124666,0.26067 0.181332,0.55534 0.05667,0.28333 0.05667,0.57799 0,0.29467 -0.05667,0.58933 -0.05667,0.29467 -0.169999,0.578 -0.102,0.28334 -0.260666,0.544 -0.147333,0.24933 -0.328666,0.49867 -0.169999,0.238 -0.351332,0.48733 -0.181333,0.238 -0.305999,0.51 -0.113333,0.272 -0.158666,0.578 -0.034,0.29466 -0.034,0.58933 v 1.76799 z"
         style="font-family:'Iosevka Term';-inkscape-font-specification:'Iosevka Term'"
         id="path372" />
    </g>
    <path
       style="fill:none;fill-opacity:1;stroke:#5fdcea;stroke-width:0.8;stroke-linecap:butt;stroke-linejoin:round;stroke-dasharray:none;stroke-dashoffset:0;stroke-opacity:1"
       d="m 42.757859,55.426062 13.868726,-0.148016 c 0,0 8.255509,0.235087 8.444986,4.483695"
       id="path6264" />
    <path
       style="fill:none;fill-opacity:1;stroke:#ea5f8b;stroke-width:0.8;stroke-linecap:butt;stroke-linejoin:round;stroke-dasharray:none;stroke-dashoffset:0;stroke-opacity:1"
       d="m 80.523267,65.679083 c 0,0 4.232578,-14.127322 8.618655,-16.649454 4.969512,-2.857625 11.764708,11.522383 11.764708,11.522383"
       id="path7949" />
    <g
       transform="scale(0.26458333)"
       id="text8003"
       style="font-size:11.3333px;line-height:0;font-family:'Iosevka Term';-inkscape-font-specification:'Iosevka Term';text-align:center;white-space:pre;shape-inside:url(#rect8005);display:inline;fill:none;stroke:#ea5f5f;stroke-width:1.88976;stroke-linejoin:round" />
    <g
       aria-label="◌"
       transform="matrix(0.26458333,0,0,0.26458333,-0.74402163,4.7887269)"
       id="text8748"
       style="font-size:53.3333px;line-height:0;font-family:'Iosevka Term';-inkscape-font-specification:'Iosevka Term';text-align:center;white-space:pre;shape-inside:url(#rect8750);display:inline;fill:#6161eb;stroke-width:1.88976;stroke-linejoin:round">
      <path
         d="m 77.841027,126.33841 q -0.96,0 -1.599999,-0.63999 -0.64,-0.64 -0.64,-1.6 0,-0.96 0.64,-1.6 0.639999,-0.64 1.599999,-0.64 0.959999,0 1.599999,0.64 0.639999,0.64 0.639999,1.6 0,0.96 -0.639999,1.6 -0.64,0.63999 -1.599999,0.63999 z m 3.359998,8.10667 q -0.96,0 -1.599999,-0.64 -0.64,-0.64 -0.64,-1.6 0,-0.96 0.64,-1.6 0.639999,-0.64 1.599999,-0.64 0.959999,0 1.599999,0.64 0.639999,0.64 0.639999,1.6 0,0.96 -0.639999,1.6 -0.64,0.64 -1.599999,0.64 z m -3.359998,8.10666 q -0.96,0 -1.599999,-0.64 -0.64,-0.64 -0.64,-1.6 0,-0.96 0.64,-1.6 0.639999,-0.64 1.599999,-0.64 0.959999,0 1.599999,0.64 0.639999,0.64 0.639999,1.6 0,0.96 -0.639999,1.6 -0.64,0.64 -1.599999,0.64 z m -8.106662,3.30666 q -0.96,0 -1.599999,-0.64 -0.64,-0.64 -0.64,-1.6 0,-0.95999 0.64,-1.59999 0.639999,-0.64 1.599999,-0.64 0.959999,0 1.599999,0.64 0.639999,0.64 0.639999,1.59999 0,0.96 -0.639999,1.6 -0.64,0.64 -1.599999,0.64 z m -8.106662,-3.30666 q -0.959999,0 -1.599999,-0.64 -0.64,-0.64 -0.64,-1.6 0,-0.96 0.64,-1.6 0.64,-0.64 1.599999,-0.64 0.959999,0 1.599999,0.64 0.64,0.64 0.64,1.6 0,0.96 -0.64,1.6 -0.64,0.64 -1.599999,0.64 z m -3.359998,-8.10666 q -0.959999,0 -1.599999,-0.64 -0.64,-0.64 -0.64,-1.6 0,-0.96 0.64,-1.6 0.64,-0.64 1.599999,-0.64 0.959999,0 1.599999,0.64 0.64,0.64 0.64,1.6 0,0.96 -0.64,1.6 -0.64,0.64 -1.599999,0.64 z m 3.359998,-8.10667 q -0.959999,0 -1.599999,-0.63999 -0.64,-0.64 -0.64,-1.6 0,-0.96 0.64,-1.6 0.64,-0.64 1.599999,-0.64 0.959999,0 1.599999,0.64 0.64,0.64 0.64,1.6 0,0.96 -0.64,1.6 -0.64,0.63999 -1.599999,0.63999 z m 8.106662,-3.35999 q -0.96,0 -1.599999,-0.64 -0.64,-0.64 -0.64,-1.6 0,-0.96 0.64,-1.6 0.639999,-0.64 1.599999,-0.64 0.959999,0 1.599999,0.64 0.639999,0.64 0.639999,1.6 0,0.96 -0.639999,1.6 -0.64,0.64 -1.599999,0.64 z"
         style="font-family:Uiua386Color;-inkscape-font-specification:Uiua386Color"
         id="path368" />
    </g>
    <g
       aria-label="◌"
       transform="matrix(0.26458333,0,0,0.26458333,-1.0968428,44.227709)"
       id="text8748-9"
       style="font-size:53.3333px;line-height:0;font-family:'Iosevka Term';-inkscape-font-specification:'Iosevka Term';text-align:center;white-space:pre;shape-inside:url(#rect8750-5);display:inline;fill:#61eb71;stroke-width:1.88976;stroke-linejoin:round">
      <path
         d="m 77.841027,126.33841 q -0.96,0 -1.599999,-0.63999 -0.64,-0.64 -0.64,-1.6 0,-0.96 0.64,-1.6 0.639999,-0.64 1.599999,-0.64 0.959999,0 1.599999,0.64 0.639999,0.64 0.639999,1.6 0,0.96 -0.639999,1.6 -0.64,0.63999 -1.599999,0.63999 z m 3.359998,8.10667 q -0.96,0 -1.599999,-0.64 -0.64,-0.64 -0.64,-1.6 0,-0.96 0.64,-1.6 0.639999,-0.64 1.599999,-0.64 0.959999,0 1.599999,0.64 0.639999,0.64 0.639999,1.6 0,0.96 -0.639999,1.6 -0.64,0.64 -1.599999,0.64 z m -3.359998,8.10666 q -0.96,0 -1.599999,-0.64 -0.64,-0.64 -0.64,-1.6 0,-0.96 0.64,-1.6 0.639999,-0.64 1.599999,-0.64 0.959999,0 1.599999,0.64 0.639999,0.64 0.639999,1.6 0,0.96 -0.639999,1.6 -0.64,0.64 -1.599999,0.64 z m -8.106662,3.30666 q -0.96,0 -1.599999,-0.64 -0.64,-0.64 -0.64,-1.6 0,-0.95999 0.64,-1.59999 0.639999,-0.64 1.599999,-0.64 0.959999,0 1.599999,0.64 0.639999,0.64 0.639999,1.59999 0,0.96 -0.639999,1.6 -0.64,0.64 -1.599999,0.64 z m -8.106662,-3.30666 q -0.959999,0 -1.599999,-0.64 -0.64,-0.64 -0.64,-1.6 0,-0.96 0.64,-1.6 0.64,-0.64 1.599999,-0.64 0.959999,0 1.599999,0.64 0.64,0.64 0.64,1.6 0,0.96 -0.64,1.6 -0.64,0.64 -1.599999,0.64 z m -3.359998,-8.10666 q -0.959999,0 -1.599999,-0.64 -0.64,-0.64 -0.64,-1.6 0,-0.96 0.64,-1.6 0.64,-0.64 1.599999,-0.64 0.959999,0 1.599999,0.64 0.64,0.64 0.64,1.6 0,0.96 -0.64,1.6 -0.64,0.64 -1.599999,0.64 z m 3.359998,-8.10667 q -0.959999,0 -1.599999,-0.63999 -0.64,-0.64 -0.64,-1.6 0,-0.96 0.64,-1.6 0.64,-0.64 1.599999,-0.64 0.959999,0 1.599999,0.64 0.64,0.64 0.64,1.6 0,0.96 -0.64,1.6 -0.64,0.63999 -1.599999,0.63999 z m 8.106662,-3.35999 q -0.96,0 -1.599999,-0.64 -0.64,-0.64 -0.64,-1.6 0,-0.96 0.64,-1.6 0.639999,-0.64 1.599999,-0.64 0.959999,0 1.599999,0.64 0.639999,0.64 0.639999,1.6 0,0.96 -0.639999,1.6 -0.64,0.64 -1.599999,0.64 z"
         style="font-family:Uiua386Color;-inkscape-font-specification:Uiua386Color"
         id="path365" />
    </g>
    <g
       aria-label="◌"
       transform="matrix(0.26458333,0,0,0.26458333,35.03948,44.370524)"
       id="text8748-9-7"
       style="font-size:53.3333px;line-height:0;font-family:'Iosevka Term';-inkscape-font-specification:'Iosevka Term';text-align:center;white-space:pre;shape-inside:url(#rect8750-5-1);display:inline;fill:#61ddeb;stroke-width:1.88976;stroke-linejoin:round">
      <path
         d="m 77.841027,126.33841 q -0.96,0 -1.599999,-0.63999 -0.64,-0.64 -0.64,-1.6 0,-0.96 0.64,-1.6 0.639999,-0.64 1.599999,-0.64 0.959999,0 1.599999,0.64 0.639999,0.64 0.639999,1.6 0,0.96 -0.639999,1.6 -0.64,0.63999 -1.599999,0.63999 z m 3.359998,8.10667 q -0.96,0 -1.599999,-0.64 -0.64,-0.64 -0.64,-1.6 0,-0.96 0.64,-1.6 0.639999,-0.64 1.599999,-0.64 0.959999,0 1.599999,0.64 0.639999,0.64 0.639999,1.6 0,0.96 -0.639999,1.6 -0.64,0.64 -1.599999,0.64 z m -3.359998,8.10666 q -0.96,0 -1.599999,-0.64 -0.64,-0.64 -0.64,-1.6 0,-0.96 0.64,-1.6 0.639999,-0.64 1.599999,-0.64 0.959999,0 1.599999,0.64 0.639999,0.64 0.639999,1.6 0,0.96 -0.639999,1.6 -0.64,0.64 -1.599999,0.64 z m -8.106662,3.30666 q -0.96,0 -1.599999,-0.64 -0.64,-0.64 -0.64,-1.6 0,-0.95999 0.64,-1.59999 0.639999,-0.64 1.599999,-0.64 0.959999,0 1.599999,0.64 0.639999,0.64 0.639999,1.59999 0,0.96 -0.639999,1.6 -0.64,0.64 -1.599999,0.64 z m -8.106662,-3.30666 q -0.959999,0 -1.599999,-0.64 -0.64,-0.64 -0.64,-1.6 0,-0.96 0.64,-1.6 0.64,-0.64 1.599999,-0.64 0.959999,0 1.599999,0.64 0.64,0.64 0.64,1.6 0,0.96 -0.64,1.6 -0.64,0.64 -1.599999,0.64 z m -3.359998,-8.10666 q -0.959999,0 -1.599999,-0.64 -0.64,-0.64 -0.64,-1.6 0,-0.96 0.64,-1.6 0.64,-0.64 1.599999,-0.64 0.959999,0 1.599999,0.64 0.64,0.64 0.64,1.6 0,0.96 -0.64,1.6 -0.64,0.64 -1.599999,0.64 z m 3.359998,-8.10667 q -0.959999,0 -1.599999,-0.63999 -0.64,-0.64 -0.64,-1.6 0,-0.96 0.64,-1.6 0.64,-0.64 1.599999,-0.64 0.959999,0 1.599999,0.64 0.64,0.64 0.64,1.6 0,0.96 -0.64,1.6 -0.64,0.63999 -1.599999,0.63999 z m 8.106662,-3.35999 q -0.96,0 -1.599999,-0.64 -0.64,-0.64 -0.64,-1.6 0,-0.96 0.64,-1.6 0.639999,-0.64 1.599999,-0.64 0.959999,0 1.599999,0.64 0.639999,0.64 0.639999,1.6 0,0.96 -0.639999,1.6 -0.64,0.64 -1.599999,0.64 z"
         style="font-family:Uiua386Color;-inkscape-font-specification:Uiua386Color"
         id="path362" />
    </g>
    <g
       aria-label="◌"
       transform="matrix(0.26458333,0,0,0.26458333,36.823021,5.4194031)"
       id="text8748-3"
       style="font-size:53.3333px;line-height:0;font-family:'Iosevka Term';-inkscape-font-specification:'Iosevka Term';text-align:center;white-space:pre;shape-inside:url(#rect8750-6);display:inline;fill:#6161eb;stroke-width:1.88976;stroke-linejoin:round">
      <path
         d="m 77.841027,126.33841 q -0.96,0 -1.599999,-0.63999 -0.64,-0.64 -0.64,-1.6 0,-0.96 0.64,-1.6 0.639999,-0.64 1.599999,-0.64 0.959999,0 1.599999,0.64 0.639999,0.64 0.639999,1.6 0,0.96 -0.639999,1.6 -0.64,0.63999 -1.599999,0.63999 z m 3.359998,8.10667 q -0.96,0 -1.599999,-0.64 -0.64,-0.64 -0.64,-1.6 0,-0.96 0.64,-1.6 0.639999,-0.64 1.599999,-0.64 0.959999,0 1.599999,0.64 0.639999,0.64 0.639999,1.6 0,0.96 -0.639999,1.6 -0.64,0.64 -1.599999,0.64 z m -3.359998,8.10666 q -0.96,0 -1.599999,-0.64 -0.64,-0.64 -0.64,-1.6 0,-0.96 0.64,-1.6 0.639999,-0.64 1.599999,-0.64 0.959999,0 1.599999,0.64 0.639999,0.64 0.639999,1.6 0,0.96 -0.639999,1.6 -0.64,0.64 -1.599999,0.64 z m -8.106662,3.30666 q -0.96,0 -1.599999,-0.64 -0.64,-0.64 -0.64,-1.6 0,-0.95999 0.64,-1.59999 0.639999,-0.64 1.599999,-0.64 0.959999,0 1.599999,0.64 0.639999,0.64 0.639999,1.59999 0,0.96 -0.639999,1.6 -0.64,0.64 -1.599999,0.64 z m -8.106662,-3.30666 q -0.959999,0 -1.599999,-0.64 -0.64,-0.64 -0.64,-1.6 0,-0.96 0.64,-1.6 0.64,-0.64 1.599999,-0.64 0.959999,0 1.599999,0.64 0.64,0.64 0.64,1.6 0,0.96 -0.64,1.6 -0.64,0.64 -1.599999,0.64 z m -3.359998,-8.10666 q -0.959999,0 -1.599999,-0.64 -0.64,-0.64 -0.64,-1.6 0,-0.96 0.64,-1.6 0.64,-0.64 1.599999,-0.64 0.959999,0 1.599999,0.64 0.64,0.64 0.64,1.6 0,0.96 -0.64,1.6 -0.64,0.64 -1.599999,0.64 z m 3.359998,-8.10667 q -0.959999,0 -1.599999,-0.63999 -0.64,-0.64 -0.64,-1.6 0,-0.96 0.64,-1.6 0.64,-0.64 1.599999,-0.64 0.959999,0 1.599999,0.64 0.64,0.64 0.64,1.6 0,0.96 -0.64,1.6 -0.64,0.63999 -1.599999,0.63999 z m 8.106662,-3.35999 q -0.96,0 -1.599999,-0.64 -0.64,-0.64 -0.64,-1.6 0,-0.96 0.64,-1.6 0.639999,-0.64 1.599999,-0.64 0.959999,0 1.599999,0.64 0.639999,0.64 0.639999,1.6 0,0.96 -0.639999,1.6 -0.64,0.64 -1.599999,0.64 z"
         style="font-family:Uiua386Color;-inkscape-font-specification:Uiua386Color;fill:#ebaf61"
         id="path359" />
    </g>
    <g
       aria-label="◌"
       transform="matrix(0.26458333,0,0,0.26458333,73.366269,5.4003196)"
       id="text8748-3-7"
       style="font-size:53.3333px;line-height:0;font-family:'Iosevka Term';-inkscape-font-specification:'Iosevka Term';text-align:center;white-space:pre;shape-inside:url(#rect8750-6-1);display:inline;fill:#c861eb;stroke-width:1.88976;stroke-linejoin:round">
      <path
         d="m 77.841027,126.33841 q -0.96,0 -1.599999,-0.63999 -0.64,-0.64 -0.64,-1.6 0,-0.96 0.64,-1.6 0.639999,-0.64 1.599999,-0.64 0.959999,0 1.599999,0.64 0.639999,0.64 0.639999,1.6 0,0.96 -0.639999,1.6 -0.64,0.63999 -1.599999,0.63999 z m 3.359998,8.10667 q -0.96,0 -1.599999,-0.64 -0.64,-0.64 -0.64,-1.6 0,-0.96 0.64,-1.6 0.639999,-0.64 1.599999,-0.64 0.959999,0 1.599999,0.64 0.639999,0.64 0.639999,1.6 0,0.96 -0.639999,1.6 -0.64,0.64 -1.599999,0.64 z m -3.359998,8.10666 q -0.96,0 -1.599999,-0.64 -0.64,-0.64 -0.64,-1.6 0,-0.96 0.64,-1.6 0.639999,-0.64 1.599999,-0.64 0.959999,0 1.599999,0.64 0.639999,0.64 0.639999,1.6 0,0.96 -0.639999,1.6 -0.64,0.64 -1.599999,0.64 z m -8.106662,3.30666 q -0.96,0 -1.599999,-0.64 -0.64,-0.64 -0.64,-1.6 0,-0.95999 0.64,-1.59999 0.639999,-0.64 1.599999,-0.64 0.959999,0 1.599999,0.64 0.639999,0.64 0.639999,1.59999 0,0.96 -0.639999,1.6 -0.64,0.64 -1.599999,0.64 z m -8.106662,-3.30666 q -0.959999,0 -1.599999,-0.64 -0.64,-0.64 -0.64,-1.6 0,-0.96 0.64,-1.6 0.64,-0.64 1.599999,-0.64 0.959999,0 1.599999,0.64 0.64,0.64 0.64,1.6 0,0.96 -0.64,1.6 -0.64,0.64 -1.599999,0.64 z m -3.359998,-8.10666 q -0.959999,0 -1.599999,-0.64 -0.64,-0.64 -0.64,-1.6 0,-0.96 0.64,-1.6 0.64,-0.64 1.599999,-0.64 0.959999,0 1.599999,0.64 0.64,0.64 0.64,1.6 0,0.96 -0.64,1.6 -0.64,0.64 -1.599999,0.64 z m 3.359998,-8.10667 q -0.959999,0 -1.599999,-0.63999 -0.64,-0.64 -0.64,-1.6 0,-0.96 0.64,-1.6 0.64,-0.64 1.599999,-0.64 0.959999,0 1.599999,0.64 0.64,0.64 0.64,1.6 0,0.96 -0.64,1.6 -0.64,0.63999 -1.599999,0.63999 z m 8.106662,-3.35999 q -0.96,0 -1.599999,-0.64 -0.64,-0.64 -0.64,-1.6 0,-0.96 0.64,-1.6 0.639999,-0.64 1.599999,-0.64 0.959999,0 1.599999,0.64 0.639999,0.64 0.639999,1.6 0,0.96 -0.639999,1.6 -0.64,0.64 -1.599999,0.64 z"
         style="font-family:Uiua386Color;-inkscape-font-specification:Uiua386Color"
         id="path356" />
    </g>
    <g
       aria-label="´"
       transform="matrix(0.26243301,0.0336638,-0.0336638,0.26243301,3.171351,-0.58963422)"
       id="text11307"
       style="font-size:53.3333px;line-height:0;font-family:Uiua386Color;-inkscape-font-specification:Uiua386Color;text-align:center;white-space:pre;shape-inside:url(#rect11309);display:inline;fill:#ebaf61;stroke-width:1.88976;stroke-linejoin:round">
      <path
         d="m 208.33083,110.71732 q -0.69334,0.64 -1.65334,0.64 -0.90666,0 -1.6,-0.64 -0.64,-0.64 -0.64,-1.6 0,-0.95999 0.64,-1.59999 l 11.46666,-11.466664 q 0.69334,-0.64 1.6,-0.64 0.96,0 1.6,0.64 0.69334,0.639999 0.69334,1.599999 0,0.959999 -0.64,1.599999 z"
         id="path353" />
    </g>
    <g
       aria-label="´"
       transform="matrix(0.03540593,0.26220365,-0.26220365,0.03540593,73.188769,13.751388)"
       id="text11307-2"
       style="font-size:53.3333px;line-height:0;font-family:Uiua386Color;-inkscape-font-specification:Uiua386Color;text-align:center;white-space:pre;shape-inside:url(#rect11309-6);display:inline;fill:#61ddeb;stroke-width:1.88976;stroke-linejoin:round">
      <path
         d="m 208.33083,110.71732 q -0.69334,0.64 -1.65334,0.64 -0.90666,0 -1.6,-0.64 -0.64,-0.64 -0.64,-1.6 0,-0.95999 0.64,-1.59999 l 11.46666,-11.466664 q 0.69334,-0.64 1.6,-0.64 0.96,0 1.6,0.64 0.69334,0.639999 0.69334,1.599999 0,0.959999 -0.64,1.599999 z"
         id="path350" />
    </g>
    <g
       aria-label="~"
       transform="rotate(-8.018037,-0.26458333,3.7751785)"
       id="text11416"
       style="font-size:14.1111px;line-height:0;font-family:Uiua386Color;-inkscape-font-specification:Uiua386Color;text-align:center;text-anchor:middle;fill:#c861eb;stroke-width:0.499999;stroke-linejoin:round">
      <path
         d="m 83.852228,47.078713 q -0.169334,0.169333 -0.423333,0.169333 -0.254,0 -0.423333,-0.169333 -0.169334,-0.169333 -0.169334,-0.423333 0,-0.254 0.169334,-0.423333 0.931332,-0.931333 1.93322,-0.931333 1.016,0 1.947332,0.931333 0.578555,0.578555 1.086555,0.578555 0.522111,0 1.100666,-0.578555 0.169333,-0.169333 0.423333,-0.169333 0.253999,0 0.423333,0.169333 0.169333,0.169333 0.169333,0.423333 0,0.254 -0.169333,0.423333 -0.931333,0.931333 -1.947332,0.931333 -1.001888,0 -1.933221,-0.931333 -0.578555,-0.578555 -1.100666,-0.578555 -0.507999,0 -1.086554,0.578555 z"
         style="stroke-width:0.5"
         id="path347" />
    </g>
    <g
       aria-label="¨"
       id="text12297"
       style="font-size:14.1111px;line-height:0;font-family:Uiua386Color;-inkscape-font-specification:Uiua386Color;text-align:center;text-anchor:middle;fill:#61eb71;stroke-width:0.499999;stroke-linejoin:round">
      <path
         d="m 16.452476,73.368507 q 0,-0.197556 -0.09878,-0.381 -0.08467,-0.197555 -0.239889,-0.338666 -0.141111,-0.155223 -0.324555,-0.239889 -0.183444,-0.09878 -0.381,-0.09878 -0.352777,0 -0.705555,0.366889 -0.338666,0.352777 -0.338666,0.691444 0,0.366888 0.338666,0.705555 0.338667,0.338666 0.705555,0.338666 0.211667,0 0.395111,-0.08467 0.183444,-0.08467 0.324555,-0.225777 0.155222,-0.155222 0.239889,-0.338667 0.08467,-0.183444 0.08467,-0.39511 z m 3.97933,0 q 0,-0.197556 -0.09878,-0.381 -0.08467,-0.197555 -0.239889,-0.338666 -0.141111,-0.155223 -0.324555,-0.239889 -0.183444,-0.09878 -0.381,-0.09878 -0.352777,0 -0.705555,0.366889 -0.338666,0.352777 -0.338666,0.691444 0,0.366888 0.338666,0.705555 0.338667,0.338666 0.705555,0.338666 0.211667,0 0.395111,-0.08467 0.183445,-0.08467 0.324556,-0.225777 0.155222,-0.155222 0.239888,-0.338667 0.08467,-0.183444 0.08467,-0.39511 z"
         style="stroke-width:0.5"
         id="path344" />
    </g>
    <g
       aria-label="◌"
       transform="matrix(0.26458333,0,0,0.26458333,73.292464,44.420542)"
       id="text8748-9-5"
       style="font-size:53.3333px;line-height:0;font-family:'Iosevka Term';-inkscape-font-specification:'Iosevka Term';text-align:center;white-space:pre;shape-inside:url(#rect8750-5-8);display:inline;fill:#eb618d;stroke-width:1.88976;stroke-linejoin:round">
      <path
         d="m 77.841027,126.33841 q -0.96,0 -1.599999,-0.63999 -0.64,-0.64 -0.64,-1.6 0,-0.96 0.64,-1.6 0.639999,-0.64 1.599999,-0.64 0.959999,0 1.599999,0.64 0.639999,0.64 0.639999,1.6 0,0.96 -0.639999,1.6 -0.64,0.63999 -1.599999,0.63999 z m 3.359998,8.10667 q -0.96,0 -1.599999,-0.64 -0.64,-0.64 -0.64,-1.6 0,-0.96 0.64,-1.6 0.639999,-0.64 1.599999,-0.64 0.959999,0 1.599999,0.64 0.639999,0.64 0.639999,1.6 0,0.96 -0.639999,1.6 -0.64,0.64 -1.599999,0.64 z m -3.359998,8.10666 q -0.96,0 -1.599999,-0.64 -0.64,-0.64 -0.64,-1.6 0,-0.96 0.64,-1.6 0.639999,-0.64 1.599999,-0.64 0.959999,0 1.599999,0.64 0.639999,0.64 0.639999,1.6 0,0.96 -0.639999,1.6 -0.64,0.64 -1.599999,0.64 z m -8.106662,3.30666 q -0.96,0 -1.599999,-0.64 -0.64,-0.64 -0.64,-1.6 0,-0.95999 0.64,-1.59999 0.639999,-0.64 1.599999,-0.64 0.959999,0 1.599999,0.64 0.639999,0.64 0.639999,1.59999 0,0.96 -0.639999,1.6 -0.64,0.64 -1.599999,0.64 z m -8.106662,-3.30666 q -0.959999,0 -1.599999,-0.64 -0.64,-0.64 -0.64,-1.6 0,-0.96 0.64,-1.6 0.64,-0.64 1.599999,-0.64 0.959999,0 1.599999,0.64 0.64,0.64 0.64,1.6 0,0.96 -0.64,1.6 -0.64,0.64 -1.599999,0.64 z m -3.359998,-8.10666 q -0.959999,0 -1.599999,-0.64 -0.64,-0.64 -0.64,-1.6 0,-0.96 0.64,-1.6 0.64,-0.64 1.599999,-0.64 0.959999,0 1.599999,0.64 0.64,0.64 0.64,1.6 0,0.96 -0.64,1.6 -0.64,0.64 -1.599999,0.64 z m 3.359998,-8.10667 q -0.959999,0 -1.599999,-0.63999 -0.64,-0.64 -0.64,-1.6 0,-0.96 0.64,-1.6 0.64,-0.64 1.599999,-0.64 0.959999,0 1.599999,0.64 0.64,0.64 0.64,1.6 0,0.96 -0.64,1.6 -0.64,0.63999 -1.599999,0.63999 z m 8.106662,-3.35999 q -0.96,0 -1.599999,-0.64 -0.64,-0.64 -0.64,-1.6 0,-0.96 0.64,-1.6 0.639999,-0.64 1.599999,-0.64 0.959999,0 1.599999,0.64 0.639999,0.64 0.639999,1.6 0,0.96 -0.639999,1.6 -0.64,0.64 -1.599999,0.64 z"
         style="font-family:Uiua386Color;-inkscape-font-specification:Uiua386Color"
         id="path341" />
    </g>
    <g
       aria-label=" ̂"
       transform="matrix(0.26458333,0,0,0.26458333,-30.964533,29.552626)"
       id="text12620"
       style="font-size:53.3333px;line-height:0;font-family:APL333;-inkscape-font-specification:APL333;text-align:center;white-space:pre;shape-inside:url(#rect12622);display:inline;fill:#eb618d;stroke-width:1.88976;stroke-linejoin:round">
      <path
         d="m 460.45012,170.08048 q -0.64,0.64 -1.6,0.64 -0.96,0 -1.6,-0.64 -0.64,-0.64 -0.64,-1.54666 0,-0.90667 0.53334,-1.49334 5.91999,-7.03999 5.97333,-7.09333 0.64,-0.63999 1.6,-0.63999 1.06666,0 1.76,0.79999 l 5.59999,6.93333 q 0.48,0.64 0.48,1.44 0,0.96 -0.64,1.6 -0.64,0.64 -1.6,0.64 -1.06666,0 -1.76,-0.8 l -3.89333,-4.79999 q -4.15999,4.90666 -4.21333,4.95999 z"
         style="font-family:Uiua386Color;-inkscape-font-specification:Uiua386Color"
         id="path338" />
    </g>
  </g>
</svg>
