<?xml version="1.0" encoding="UTF-8" standalone="no"?>
<!-- Created with Inkscape (http://www.inkscape.org/) -->

<svg
   width="40.0px"
   height="40.0px"
   viewBox="0 0 40.0 40.0"
   version="1.1"
   id="SVGRoot"
   sodipodi:docname="turn.svg"
   inkscape:version="1.2.2 (b0a8486541, 2022-12-01)"
   xmlns:inkscape="http://www.inkscape.org/namespaces/inkscape"
   xmlns:sodipodi="http://sodipodi.sourceforge.net/DTD/sodipodi-0.dtd"
   xmlns="http://www.w3.org/2000/svg"
   xmlns:svg="http://www.w3.org/2000/svg">
  <sodipodi:namedview
     id="namedview296"
     pagecolor="#ffffff"
     bordercolor="#000000"
     borderopacity="0.25"
     inkscape:showpageshadow="2"
     inkscape:pageopacity="0.0"
     inkscape:pagecheckerboard="0"
     inkscape:deskcolor="#d1d1d1"
     inkscape:document-units="px"
     showgrid="true"
     inkscape:zoom="11.431879"
     inkscape:cx="13.16494"
     inkscape:cy="12.683829"
     inkscape:window-width="1920"
     inkscape:window-height="1008"
     inkscape:window-x="0"
     inkscape:window-y="0"
     inkscape:window-maximized="1"
     inkscape:current-layer="text11416">
    <inkscape:grid
       type="xygrid"
       id="grid419" />
  </sodipodi:namedview>
  <defs
     id="defs291" />
  <g
     inkscape:label="Katman 1"
     inkscape:groupmode="layer"
     id="layer1">
    <g
       aria-label="~"
       transform="matrix(3.2059716,-0.45159917,0.45159917,3.2059716,-280.14784,-104.9219)"
       id="text11416"
       style="font-size:14.1111px;line-height:0;font-family:Uiua386Color;-inkscape-font-specification:Uiua386Color;text-align:center;text-anchor:middle;fill:#c861eb;stroke-width:0.499999;stroke-linejoin:round">
      <g
         aria-label="◌"
         transform="matrix(0.26211136,0.0369215,-0.0369215,0.26211136,72.772682,15.661203)"
         id="text8748-9-5"
         style="font-size:53.3333px;line-height:0;font-family:'Iosevka Term';-inkscape-font-specification:'Iosevka Term';text-align:center;white-space:pre;shape-inside:url(#rect8750-5-8);display:inline;fill:#eb618d;stroke-width:1.88976;stroke-linejoin:round">
        <path
           d="m 77.841027,126.33841 q -0.96,0 -1.599999,-0.63999 -0.64,-0.64 -0.64,-1.6 0,-0.96 0.64,-1.6 0.639999,-0.64 1.599999,-0.64 0.959999,0 1.599999,0.64 0.639999,0.64 0.639999,1.6 0,0.96 -0.639999,1.6 -0.64,0.63999 -1.599999,0.63999 z m 3.359998,8.10667 q -0.96,0 -1.599999,-0.64 -0.64,-0.64 -0.64,-1.6 0,-0.96 0.64,-1.6 0.639999,-0.64 1.599999,-0.64 0.959999,0 1.599999,0.64 0.639999,0.64 0.639999,1.6 0,0.96 -0.639999,1.6 -0.64,0.64 -1.599999,0.64 z m -3.359998,8.10666 q -0.96,0 -1.599999,-0.64 -0.64,-0.64 -0.64,-1.6 0,-0.96 0.64,-1.6 0.639999,-0.64 1.599999,-0.64 0.959999,0 1.599999,0.64 0.639999,0.64 0.639999,1.6 0,0.96 -0.639999,1.6 -0.64,0.64 -1.599999,0.64 z m -8.106662,3.30666 q -0.96,0 -1.599999,-0.64 -0.64,-0.64 -0.64,-1.6 0,-0.95999 0.64,-1.59999 0.639999,-0.64 1.599999,-0.64 0.959999,0 1.599999,0.64 0.639999,0.64 0.639999,1.59999 0,0.96 -0.639999,1.6 -0.64,0.64 -1.599999,0.64 z m -8.106662,-3.30666 q -0.959999,0 -1.599999,-0.64 -0.64,-0.64 -0.64,-1.6 0,-0.96 0.64,-1.6 0.64,-0.64 1.599999,-0.64 0.959999,0 1.599999,0.64 0.64,0.64 0.64,1.6 0,0.96 -0.64,1.6 -0.64,0.64 -1.599999,0.64 z m -3.359998,-8.10666 q -0.959999,0 -1.599999,-0.64 -0.64,-0.64 -0.64,-1.6 0,-0.96 0.64,-1.6 0.64,-0.64 1.599999,-0.64 0.959999,0 1.599999,0.64 0.64,0.64 0.64,1.6 0,0.96 -0.64,1.6 -0.64,0.64 -1.599999,0.64 z m 3.359998,-8.10667 q -0.959999,0 -1.599999,-0.63999 -0.64,-0.64 -0.64,-1.6 0,-0.96 0.64,-1.6 0.64,-0.64 1.599999,-0.64 0.959999,0 1.599999,0.64 0.64,0.64 0.64,1.6 0,0.96 -0.64,1.6 -0.64,0.63999 -1.599999,0.63999 z m 8.106662,-3.35999 q -0.96,0 -1.599999,-0.64 -0.64,-0.64 -0.64,-1.6 0,-0.96 0.64,-1.6 0.639999,-0.64 1.599999,-0.64 0.959999,0 1.599999,0.64 0.639999,0.64 0.639999,1.6 0,0.96 -0.639999,1.6 -0.64,0.64 -1.599999,0.64 z"
           style="font-family:Uiua386Color;-inkscape-font-specification:Uiua386Color"
           id="path341" />
      </g>
      <g
         aria-label=" ̂"
         transform="matrix(0.26211136,0.0369215,-0.0369215,0.26211136,-28.668733,-13.649286)"
         id="text12620"
         style="font-size:53.3333px;line-height:0;font-family:APL333;-inkscape-font-specification:APL333;text-align:center;white-space:pre;shape-inside:url(#rect12622);display:inline;fill:#eb618d;stroke-width:1.88976;stroke-linejoin:round">
        <path
           d="m 460.45012,170.08048 q -0.64,0.64 -1.6,0.64 -0.96,0 -1.6,-0.64 -0.64,-0.64 -0.64,-1.54666 0,-0.90667 0.53334,-1.49334 5.91999,-7.03999 5.97333,-7.09333 0.64,-0.63999 1.6,-0.63999 1.06666,0 1.76,0.79999 l 5.59999,6.93333 q 0.48,0.64 0.48,1.44 0,0.96 -0.64,1.6 -0.64,0.64 -1.6,0.64 -1.06666,0 -1.76,-0.8 l -3.89333,-4.79999 q -4.15999,4.90666 -4.21333,4.95999 z"
           style="font-family:Uiua386Color;-inkscape-font-specification:Uiua386Color"
           id="path338" />
      </g>
    </g>
  </g>
</svg>
