<?xml version="1.0" encoding="UTF-8" standalone="no"?>
<!-- Created with Inkscape (http://www.inkscape.org/) -->

<svg
   width="201mm"
   height="118mm"
   viewBox="0 0 201 118"
   version="1.1"
   id="svg5"
   xmlns="http://www.w3.org/2000/svg"
   xmlns:svg="http://www.w3.org/2000/svg">
  <defs
     id="defs2">
    <rect
       x="216.842"
       y="88.347946"
       width="83.23278"
       height="66.652908"
       id="rect8530" />
    <rect
       x="96.101341"
       y="92.343094"
       width="271.63165"
       height="370.85809"
       id="rect6790" />
    <rect
       x="226.83022"
       y="27.368559"
       width="486.1185"
       height="101.23308"
       id="rect4126" />
    <rect
       x="27.948473"
       y="27.940496"
       width="315.97739"
       height="139.88478"
       id="rect236" />
    <rect
       x="27.948473"
       y="27.940496"
       width="315.97739"
       height="139.88478"
       id="rect236-3" />
    <rect
       x="226.83022"
       y="27.368559"
       width="486.1185"
       height="101.23308"
       id="rect4126-7" />
    <rect
       x="27.948473"
       y="27.940496"
       width="325.38458"
       height="218.44351"
       id="rect236-7" />
    <rect
       x="226.83022"
       y="27.368559"
       width="788.6189"
       height="104.84503"
       id="rect4126-7-2" />
  </defs>
  <g
     id="layer1">
    <g
       aria-label="ren"
       transform="matrix(0.26458333,0,0,0.26458333,-27.891806,8.0675959)"
       id="text234"
       style="font-size:65.3333px;line-height:0;font-family:Uiua386;-inkscape-font-specification:Uiua386;text-align:center;letter-spacing:-7.2px;text-anchor:middle;white-space:pre;shape-inside:url(#rect236);display:inline;fill:#6161eb;stroke-width:0.5;stroke-linecap:round;stroke-linejoin:round">
      <path
         d="m 147.20815,45.25473 q 0,1.176 -0.784,1.959999 -0.784,0.784 -1.95999,0.784 -1.176,0 -1.96,-0.784 -0.784,-0.783999 -0.784,-1.959999 V 31.992071 18.794745 q 0,-1.176 0.784,-1.959999 0.784,-0.784 1.96,-0.784 1.17599,0 1.95999,0.784 0.784,0.783999 0.784,1.959999 v 0.457333 q 3.65867,-3.201332 8.428,-3.201332 5.81466,0 9.93066,4.899997 0.588,0.784 0.588,1.763999 0,1.176 -0.784,1.959999 -0.784,0.784 -1.96,0.784 -1.30666,0 -2.156,-0.98 -2.41733,-2.874665 -5.61866,-2.874665 -3.332,0 -5.88,3.005332 -2.548,3.005332 -2.548,7.382663 z"
         id="path13420" />
      <path
         d="m 195.47615,40.681399 q 1.176,0 1.96,0.849333 0.784,0.784 0.784,1.959999 0,1.437333 -1.11067,2.221332 -3.00533,2.221332 -9.01599,2.221332 -10.06133,0 -13.98133,-5.879996 -2.61333,-3.789332 -2.61333,-9.995995 0,-0.130667 0,-0.196 0,-0.06533 0,-0.06533 0,-0.06533 0,-0.130667 0.13067,-7.709329 4.44266,-12.021327 3.724,-3.789331 9.996,-3.789331 6.79466,0 10.25733,4.573331 3.00533,3.985331 3.00533,11.237327 0,0.06533 0,0.130667 0,1.175999 -0.84934,1.959999 -0.784,0.783999 -1.89466,0.783999 h -19.27332 q 0.45733,3.527998 2.22133,5.291997 2.548,2.547999 8.68933,2.547999 2.48266,0 3.78933,-0.326666 1.372,-0.392 2.02533,-0.849333 0.65333,-0.522667 1.568,-0.522667 z m -9.53866,-19.273323 q -4.312,0 -6.468,2.482666 -1.69866,2.025332 -2.156,5.16133 h 16.20266 q -0.45733,-4.050664 -2.28667,-5.814663 -1.76399,-1.829333 -5.29199,-1.829333 z"
         id="path13422" />
      <path
         d="m 210.22816,18.990744 q 3.39733,-2.939998 7.77466,-2.939998 5.61867,0 9.47333,4.965331 3.65867,4.573331 3.65867,10.975994 V 45.25473 q 0,1.176 -0.784,1.959999 -0.784,0.784 -1.96,0.784 -1.176,0 -1.96,-0.784 -0.784,-0.783999 -0.784,-1.959999 V 31.992071 q 0,-5.226664 -3.332,-8.493329 -1.89466,-1.894666 -4.312,-1.894666 -3.00533,0 -5.29199,2.809332 -2.48267,3.135998 -2.48267,7.578663 V 45.25473 q 0,1.176 -0.784,1.959999 -0.784,0.784 -1.96,0.784 -1.176,0 -1.96,-0.784 -0.78399,-0.783999 -0.78399,-1.959999 V 31.992071 18.794745 q 0,-1.176 0.78399,-1.959999 0.784,-0.784 1.96,-0.784 1.176,0 1.96,0.784 0.784,0.783999 0.784,1.959999 z"
         id="path13424" />
    </g>
    <g
       aria-label="ren
gì"
       transform="matrix(0.26458333,0,0,0.26458333,-28.874148,67.199064)"
       id="text234-9"
       style="font-size:65.3333px;line-height:0.9;font-family:Uiua386;-inkscape-font-specification:Uiua386;text-align:center;letter-spacing:-7.2px;white-space:pre;shape-inside:url(#rect236-7);display:inline;fill:#6161eb;stroke-width:0.5;stroke-linecap:round;stroke-linejoin:round">
      <path
         d="m 151.91226,74.654713 q 0,1.176 -0.784,1.959999 -0.784,0.784 -1.96,0.784 -1.176,0 -1.96,-0.784 -0.784,-0.783999 -0.784,-1.959999 V 61.392054 48.194728 q 0,-1.176 0.784,-1.959999 0.784,-0.784 1.96,-0.784 1.176,0 1.96,0.784 0.784,0.783999 0.784,1.959999 v 0.457333 q 3.65866,-3.201332 8.42799,-3.201332 5.81466,0 9.93066,4.899998 0.588,0.783999 0.588,1.763999 0,1.175999 -0.784,1.959999 -0.784,0.783999 -1.96,0.783999 -1.30666,0 -2.156,-0.979999 -2.41733,-2.874665 -5.61866,-2.874665 -3.332,0 -5.88,3.005331 -2.54799,3.005332 -2.54799,7.382663 z"
         id="path13409" />
      <path
         d="m 200.18025,70.081383 q 1.176,0 1.96,0.849332 0.784,0.784 0.784,1.959999 0,1.437333 -1.11067,2.221332 -3.00533,2.221333 -9.01599,2.221333 -10.06133,0 -13.98133,-5.879997 -2.61333,-3.789332 -2.61333,-9.995995 0,-0.130666 0,-0.196 0,-0.06533 0,-0.06533 0,-0.06533 0,-0.130667 0.13067,-7.709329 4.44266,-12.021326 3.724,-3.789332 9.996,-3.789332 6.79466,0 10.25733,4.573331 3.00533,3.985331 3.00533,11.237327 0,0.06533 0,0.130667 0,1.175999 -0.84933,1.959999 -0.784,0.784 -1.89467,0.784 h -19.27332 q 0.45733,3.527998 2.22133,5.291997 2.548,2.547998 8.68933,2.547998 2.48266,0 3.78933,-0.326666 1.372,-0.392 2.02533,-0.849333 0.65333,-0.522666 1.568,-0.522666 z M 190.64159,50.80806 q -4.312,0 -6.468,2.482665 -1.69866,2.025332 -2.156,5.161331 h 16.20266 q -0.45733,-4.050665 -2.28666,-5.814664 -1.764,-1.829332 -5.292,-1.829332 z"
         id="path13411" />
      <path
         d="m 214.93226,48.390728 q 3.39734,-2.939999 7.77467,-2.939999 5.61866,0 9.47332,4.965331 3.65867,4.573331 3.65867,10.975994 v 13.262659 q 0,1.176 -0.784,1.959999 -0.784,0.784 -1.96,0.784 -1.176,0 -1.96,-0.784 -0.784,-0.783999 -0.784,-1.959999 V 61.392054 q 0,-5.226664 -3.332,-8.493329 -1.89466,-1.894665 -4.31199,-1.894665 -3.00534,0 -5.292,2.809331 -2.48267,3.135999 -2.48267,7.578663 v 13.262659 q 0,1.176 -0.784,1.959999 -0.784,0.784 -1.95999,0.784 -1.176,0 -1.96,-0.784 -0.784,-0.783999 -0.784,-1.959999 V 61.392054 48.194728 q 0,-1.176 0.784,-1.959999 0.784,-0.784 1.96,-0.784 1.17599,0 1.95999,0.784 0.784,0.783999 0.784,1.959999 z"
         id="path13413" />
      <path
         d="m 183.52692,113.98536 q -1.176,-1.24134 -2.94,-2.156 -3.136,-1.568 -6.01067,-1.568 -3.91999,0 -5.68399,1.96 -0.0653,0.0653 -0.13067,0.13066 -2.744,2.80933 -2.744,7.77467 0,4.96533 1.82933,7.25199 2.80934,2.87467 6.14133,2.87467 3.332,0 6.01067,-2.09067 0.0653,0 0.0653,0 1.372,-1.04533 2.352,-2.02533 0.91467,-0.91467 1.11067,-1.50267 z m 0,18.48932 q -0.0653,0.0653 -0.196,0.13067 -4.18134,3.20133 -9.408,3.20133 -5.684,0 -10.19199,-4.704 -0.0653,-0.0653 -0.13067,-0.13067 -3.136,-3.85466 -3.136,-10.91066 0,-7.12133 4.312,-11.56399 3.46266,-3.78933 9.79999,-3.78933 4.18133,0 8.49333,2.156 0.196,0.13066 0.45734,0.196 0,-1.04534 0.784,-1.82934 0.78399,-0.784 1.95999,-0.784 1.176,0 1.96,0.84934 0.784,0.784 0.784,1.89466 v 5.74933 q 0.0653,0 0.0653,0.0653 0,0 -0.0653,0.0653 v 11.62933 q 0.0653,0.0653 0.0653,0.13066 0,0.0653 -0.0653,0.13067 v 7.252 q 0,4.18133 -0.45733,6.20666 -0.45733,2.02533 -2.41733,5.096 -2.02533,3.20133 -5.488,4.70399 -3.59333,1.63334 -6.99066,1.63334 -3.00533,0 -5.94533,-0.52267 -2.28667,-0.45733 -4.508,-1.82933 -0.26133,-0.196 -0.45733,-0.392 -0.784,-0.784 -0.784,-1.96 0,-1.176 0.71866,-1.89467 0.84934,-0.91466 2.02534,-0.91466 0.784,0 1.50266,0.45733 1.30667,0.84933 2.548,1.04533 2.48267,0.45734 4.9,0.45734 2.22133,0 4.83466,-1.176 1.11067,-0.52267 1.764,-1.24134 0.71867,-0.65333 1.176,-1.372 1.43733,-2.22133 1.69867,-3.39733 0.392,-1.50266 0.392,-4.37733 0,-0.13066 0,-0.26133 z"
         style="fill:#61ddeb"
         id="path13415" />
      <path
         d="m 200.10826,89.681369 q -0.784,-0.784 -0.784,-1.959999 0,-1.176 0.784,-1.959999 0.784,-0.784 1.89467,-0.784 1.176,0 1.96,0.718667 8.55866,8.231995 8.55866,8.231995 0.784,0.784 0.784,1.959999 0,1.175999 -0.784,1.959999 -0.784,0.784 -1.96,0.784 -1.11067,0 -1.89467,-0.718667 -8.55866,-8.231995 -8.55866,-8.231995 z m 5.096,20.710651 h -5.74933 q -1.176,0 -1.96,-0.784 -0.784,-0.78399 -0.784,-1.95999 0,-1.176 0.784,-1.96 0.784,-0.784 1.96,-0.784 h 8.49333 q 1.176,0 1.96,0.784 0.784,0.784 0.784,1.96 v 25.80665 q 0,1.176 -0.784,1.96 -0.784,0.784 -1.96,0.784 -1.176,0 -1.96,-0.784 -0.784,-0.784 -0.784,-1.96 z"
         style="fill:#61ddeb"
         id="path13417" />
    </g>
    <g
       aria-label="gı"
       transform="matrix(0.26458333,0,0,0.26458333,-27.950794,43.441686)"
       id="text234-6"
       style="font-size:65.3333px;line-height:0;font-family:Uiua386;-inkscape-font-specification:Uiua386;text-align:center;letter-spacing:-7.2px;white-space:pre;shape-inside:url(#rect236-3);display:inline;fill:#6060eb;stroke-width:0.5;stroke-linecap:round;stroke-linejoin:round">
      <path
         d="m 178.82281,25.785407 q -1.176,-1.241332 -2.93999,-2.155998 -3.136,-1.568 -6.01067,-1.568 -3.92,0 -5.68399,1.959999 -0.0653,0.06533 -0.13067,0.130667 -2.744,2.809332 -2.744,7.774662 0,4.965331 1.82933,7.251996 2.80933,2.874666 6.14133,2.874666 3.332,0 6.01067,-2.090666 0.0653,0 0.0653,0 1.372,-1.045333 2.352,-2.025332 0.91466,-0.914666 1.11066,-1.502666 z m 0,18.489324 q -0.0653,0.06533 -0.196,0.130666 -4.18133,3.201332 -9.40799,3.201332 -5.684,0 -10.192,-4.703998 -0.0653,-0.06533 -0.13066,-0.130666 -3.136,-3.854665 -3.136,-10.910661 0,-7.121329 4.312,-11.563994 3.46266,-3.789331 9.79999,-3.789331 4.18133,0 8.49333,2.155999 0.196,0.130667 0.45733,0.196 0,-1.045333 0.784,-1.829332 0.784,-0.784 1.96,-0.784 1.176,0 1.96,0.849333 0.784,0.783999 0.784,1.894665 v 5.749331 q 0.0653,0 0.0653,0.06533 0,0 -0.0653,0.06533 v 11.629327 q 0.0653,0.06533 0.0653,0.130667 0,0.06533 -0.0653,0.130666 v 7.251996 q 0,4.181332 -0.45733,6.206664 -0.45734,2.025332 -2.41733,5.095997 -2.02534,3.201332 -5.488,4.703997 -3.59333,1.633333 -6.99066,1.633333 -3.00534,0 -5.94533,-0.522667 -2.28667,-0.457333 -4.508,-1.829332 -0.26133,-0.196 -0.45733,-0.392 -0.784,-0.783999 -0.784,-1.959999 0,-1.175999 0.71866,-1.894665 0.84934,-0.914666 2.02533,-0.914666 0.784,0 1.50267,0.457333 1.30667,0.849333 2.548,1.045332 2.48266,0.457334 4.9,0.457334 2.22133,0 4.83466,-1.176 1.11067,-0.522666 1.764,-1.241332 0.71867,-0.653333 1.176,-1.372 1.43733,-2.221332 1.69866,-3.397331 0.392,-1.502666 0.392,-4.377331 0,-0.130667 0,-0.261333 z"
         id="path13404" />
      <path
         d="m 200.50016,22.192076 h -5.74933 q -1.176,0 -1.96,-0.784 -0.784,-0.783999 -0.784,-1.959998 0,-1.176 0.784,-1.959999 0.784,-0.784 1.96,-0.784 h 8.49333 q 1.17599,0 1.95999,0.784 0.784,0.783999 0.784,1.959999 V 45.25473 q 0,1.176 -0.784,1.959999 -0.784,0.784 -1.95999,0.784 -1.176,0 -1.96,-0.784 -0.784,-0.783999 -0.784,-1.959999 z"
         id="path13406" />
    </g>
    <path
       id="rect450"
       style="fill:none;stroke:#e914de;stroke-width:0.7;stroke-linecap:round;stroke-linejoin:round;stroke-dasharray:0.7, 1.4;stroke-opacity:0.632115"
       d="m 47.782532,7.3301606 h 9.455773 V 23.367081 h -9.455773 z" />
    <g
       aria-label="is a person.
 "
       transform="matrix(0.26458333,0,0,0.26458333,-19.263714,7.6258785)"
       id="text4124"
       style="font-size:65.3333px;line-height:0;font-family:Uiua386;-inkscape-font-specification:Uiua386;text-align:center;text-anchor:middle;white-space:pre;shape-inside:url(#rect4126);display:inline;fill:#eb14df;stroke-width:2.64567;stroke-linecap:round;stroke-linejoin:round;stroke-dasharray:2.64567, 5.29134;stroke-opacity:0.632115">
      <path
         d="M 311.29293,46.96913 V 15.935814 h 5.88 V 46.96913 Z m 2.94,-37.2399798 q -1.63333,0 -2.67866,-1.0453327 -1.04534,-1.1106661 -1.04534,-2.7439985 0,-1.5679992 1.04534,-2.6133319 1.04533,-1.1106661 2.67866,-1.1106661 1.63333,0 2.67867,1.1106661 1.04533,1.0453327 1.04533,2.6133319 0,1.6333324 -1.04533,2.7439985 -1.04534,1.0453327 -2.67867,1.0453327 z"
         style="font-family:Outfit;-inkscape-font-specification:Outfit"
         id="path13382" />
      <path
         d="m 335.72765,47.622463 q -2.61333,0 -4.96533,-0.653333 -2.28667,-0.718666 -4.24667,-1.959999 -1.96,-1.306666 -3.39733,-3.070665 l 3.78933,-3.789331 q 1.69867,2.090665 3.92,3.135998 2.22133,0.98 4.96533,0.98 2.744,0 4.24667,-0.914667 1.50266,-0.979999 1.50266,-2.678665 0,-1.698666 -1.24133,-2.613332 -1.176,-0.979999 -3.07067,-1.567999 -1.89466,-0.653333 -4.05066,-1.241333 -2.09067,-0.653333 -3.98533,-1.633332 -1.89467,-0.979999 -3.136,-2.678665 -1.176,-1.698666 -1.176,-4.507998 0,-2.809332 1.372,-4.834664 1.372,-2.090665 3.78933,-3.201331 2.48267,-1.110666 5.94533,-1.110666 3.65867,0 6.468,1.306665 2.87466,1.241333 4.70399,3.789332 l -3.78933,3.789331 q -1.30666,-1.698666 -3.26666,-2.613332 -1.89467,-0.914666 -4.312,-0.914666 -2.548,0 -3.92,0.914666 -1.30666,0.849333 -1.30666,2.417332 0,1.567999 1.176,2.417332 1.176,0.849333 3.07066,1.437333 1.96,0.587999 4.05067,1.241332 2.09066,0.588 3.98533,1.633333 1.89466,1.045333 3.07066,2.809332 1.24133,1.763999 1.24133,4.638664 0,4.377331 -3.13599,6.925329 -3.07067,2.547999 -8.29733,2.547999 z"
         style="font-family:Outfit;-inkscape-font-specification:Outfit"
         id="path13384" />
      <path
         d="m 380.54631,47.622463 q -4.24667,0 -7.70933,-2.090666 -3.46267,-2.155998 -5.488,-5.814663 -1.96,-3.658665 -1.96,-8.231996 0,-4.57333 1.96,-8.231995 2.02533,-3.658665 5.42266,-5.814664 3.46267,-2.155998 7.77467,-2.155998 3.52799,0 6.27199,1.502665 2.80933,1.437333 4.508,4.050665 1.69867,2.547998 1.89467,5.94533 v 9.342662 q -0.196,3.331998 -1.89467,5.94533 -1.63333,2.613332 -4.44266,4.115997 -2.744,1.437333 -6.33733,1.437333 z m 0.98,-5.55333 q 4.37733,0 7.05599,-2.939999 2.67867,-3.005331 2.67867,-7.643996 0,-3.201331 -1.24134,-5.55333 -1.176,-2.417332 -3.39733,-3.723998 -2.22133,-1.371999 -5.16133,-1.371999 -2.94,0 -5.22666,1.371999 -2.22133,1.371999 -3.528,3.789331 -1.24133,2.351999 -1.24133,5.422664 0,3.135998 1.24133,5.55333 1.30667,2.351999 3.59333,3.723998 2.28667,1.372 5.22667,1.372 z m 9.34266,4.899997 v -8.362662 l 1.11066,-7.578663 -1.11066,-7.513329 v -7.578662 h 5.94533 V 46.96913 Z"
         style="font-family:Outfit;-inkscape-font-specification:Outfit"
         id="path13386" />
      <path
         d="m 435.29567,47.622463 q -3.52799,0 -6.40266,-1.437333 -2.80933,-1.502665 -4.508,-4.115997 -1.69866,-2.613332 -1.89466,-5.94533 v -9.342662 q 0.196,-3.397332 1.89466,-5.94533 1.764,-2.613332 4.57333,-4.050665 2.87467,-1.502665 6.33733,-1.502665 4.24667,0 7.644,2.155998 3.46266,2.155999 5.42266,5.814664 1.96,3.658665 1.96,8.231995 0,4.573331 -1.96,8.231996 -1.96,3.658665 -5.42266,5.814663 -3.39733,2.090666 -7.644,2.090666 z M 418.96235,59.970456 V 15.935814 h 5.88 v 8.166662 l -1.11067,7.513329 1.11067,7.578663 v 20.775988 z m 15.35332,-17.901323 q 2.94,0 5.16133,-1.372 2.22134,-1.371999 3.528,-3.723998 1.30667,-2.417332 1.30667,-5.55333 0,-3.070665 -1.30667,-5.487997 -1.30666,-2.417332 -3.528,-3.723998 -2.22133,-1.371999 -5.09599,-1.371999 -2.94,0 -5.16133,1.371999 -2.22134,1.306666 -3.46267,3.723998 -1.24133,2.417332 -1.24133,5.55333 0,3.070665 1.176,5.487997 1.24133,2.351999 3.46266,3.723998 2.28667,1.372 5.16133,1.372 z"
         style="font-family:Outfit;-inkscape-font-specification:Outfit"
         id="path13388" />
      <path
         d="m 471.3597,47.622463 q -4.63867,0 -8.36266,-2.090666 -3.724,-2.155998 -5.88,-5.814663 -2.156,-3.658665 -2.156,-8.297329 0,-4.573331 2.09067,-8.231995 2.156,-3.658665 5.74933,-5.749331 3.65866,-2.155998 8.16666,-2.155998 4.312,0 7.57866,1.959998 3.332,1.959999 5.16133,5.422664 1.89467,3.462665 1.89467,7.839996 0,0.653333 -0.0653,1.437332 -0.0653,0.718667 -0.26133,1.698666 H 459.07704 V 28.74114 h 23.06265 l -2.156,1.894666 q 0,-3.135999 -1.11066,-5.291998 -1.11067,-2.221332 -3.136,-3.397331 -2.02533,-1.241333 -4.9,-1.241333 -3.00533,0 -5.29199,1.306666 -2.28667,1.306666 -3.528,3.658665 -1.24134,2.351999 -1.24134,5.55333 0,3.266665 1.30667,5.74933 1.30667,2.417332 3.724,3.789332 2.41733,1.306666 5.55333,1.306666 2.61333,0 4.76933,-0.914667 2.22133,-0.914666 3.78933,-2.743998 l 3.78933,3.854665 q -2.22133,2.613331 -5.48799,3.985331 -3.20134,1.371999 -6.86,1.371999 z"
         style="font-family:Outfit;-inkscape-font-specification:Outfit"
         id="path13390" />
      <path
         d="M 492.00497,46.96913 V 15.935814 h 5.88 V 46.96913 Z m 5.88,-17.705324 -2.22133,-0.979999 q 0,-5.94533 2.744,-9.473328 2.744,-3.527998 7.90533,-3.527998 2.352,0 4.24666,0.849332 1.89467,0.784 3.528,2.678666 l -3.85467,3.985331 q -0.98,-1.045333 -2.15599,-1.502666 -1.176,-0.457333 -2.744,-0.457333 -3.26667,0 -5.35733,2.090665 -2.09067,2.090666 -2.09067,6.33733 z"
         style="font-family:Outfit;-inkscape-font-specification:Outfit"
         id="path13392" />
      <path
         d="m 527.41567,47.622463 q -2.61334,0 -4.96533,-0.653333 -2.28667,-0.718666 -4.24667,-1.959999 -1.96,-1.306666 -3.39733,-3.070665 l 3.78933,-3.789331 q 1.69867,2.090665 3.92,3.135998 2.22133,0.98 4.96533,0.98 2.744,0 4.24666,-0.914667 1.50267,-0.979999 1.50267,-2.678665 0,-1.698666 -1.24133,-2.613332 -1.176,-0.979999 -3.07067,-1.567999 -1.89466,-0.653333 -4.05066,-1.241333 -2.09067,-0.653333 -3.98533,-1.633332 -1.89467,-0.979999 -3.136,-2.678665 -1.176,-1.698666 -1.176,-4.507998 0,-2.809332 1.372,-4.834664 1.372,-2.090665 3.78933,-3.201331 2.48266,-1.110666 5.94533,-1.110666 3.65866,0 6.468,1.306665 2.87466,1.241333 4.70399,3.789332 l -3.78933,3.789331 q -1.30666,-1.698666 -3.26666,-2.613332 -1.89467,-0.914666 -4.312,-0.914666 -2.548,0 -3.92,0.914666 -1.30666,0.849333 -1.30666,2.417332 0,1.567999 1.176,2.417332 1.17599,0.849333 3.07066,1.437333 1.96,0.587999 4.05066,1.241332 2.09067,0.588 3.98534,1.633333 1.89466,1.045333 3.07066,2.809332 1.24133,1.763999 1.24133,4.638664 0,4.377331 -3.13599,6.925329 -3.07067,2.547999 -8.29733,2.547999 z"
         style="font-family:Outfit;-inkscape-font-specification:Outfit"
         id="path13394" />
      <path
         d="m 559.62499,47.622463 q -4.57333,0 -8.232,-2.155999 -3.65866,-2.155999 -5.81466,-5.814663 -2.156,-3.723998 -2.156,-8.297329 0,-4.507998 2.156,-8.101329 2.156,-3.658665 5.81466,-5.814664 3.65867,-2.155998 8.232,-2.155998 4.508,0 8.16666,2.155998 3.724,2.090666 5.88,5.749331 2.156,3.658664 2.156,8.166662 0,4.573331 -2.156,8.297329 -2.156,3.658664 -5.88,5.814663 -3.65866,2.155999 -8.16666,2.155999 z m 0,-5.683997 q 2.94,0 5.22666,-1.371999 2.28667,-1.371999 3.59333,-3.723998 1.30667,-2.417332 1.30667,-5.487997 0,-3.005332 -1.372,-5.357331 -1.30667,-2.351998 -3.59333,-3.658664 -2.22133,-1.372 -5.16133,-1.372 -2.94,0 -5.22667,1.372 -2.28666,1.306666 -3.59333,3.658664 -1.30666,2.351999 -1.30666,5.357331 0,3.070665 1.30666,5.487997 1.30667,2.351999 3.59333,3.723998 2.28667,1.371999 5.22667,1.371999 z"
         style="font-family:Outfit;-inkscape-font-specification:Outfit"
         id="path13396" />
      <path
         d="M 604.37829,46.96913 V 28.871806 q 0,-3.527998 -2.22133,-5.814663 -2.22134,-2.286665 -5.74933,-2.286665 -2.352,0 -4.18134,1.045332 -1.82933,1.045333 -2.87466,2.874665 -1.04533,1.829333 -1.04533,4.181331 l -2.41734,-1.371999 q 0,-3.527998 1.568,-6.271996 1.568,-2.743999 4.37733,-4.311998 2.80934,-1.633332 6.33733,-1.633332 3.528,0 6.20667,1.763999 2.744,1.763999 4.312,4.638664 1.56799,2.809332 1.56799,6.010663 V 46.96913 Z m -21.95199,0 V 15.935814 h 5.88 V 46.96913 Z"
         style="font-family:Outfit;-inkscape-font-specification:Outfit"
         id="path13398" />
      <path
         d="m 623.3903,47.622463 q -1.82933,0 -3.07066,-1.241333 -1.176,-1.306666 -1.176,-3.070665 0,-1.829332 1.176,-3.005331 1.24133,-1.241333 3.07066,-1.241333 1.82934,0 3.00534,1.241333 1.24133,1.175999 1.24133,3.005331 0,1.763999 -1.24133,3.070665 -1.176,1.241333 -3.00534,1.241333 z"
         style="font-family:Outfit;-inkscape-font-specification:Outfit"
         id="path13400" />
    </g>
    <path
       id="rect450-5"
       style="fill:none;stroke:#e914de;stroke-width:0.7;stroke-linecap:round;stroke-linejoin:round;stroke-dasharray:0.7, 1.4;stroke-opacity:0.632115"
       d="m 47.68576,44.497639 h 9.455774 v 16.03692 H 47.68576 Z" />
    <g
       aria-label="is good.
 "
       transform="matrix(0.26458333,0,0,0.26458333,-32.589645,44.793356)"
       id="text4124-3"
       style="font-size:65.3333px;line-height:0;font-family:Uiua386;-inkscape-font-specification:Uiua386;text-align:center;white-space:pre;shape-inside:url(#rect4126-7);display:inline;fill:#eb14df;stroke-width:2.64567;stroke-linecap:round;stroke-linejoin:round;stroke-dasharray:2.64567, 5.29134;stroke-opacity:0.632115">
      <path
         d="M 361.82827,46.96913 V 15.935814 h 5.87999 V 46.96913 Z m 2.94,-37.2399798 q -1.63334,0 -2.67867,-1.0453327 -1.04533,-1.1106661 -1.04533,-2.7439985 0,-1.5679992 1.04533,-2.6133319 1.04533,-1.1106661 2.67867,-1.1106661 1.63333,0 2.67866,1.1106661 1.04533,1.0453327 1.04533,2.6133319 0,1.6333324 -1.04533,2.7439985 -1.04533,1.0453327 -2.67866,1.0453327 z"
         style="font-family:Outfit;-inkscape-font-specification:Outfit"
         id="path13366" />
      <path
         d="m 386.26298,47.622463 q -2.61333,0 -4.96533,-0.653333 -2.28666,-0.718666 -4.24666,-1.959999 -1.96,-1.306666 -3.39733,-3.070665 l 3.78933,-3.789331 q 1.69866,2.090665 3.92,3.135998 2.22133,0.98 4.96533,0.98 2.74399,0 4.24666,-0.914667 1.50267,-0.979999 1.50267,-2.678665 0,-1.698666 -1.24134,-2.613332 -1.176,-0.979999 -3.07066,-1.567999 -1.89467,-0.653333 -4.05067,-1.241333 -2.09066,-0.653333 -3.98533,-1.633332 -1.89466,-0.979999 -3.136,-2.678665 -1.176,-1.698666 -1.176,-4.507998 0,-2.809332 1.372,-4.834664 1.372,-2.090665 3.78934,-3.201331 2.48266,-1.110666 5.94533,-1.110666 3.65866,0 6.46799,1.306665 2.87467,1.241333 4.704,3.789332 l -3.78933,3.789331 q -1.30667,-1.698666 -3.26667,-2.613332 -1.89466,-0.914666 -4.31199,-0.914666 -2.548,0 -3.92,0.914666 -1.30667,0.849333 -1.30667,2.417332 0,1.567999 1.176,2.417332 1.176,0.849333 3.07067,1.437333 1.96,0.587999 4.05066,1.241332 2.09067,0.588 3.98533,1.633333 1.89467,1.045333 3.07067,2.809332 1.24133,1.763999 1.24133,4.638664 0,4.377331 -3.136,6.925329 -3.07066,2.547999 -8.29733,2.547999 z"
         style="font-family:Outfit;-inkscape-font-specification:Outfit"
         id="path13368" />
      <path
         d="m 430.75497,60.623789 q -4.76933,0 -8.49332,-1.763999 -3.65867,-1.763999 -5.88,-4.96533 l 3.78933,-3.854665 q 1.89467,2.417332 4.508,3.658665 2.61333,1.306666 6.20666,1.306666 4.76933,0 7.51333,-2.547999 2.80933,-2.482665 2.80933,-6.72933 v -7.709329 l 1.04533,-6.990663 -1.04533,-6.925329 v -8.166662 h 5.88 v 29.791983 q 0,4.442665 -2.09067,7.774663 -2.02533,3.331998 -5.74933,5.226664 -3.65866,1.894665 -8.49333,1.894665 z m 0,-14.177325 q -4.24666,0 -7.64399,-2.025333 -3.332,-2.025332 -5.292,-5.55333 -1.96,-3.593331 -1.96,-8.035996 0,-4.442664 1.96,-7.905329 1.96,-3.527998 5.292,-5.55333 3.39733,-2.090665 7.64399,-2.090665 3.65867,0 6.468,1.437332 2.80933,1.437333 4.44266,4.050665 1.69867,2.547998 1.82934,6.010663 v 8.231995 q -0.196,3.397332 -1.89467,6.010664 -1.63333,2.547998 -4.44266,3.985331 -2.80933,1.437333 -6.40267,1.437333 z m 1.176,-5.553331 q 2.87467,0 5.03067,-1.241332 2.22133,-1.241333 3.39733,-3.462665 1.176,-2.286666 1.176,-5.291997 0,-3.005332 -1.24133,-5.226664 -1.176,-2.286666 -3.332,-3.527998 -2.156,-1.306666 -5.096,-1.306666 -2.94,0 -5.16133,1.306666 -2.22133,1.241332 -3.528,3.527998 -1.24133,2.221332 -1.24133,5.16133 0,2.939999 1.24133,5.226664 1.30667,2.286666 3.528,3.593332 2.28666,1.241332 5.22666,1.241332 z"
         style="font-family:Outfit;-inkscape-font-specification:Outfit"
         id="path13370" />
      <path
         d="m 469.88965,47.622463 q -4.57333,0 -8.232,-2.155999 -3.65866,-2.155999 -5.81466,-5.814663 -2.156,-3.723998 -2.156,-8.297329 0,-4.507998 2.156,-8.101329 2.156,-3.658665 5.81466,-5.814664 3.65867,-2.155998 8.232,-2.155998 4.50799,0 8.16666,2.155998 3.724,2.090666 5.88,5.749331 2.15599,3.658664 2.15599,8.166662 0,4.573331 -2.15599,8.297329 -2.156,3.658664 -5.88,5.814663 -3.65867,2.155999 -8.16666,2.155999 z m 0,-5.683997 q 2.94,0 5.22666,-1.371999 2.28667,-1.371999 3.59333,-3.723998 1.30667,-2.417332 1.30667,-5.487997 0,-3.005332 -1.372,-5.357331 -1.30667,-2.351998 -3.59333,-3.658664 -2.22133,-1.372 -5.16133,-1.372 -2.94,0 -5.22667,1.372 -2.28666,1.306666 -3.59333,3.658664 -1.30666,2.351999 -1.30666,5.357331 0,3.070665 1.30666,5.487997 1.30667,2.351999 3.59333,3.723998 2.28667,1.371999 5.22667,1.371999 z"
         style="font-family:Outfit;-inkscape-font-specification:Outfit"
         id="path13372" />
      <path
         d="m 506.8683,47.622463 q -4.57333,0 -8.232,-2.155999 -3.65866,-2.155999 -5.81466,-5.814663 -2.156,-3.723998 -2.156,-8.297329 0,-4.507998 2.156,-8.101329 2.156,-3.658665 5.81466,-5.814664 3.65867,-2.155998 8.232,-2.155998 4.508,0 8.16666,2.155998 3.724,2.090666 5.88,5.749331 2.156,3.658664 2.156,8.166662 0,4.573331 -2.156,8.297329 -2.156,3.658664 -5.88,5.814663 -3.65866,2.155999 -8.16666,2.155999 z m 0,-5.683997 q 2.94,0 5.22666,-1.371999 2.28667,-1.371999 3.59333,-3.723998 1.30667,-2.417332 1.30667,-5.487997 0,-3.005332 -1.372,-5.357331 -1.30666,-2.351998 -3.59333,-3.658664 -2.22133,-1.372 -5.16133,-1.372 -2.94,0 -5.22666,1.372 -2.28667,1.306666 -3.59334,3.658664 -1.30666,2.351999 -1.30666,5.357331 0,3.070665 1.30666,5.487997 1.30667,2.351999 3.59334,3.723998 2.28666,1.371999 5.22666,1.371999 z"
         style="font-family:Outfit;-inkscape-font-specification:Outfit"
         id="path13374" />
      <path
         d="m 542.8016,47.622463 q -4.31199,0 -7.70932,-2.090666 -3.39734,-2.155998 -5.42267,-5.814663 -1.96,-3.658665 -1.96,-8.231996 0,-4.57333 1.96,-8.231995 2.02533,-3.658665 5.42267,-5.814664 3.39733,-2.155998 7.70932,-2.155998 3.46267,0 6.272,1.502665 2.80933,1.437333 4.508,4.050665 1.764,2.547998 1.96,5.94533 v 9.342662 q -0.196,3.331998 -1.89467,5.94533 -1.69866,2.613332 -4.508,4.115997 -2.80933,1.437333 -6.33733,1.437333 z m 0.98,-5.55333 q 2.94,0 5.096,-1.372 2.22133,-1.371999 3.46267,-3.723998 1.24133,-2.417332 1.24133,-5.487997 0,-3.201331 -1.30667,-5.55333 -1.24133,-2.351999 -3.46266,-3.723998 -2.156,-1.371999 -5.096,-1.371999 -2.94,0 -5.16133,1.371999 -2.22133,1.371999 -3.528,3.789331 -1.24133,2.351999 -1.24133,5.422664 0,3.135998 1.24133,5.55333 1.30667,2.351999 3.528,3.723998 2.28667,1.372 5.22666,1.372 z m 15.35333,4.899997 h -5.94533 v -8.362662 l 1.11067,-7.578663 -1.11067,-7.513329 V 0.32115536 h 5.94533 z"
         style="font-family:Outfit;-inkscape-font-specification:Outfit"
         id="path13376" />
      <path
         d="m 572.85497,47.622463 q -1.82933,0 -3.07066,-1.241333 -1.176,-1.306666 -1.176,-3.070665 0,-1.829332 1.176,-3.005331 1.24133,-1.241333 3.07066,-1.241333 1.82934,0 3.00534,1.241333 1.24133,1.175999 1.24133,3.005331 0,1.763999 -1.24133,3.070665 -1.176,1.241333 -3.00534,1.241333 z"
         style="font-family:Outfit;-inkscape-font-specification:Outfit"
         id="path13378" />
    </g>
    <path
       id="rect450-5-0"
       style="fill:none;stroke:#e914de;stroke-width:0.7;stroke-linecap:round;stroke-linejoin:round;stroke-dasharray:0.7, 1.4;stroke-opacity:0.632115"
       d="m 47.756054,86.426094 h 9.455773 v 16.036916 h -9.455773 z" />
    <g
       aria-label="is a good person.
 "
       transform="matrix(0.26458333,0,0,0.26458333,-37.811024,86.721824)"
       id="text4124-3-2"
       style="font-size:65.3333px;line-height:0;font-family:Uiua386;-inkscape-font-specification:Uiua386;text-align:center;white-space:pre;shape-inside:url(#rect4126-7-2);display:inline;fill:#eb14df;stroke-width:2.64567;stroke-linecap:round;stroke-linejoin:round;stroke-dasharray:2.64567, 5.29134;stroke-opacity:0.632115">
      <path
         d="M 380.8436,46.96913 V 15.935814 h 5.88 V 46.96913 Z m 2.94,-37.2399798 q -1.63333,0 -2.67867,-1.0453327 -1.04533,-1.1106661 -1.04533,-2.7439985 0,-1.5679992 1.04533,-2.6133319 1.04534,-1.1106661 2.67867,-1.1106661 1.63333,0 2.67866,1.1106661 1.04534,1.0453327 1.04534,2.6133319 0,1.6333324 -1.04534,2.7439985 -1.04533,1.0453327 -2.67866,1.0453327 z"
         style="font-family:Outfit;-inkscape-font-specification:Outfit"
         id="path13336" />
      <path
         d="m 405.27831,47.622463 q -2.61333,0 -4.96533,-0.653333 -2.28666,-0.718666 -4.24666,-1.959999 -1.96,-1.306666 -3.39733,-3.070665 l 3.78933,-3.789331 q 1.69867,2.090665 3.92,3.135998 2.22133,0.98 4.96533,0.98 2.744,0 4.24666,-0.914667 1.50267,-0.979999 1.50267,-2.678665 0,-1.698666 -1.24133,-2.613332 -1.176,-0.979999 -3.07067,-1.567999 -1.89467,-0.653333 -4.05066,-1.241333 -2.09067,-0.653333 -3.98534,-1.633332 -1.89466,-0.979999 -3.13599,-2.678665 -1.176,-1.698666 -1.176,-4.507998 0,-2.809332 1.372,-4.834664 1.372,-2.090665 3.78933,-3.201331 2.48266,-1.110666 5.94533,-1.110666 3.65866,0 6.46799,1.306665 2.87467,1.241333 4.704,3.789332 l -3.78933,3.789331 q -1.30667,-1.698666 -3.26666,-2.613332 -1.89467,-0.914666 -4.312,-0.914666 -2.548,0 -3.92,0.914666 -1.30667,0.849333 -1.30667,2.417332 0,1.567999 1.176,2.417332 1.176,0.849333 3.07067,1.437333 1.96,0.587999 4.05066,1.241332 2.09067,0.588 3.98533,1.633333 1.89467,1.045333 3.07067,2.809332 1.24133,1.763999 1.24133,4.638664 0,4.377331 -3.136,6.925329 -3.07066,2.547999 -8.29733,2.547999 z"
         style="font-family:Outfit;-inkscape-font-specification:Outfit"
         id="path13338" />
      <path
         d="m 450.09697,47.622463 q -4.24666,0 -7.70933,-2.090666 -3.46266,-2.155998 -5.48799,-5.814663 -1.96,-3.658665 -1.96,-8.231996 0,-4.57333 1.96,-8.231995 2.02533,-3.658665 5.42266,-5.814664 3.46266,-2.155998 7.77466,-2.155998 3.528,0 6.272,1.502665 2.80933,1.437333 4.508,4.050665 1.69866,2.547998 1.89466,5.94533 v 9.342662 q -0.196,3.331998 -1.89466,5.94533 -1.63334,2.613332 -4.44267,4.115997 -2.744,1.437333 -6.33733,1.437333 z m 0.98,-5.55333 q 4.37733,0 7.056,-2.939999 2.67866,-3.005331 2.67866,-7.643996 0,-3.201331 -1.24133,-5.55333 -1.176,-2.417332 -3.39733,-3.723998 -2.22133,-1.371999 -5.16133,-1.371999 -2.94,0 -5.22667,1.371999 -2.22133,1.371999 -3.52799,3.789331 -1.24134,2.351999 -1.24134,5.422664 0,3.135998 1.24134,5.55333 1.30666,2.351999 3.59333,3.723998 2.28666,1.372 5.22666,1.372 z m 9.34266,4.899997 v -8.362662 l 1.11067,-7.578663 -1.11067,-7.513329 v -7.578662 h 5.94533 V 46.96913 Z"
         style="font-family:Outfit;-inkscape-font-specification:Outfit"
         id="path13340" />
      <path
         d="m 501.38368,60.623789 q -4.76934,0 -8.49333,-1.763999 -3.65867,-1.763999 -5.88,-4.96533 l 3.78933,-3.854665 q 1.89467,2.417332 4.508,3.658665 2.61333,1.306666 6.20666,1.306666 4.76933,0 7.51333,-2.547999 2.80933,-2.482665 2.80933,-6.72933 v -7.709329 l 1.04534,-6.990663 -1.04534,-6.925329 v -8.166662 h 5.88 v 29.791983 q 0,4.442665 -2.09067,7.774663 -2.02533,3.331998 -5.74933,5.226664 -3.65866,1.894665 -8.49332,1.894665 z m 0,-14.177325 q -4.24667,0 -7.644,-2.025333 -3.332,-2.025332 -5.292,-5.55333 -1.96,-3.593331 -1.96,-8.035996 0,-4.442664 1.96,-7.905329 1.96,-3.527998 5.292,-5.55333 3.39733,-2.090665 7.644,-2.090665 3.65866,0 6.46799,1.437332 2.80933,1.437333 4.44267,4.050665 1.69866,2.547998 1.82933,6.010663 v 8.231995 q -0.196,3.397332 -1.89467,6.010664 -1.63333,2.547998 -4.44266,3.985331 -2.80933,1.437333 -6.40266,1.437333 z m 1.17599,-5.553331 q 2.87467,0 5.03067,-1.241332 2.22133,-1.241333 3.39733,-3.462665 1.176,-2.286666 1.176,-5.291997 0,-3.005332 -1.24133,-5.226664 -1.176,-2.286666 -3.332,-3.527998 -2.156,-1.306666 -5.096,-1.306666 -2.94,0 -5.16133,1.306666 -2.22133,1.241332 -3.528,3.527998 -1.24133,2.221332 -1.24133,5.16133 0,2.939999 1.24133,5.226664 1.30667,2.286666 3.528,3.593332 2.28667,1.241332 5.22666,1.241332 z"
         style="font-family:Outfit;-inkscape-font-specification:Outfit"
         id="path13342" />
      <path
         d="m 540.51835,47.622463 q -4.57333,0 -8.23199,-2.155999 -3.65867,-2.155999 -5.81467,-5.814663 -2.156,-3.723998 -2.156,-8.297329 0,-4.507998 2.156,-8.101329 2.156,-3.658665 5.81467,-5.814664 3.65866,-2.155998 8.23199,-2.155998 4.508,0 8.16666,2.155998 3.724,2.090666 5.88,5.749331 2.156,3.658664 2.156,8.166662 0,4.573331 -2.156,8.297329 -2.156,3.658664 -5.88,5.814663 -3.65866,2.155999 -8.16666,2.155999 z m 0,-5.683997 q 2.94,0 5.22667,-1.371999 2.28666,-1.371999 3.59333,-3.723998 1.30666,-2.417332 1.30666,-5.487997 0,-3.005332 -1.372,-5.357331 -1.30666,-2.351998 -3.59333,-3.658664 -2.22133,-1.372 -5.16133,-1.372 -2.94,0 -5.22666,1.372 -2.28667,1.306666 -3.59333,3.658664 -1.30667,2.351999 -1.30667,5.357331 0,3.070665 1.30667,5.487997 1.30666,2.351999 3.59333,3.723998 2.28666,1.371999 5.22666,1.371999 z"
         style="font-family:Outfit;-inkscape-font-specification:Outfit"
         id="path13344" />
      <path
         d="m 577.49699,47.622463 q -4.57333,0 -8.232,-2.155999 -3.65866,-2.155999 -5.81466,-5.814663 -2.156,-3.723998 -2.156,-8.297329 0,-4.507998 2.156,-8.101329 2.156,-3.658665 5.81466,-5.814664 3.65867,-2.155998 8.232,-2.155998 4.508,0 8.16666,2.155998 3.724,2.090666 5.88,5.749331 2.156,3.658664 2.156,8.166662 0,4.573331 -2.156,8.297329 -2.156,3.658664 -5.88,5.814663 -3.65866,2.155999 -8.16666,2.155999 z m 0,-5.683997 q 2.94,0 5.22666,-1.371999 2.28667,-1.371999 3.59333,-3.723998 1.30667,-2.417332 1.30667,-5.487997 0,-3.005332 -1.372,-5.357331 -1.30666,-2.351998 -3.59333,-3.658664 -2.22133,-1.372 -5.16133,-1.372 -2.94,0 -5.22666,1.372 -2.28667,1.306666 -3.59334,3.658664 -1.30666,2.351999 -1.30666,5.357331 0,3.070665 1.30666,5.487997 1.30667,2.351999 3.59334,3.723998 2.28666,1.371999 5.22666,1.371999 z"
         style="font-family:Outfit;-inkscape-font-specification:Outfit"
         id="path13346" />
      <path
         d="m 613.43031,47.622463 q -4.312,0 -7.70933,-2.090666 -3.39733,-2.155998 -5.42266,-5.814663 -1.96,-3.658665 -1.96,-8.231996 0,-4.57333 1.96,-8.231995 2.02533,-3.658665 5.42266,-5.814664 3.39733,-2.155998 7.70933,-2.155998 3.46266,0 6.272,1.502665 2.80933,1.437333 4.50799,4.050665 1.764,2.547998 1.96,5.94533 v 9.342662 q -0.196,3.331998 -1.89466,5.94533 -1.69867,2.613332 -4.508,4.115997 -2.80933,1.437333 -6.33733,1.437333 z m 0.98,-5.55333 q 2.94,0 5.096,-1.372 2.22133,-1.371999 3.46266,-3.723998 1.24133,-2.417332 1.24133,-5.487997 0,-3.201331 -1.30666,-5.55333 -1.24133,-2.351999 -3.46267,-3.723998 -2.156,-1.371999 -5.09599,-1.371999 -2.94,0 -5.16133,1.371999 -2.22134,1.371999 -3.528,3.789331 -1.24134,2.351999 -1.24134,5.422664 0,3.135998 1.24134,5.55333 1.30666,2.351999 3.528,3.723998 2.28666,1.372 5.22666,1.372 z m 15.35332,4.899997 h -5.94533 v -8.362662 l 1.11067,-7.578663 -1.11067,-7.513329 V 0.32115536 h 5.94533 z"
         style="font-family:Outfit;-inkscape-font-specification:Outfit"
         id="path13348" />
      <path
         d="m 668.24501,47.622463 q -3.52799,0 -6.40266,-1.437333 -2.80933,-1.502665 -4.508,-4.115997 -1.69866,-2.613332 -1.89466,-5.94533 v -9.342662 q 0.196,-3.397332 1.89466,-5.94533 1.764,-2.613332 4.57333,-4.050665 2.87467,-1.502665 6.33733,-1.502665 4.24667,0 7.644,2.155998 3.46266,2.155999 5.42266,5.814664 1.96,3.658665 1.96,8.231995 0,4.573331 -1.96,8.231996 -1.96,3.658665 -5.42266,5.814663 -3.39733,2.090666 -7.644,2.090666 z M 651.91169,59.970456 V 15.935814 h 5.88 v 8.166662 l -1.11067,7.513329 1.11067,7.578663 v 20.775988 z m 15.35332,-17.901323 q 2.94,0 5.16133,-1.372 2.22134,-1.371999 3.528,-3.723998 1.30667,-2.417332 1.30667,-5.55333 0,-3.070665 -1.30667,-5.487997 -1.30666,-2.417332 -3.528,-3.723998 -2.22133,-1.371999 -5.09599,-1.371999 -2.94,0 -5.16133,1.371999 -2.22133,1.306666 -3.46267,3.723998 -1.24133,2.417332 -1.24133,5.55333 0,3.070665 1.176,5.487997 1.24133,2.351999 3.46266,3.723998 2.28667,1.372 5.16133,1.372 z"
         style="font-family:Outfit;-inkscape-font-specification:Outfit"
         id="path13350" />
      <path
         d="m 704.30903,47.622463 q -4.63866,0 -8.36266,-2.090666 -3.724,-2.155998 -5.88,-5.814663 -2.156,-3.658665 -2.156,-8.297329 0,-4.573331 2.09067,-8.231995 2.156,-3.658665 5.74933,-5.749331 3.65867,-2.155998 8.16666,-2.155998 4.312,0 7.57867,1.959998 3.33199,1.959999 5.16133,5.422664 1.89466,3.462665 1.89466,7.839996 0,0.653333 -0.0653,1.437332 -0.0653,0.718667 -0.26134,1.698666 H 692.02637 V 28.74114 h 23.06266 l -2.156,1.894666 q 0,-3.135999 -1.11067,-5.291998 -1.11066,-2.221332 -3.136,-3.397331 -2.02533,-1.241333 -4.89999,-1.241333 -3.00534,0 -5.292,1.306666 -2.28667,1.306666 -3.528,3.658665 -1.24133,2.351999 -1.24133,5.55333 0,3.266665 1.30666,5.74933 1.30667,2.417332 3.724,3.789332 2.41733,1.306666 5.55333,1.306666 2.61333,0 4.76933,-0.914667 2.22134,-0.914666 3.78933,-2.743998 l 3.78934,3.854665 q -2.22134,2.613331 -5.488,3.985331 -3.20133,1.371999 -6.86,1.371999 z"
         style="font-family:Outfit;-inkscape-font-specification:Outfit"
         id="path13352" />
      <path
         d="M 724.95432,46.96913 V 15.935814 h 5.88 V 46.96913 Z m 5.88,-17.705324 -2.22133,-0.979999 q 0,-5.94533 2.744,-9.473328 2.74399,-3.527998 7.90532,-3.527998 2.352,0 4.24667,0.849332 1.89466,0.784 3.528,2.678666 l -3.85467,3.985331 q -0.98,-1.045333 -2.156,-1.502666 -1.176,-0.457333 -2.74399,-0.457333 -3.26667,0 -5.35734,2.090665 -2.09066,2.090666 -2.09066,6.33733 z"
         style="font-family:Outfit;-inkscape-font-specification:Outfit"
         id="path13354" />
      <path
         d="m 760.365,47.622463 q -2.61333,0 -4.96533,-0.653333 -2.28667,-0.718666 -4.24667,-1.959999 -1.95999,-1.306666 -3.39733,-3.070665 l 3.78933,-3.789331 q 1.69867,2.090665 3.92,3.135998 2.22133,0.98 4.96533,0.98 2.744,0 4.24667,-0.914667 1.50266,-0.979999 1.50266,-2.678665 0,-1.698666 -1.24133,-2.613332 -1.176,-0.979999 -3.07066,-1.567999 -1.89467,-0.653333 -4.05067,-1.241333 -2.09066,-0.653333 -3.98533,-1.633332 -1.89467,-0.979999 -3.136,-2.678665 -1.176,-1.698666 -1.176,-4.507998 0,-2.809332 1.372,-4.834664 1.372,-2.090665 3.78933,-3.201331 2.48267,-1.110666 5.94533,-1.110666 3.65867,0 6.468,1.306665 2.87466,1.241333 4.704,3.789332 l -3.78933,3.789331 q -1.30667,-1.698666 -3.26667,-2.613332 -1.89467,-0.914666 -4.312,-0.914666 -2.548,0 -3.91999,0.914666 -1.30667,0.849333 -1.30667,2.417332 0,1.567999 1.176,2.417332 1.176,0.849333 3.07066,1.437333 1.96,0.587999 4.05067,1.241332 2.09066,0.588 3.98533,1.633333 1.89466,1.045333 3.07066,2.809332 1.24134,1.763999 1.24134,4.638664 0,4.377331 -3.136,6.925329 -3.07067,2.547999 -8.29733,2.547999 z"
         style="font-family:Outfit;-inkscape-font-specification:Outfit"
         id="path13356" />
      <path
         d="m 792.57434,47.622463 q -4.57333,0 -8.232,-2.155999 -3.65866,-2.155999 -5.81466,-5.814663 -2.156,-3.723998 -2.156,-8.297329 0,-4.507998 2.156,-8.101329 2.156,-3.658665 5.81466,-5.814664 3.65867,-2.155998 8.232,-2.155998 4.50799,0 8.16666,2.155998 3.724,2.090666 5.88,5.749331 2.15599,3.658664 2.15599,8.166662 0,4.573331 -2.15599,8.297329 -2.156,3.658664 -5.88,5.814663 -3.65867,2.155999 -8.16666,2.155999 z m 0,-5.683997 q 2.93999,0 5.22666,-1.371999 2.28667,-1.371999 3.59333,-3.723998 1.30667,-2.417332 1.30667,-5.487997 0,-3.005332 -1.372,-5.357331 -1.30667,-2.351998 -3.59333,-3.658664 -2.22134,-1.372 -5.16133,-1.372 -2.94,0 -5.22667,1.372 -2.28666,1.306666 -3.59333,3.658664 -1.30666,2.351999 -1.30666,5.357331 0,3.070665 1.30666,5.487997 1.30667,2.351999 3.59333,3.723998 2.28667,1.371999 5.22667,1.371999 z"
         style="font-family:Outfit;-inkscape-font-specification:Outfit"
         id="path13358" />
      <path
         d="M 837.32764,46.96913 V 28.871806 q 0,-3.527998 -2.22134,-5.814663 -2.22133,-2.286665 -5.74933,-2.286665 -2.35199,0 -4.18133,1.045332 -1.82933,1.045333 -2.87466,2.874665 -1.04533,1.829333 -1.04533,4.181331 l -2.41734,-1.371999 q 0,-3.527998 1.568,-6.271996 1.568,-2.743999 4.37733,-4.311998 2.80933,-1.633332 6.33733,-1.633332 3.528,0 6.20667,1.763999 2.74399,1.763999 4.31199,4.638664 1.568,2.809332 1.568,6.010663 V 46.96913 Z m -21.95199,0 V 15.935814 h 5.88 V 46.96913 Z"
         style="font-family:Outfit;-inkscape-font-specification:Outfit"
         id="path13360" />
      <path
         d="m 856.33965,47.622463 q -1.82933,0 -3.07066,-1.241333 -1.176,-1.306666 -1.176,-3.070665 0,-1.829332 1.176,-3.005331 1.24133,-1.241333 3.07066,-1.241333 1.82933,0 3.00533,1.241333 1.24134,1.175999 1.24134,3.005331 0,1.763999 -1.24134,3.070665 -1.176,1.241333 -3.00533,1.241333 z"
         style="font-family:Outfit;-inkscape-font-specification:Outfit"
         id="path13362" />
    </g>
    <g
       aria-label="⛓"
       transform="matrix(0.12708142,0,0,0.12708142,24.262614,15.382559)"
       id="text6788"
       style="font-size:65.3333px;line-height:0;font-family:Outfit;-inkscape-font-specification:Outfit;text-align:center;text-anchor:middle;white-space:pre;shape-inside:url(#rect6790);fill:#eb60e7;stroke-width:2.64567;stroke-linecap:round;stroke-linejoin:round" />
    <g
       aria-label="⛓"
       transform="matrix(0.12708142,0,0,0.12708142,24.266687,27.943527)"
       id="text6788-2"
       style="font-size:65.3333px;line-height:0;font-family:Outfit;-inkscape-font-specification:Outfit;text-align:center;text-anchor:middle;white-space:pre;shape-inside:url(#rect6790);fill:#eb60e7;stroke-width:2.64567;stroke-linecap:round;stroke-linejoin:round" />
    <g
       aria-label="v"
       transform="matrix(-0.20880927,0,0,-0.20880927,111.32755,52.290235)"
       id="text8528"
       style="font-size:65.3333px;line-height:0;font-family:Outfit;-inkscape-font-specification:Outfit;text-align:center;text-anchor:middle;white-space:pre;shape-inside:url(#rect8530);display:inline;fill:#eb60e7;stroke-width:2.64567;stroke-linecap:round;stroke-linejoin:round">
      <path
         d="M 256.72669,107.53283 242.48403,76.499515 h 6.53333 l 11.43332,26.198655 h -3.78933 l 11.49866,-26.198655 h 6.272 l -14.24266,31.033315 z"
         id="path13333" />
    </g>
    <path
       id="path8396-6-8"
       style="font-size:65.3333px;line-height:0;font-family:Outfit;-inkscape-font-specification:Outfit;text-align:center;text-anchor:middle;white-space:pre;shape-inside:url(#rect6790);fill:#eb14e4;fill-opacity:1;stroke-width:0.336215;stroke-linecap:round;stroke-linejoin:round"
       d="m 52.033286,41.847035 v -1.093747 c -0.547975,-0.07749 -0.821962,-0.506462 -0.821962,-1.286911 h 0.431737 c 0,0.304431 0.03044,0.523067 0.09133,0.65591 0.06089,0.127307 0.160518,0.210333 0.298895,0.249079 v -0.107934 c 0,-0.0941 0.01107,-0.154983 0.03321,-0.182659 0.02768,-0.03321 0.07749,-0.04981 0.149448,-0.04981 0.06642,0 0.110702,0.0166 0.132842,0.04981 0.02768,0.02768 0.04151,0.08856 0.04151,0.182659 v 0.107934 c 0.138378,-0.04428 0.238009,-0.132842 0.298895,-0.265685 0.06089,-0.132842 0.09133,-0.345943 0.09133,-0.639304 h 0.431737 c 0,0.780449 -0.273987,1.209419 -0.821961,1.286911 v 1.093747 z M 51.21087,39.470946 c 0,-0.774914 0.273987,-1.203885 0.821962,-1.286911 v -0.572882 c -0.260149,-0.03321 -0.462181,-0.15775 -0.606094,-0.373619 -0.143912,-0.215869 -0.215868,-0.520299 -0.215868,-0.913292 0,-0.774913 0.273987,-1.203884 0.821962,-1.28691 v -0.56458 C 51.484857,34.39526 51.21087,33.96629 51.21087,33.185841 h 0.431737 c 0,0.304431 0.03044,0.523067 0.09133,0.65591 0.06089,0.127307 0.160518,0.210333 0.298895,0.249079 v -0.107934 c 0,-0.0941 0.01107,-0.154983 0.03321,-0.182659 0.02767,-0.03321 0.07749,-0.04982 0.149448,-0.04982 0.06642,0 0.110702,0.0166 0.132842,0.04982 0.02768,0.02768 0.04151,0.08856 0.04151,0.182659 v 0.107934 c 0.138378,-0.04428 0.238009,-0.132842 0.298895,-0.265685 0.06089,-0.132842 0.09133,-0.345943 0.09133,-0.639304 h 0.431737 c 0,0.780449 -0.273987,1.209419 -0.821961,1.286911 v 0.56458 c 0.547974,0.07196 0.821961,0.500926 0.821961,1.28691 0,0.79152 -0.273987,1.22049 -0.821961,1.286911 v 0.572882 c 0.547974,0.07196 0.821961,0.500927 0.821961,1.286911 H 52.78007 c 0,-0.298895 -0.03044,-0.514764 -0.09133,-0.647606 -0.06089,-0.138378 -0.160517,-0.224172 -0.298895,-0.257382 v 0.09963 c 0,0.0941 -0.01384,0.157751 -0.04151,0.190961 -0.02214,0.02768 -0.06642,0.04151 -0.132842,0.04151 -0.07196,0 -0.121773,-0.01384 -0.149448,-0.04151 -0.02214,-0.03321 -0.03321,-0.09686 -0.03321,-0.190961 v -0.09963 c -0.166053,0.03875 -0.273987,0.143912 -0.323803,0.3155 -0.04428,0.166054 -0.06642,0.362549 -0.06642,0.589488 z m 0.821962,-2.233412 v -0.09963 c 0,-0.0941 0.01107,-0.154983 0.03321,-0.182658 0.02767,-0.03321 0.07749,-0.04982 0.149448,-0.04982 0.06642,0 0.110702,0.0166 0.132842,0.04982 0.02768,0.02768 0.04151,0.08856 0.04151,0.182658 v 0.09963 c 0.138378,-0.03321 0.238009,-0.116237 0.298895,-0.24908 0.06089,-0.138377 0.09133,-0.359781 0.09133,-0.664212 0,-0.298895 -0.03044,-0.514764 -0.09133,-0.647606 -0.06089,-0.132842 -0.160517,-0.218637 -0.298895,-0.257382 v 0.09133 c 0,0.0941 -0.01384,0.15775 -0.04151,0.190961 -0.02214,0.02768 -0.06642,0.04151 -0.132842,0.04151 -0.07196,0 -0.121773,-0.01384 -0.149448,-0.04151 -0.02214,-0.03321 -0.03321,-0.09686 -0.03321,-0.190961 v -0.09133 c -0.138377,0.03874 -0.238009,0.121772 -0.298895,0.249079 -0.06089,0.127307 -0.09133,0.345944 -0.09133,0.655909 0,0.23801 0.02214,0.440041 0.06642,0.606094 0.04982,0.160518 0.15775,0.262917 0.323803,0.307198 z m -0.82558,-4.04702 c 0,-0.774914 0.273986,-1.203885 0.821961,-1.286911 v -0.572882 c -0.260148,-0.03321 -0.462181,-0.15775 -0.606095,-0.373619 -0.143912,-0.215869 -0.215866,-0.520299 -0.215866,-0.913292 0,-0.774913 0.273986,-1.203884 0.821961,-1.28691 v -0.56458 c -0.547975,-0.07749 -0.821961,-0.506462 -0.821961,-1.286911 h 0.431736 c 0,0.304431 0.03044,0.523067 0.09133,0.65591 0.06089,0.127307 0.16052,0.210333 0.298896,0.249079 v -0.107934 c 0,-0.0941 0.01107,-0.154983 0.03321,-0.182659 0.02768,-0.03321 0.07749,-0.04981 0.149448,-0.04981 0.06642,0 0.110702,0.0166 0.132842,0.04981 0.02768,0.02768 0.04151,0.08856 0.04151,0.182659 v 0.107934 c 0.138378,-0.04428 0.238009,-0.132842 0.298895,-0.265685 0.06089,-0.132842 0.09133,-0.345943 0.09133,-0.639304 h 0.431737 c 0,0.780449 -0.273987,1.209419 -0.821961,1.286911 v 0.56458 c 0.547974,0.07196 0.821961,0.500926 0.821961,1.28691 0,0.79152 -0.273987,1.22049 -0.821961,1.286911 v 0.572882 c 0.547974,0.07196 0.821961,0.500927 0.821961,1.286911 h -0.431737 c 0,-0.298895 -0.03044,-0.514764 -0.09133,-0.647606 -0.06089,-0.138378 -0.160517,-0.224172 -0.298895,-0.257382 v 0.09963 c 0,0.0941 -0.01384,0.157751 -0.04151,0.190961 -0.02214,0.02768 -0.06642,0.04151 -0.132842,0.04151 -0.07196,0 -0.121773,-0.01384 -0.149448,-0.04151 -0.02214,-0.03321 -0.03321,-0.09686 -0.03321,-0.190961 v -0.09963 c -0.166053,0.03875 -0.273988,0.143912 -0.323803,0.3155 -0.04428,0.166054 -0.06642,0.362549 -0.06642,0.589488 z m 0.821961,-2.233412 v -0.09963 c 0,-0.0941 0.01107,-0.154983 0.03321,-0.182658 0.02768,-0.03321 0.07749,-0.04982 0.149448,-0.04982 0.06642,0 0.110702,0.0166 0.132842,0.04982 0.02768,0.02767 0.04151,0.08856 0.04151,0.182658 v 0.09963 c 0.138378,-0.03321 0.238009,-0.116237 0.298895,-0.24908 0.06089,-0.138377 0.09133,-0.359781 0.09133,-0.664212 0,-0.298895 -0.03044,-0.514764 -0.09133,-0.647606 -0.06089,-0.132842 -0.160517,-0.218637 -0.298895,-0.257382 v 0.09133 c 0,0.0941 -0.01384,0.15775 -0.04151,0.190961 -0.02214,0.02767 -0.06642,0.04151 -0.132842,0.04151 -0.07196,0 -0.121773,-0.01384 -0.149448,-0.04151 -0.02214,-0.03321 -0.03321,-0.09686 -0.03321,-0.190961 v -0.09133 c -0.138376,0.03875 -0.23801,0.121772 -0.298896,0.249079 -0.06089,0.127307 -0.09133,0.345944 -0.09133,0.655909 0,0.23801 0.02214,0.440041 0.06642,0.606094 0.04982,0.160518 0.15775,0.262917 0.323802,0.307198 z m -0.822416,-4.047124 c 0,-0.774914 0.273987,-1.203885 0.821962,-1.286911 v -0.572882 c -0.260149,-0.03321 -0.462181,-0.15775 -0.606094,-0.373619 -0.143912,-0.215869 -0.215868,-0.5203 -0.215868,-0.913292 0,-0.774913 0.273987,-1.203884 0.821962,-1.28691 v -0.56458 c -0.547975,-0.07749 -0.821962,-0.506462 -0.821962,-1.286911 h 0.431737 c 0,0.304431 0.03044,0.523067 0.09133,0.65591 0.06089,0.127307 0.160518,0.210333 0.298895,0.249079 v -0.107934 c 0,-0.0941 0.01107,-0.154983 0.03321,-0.182659 0.02768,-0.03321 0.07749,-0.04981 0.149448,-0.04981 0.06642,0 0.110702,0.0166 0.132842,0.04981 0.02768,0.02768 0.04151,0.08856 0.04151,0.182659 v 0.107934 c 0.138378,-0.04428 0.238009,-0.132842 0.298895,-0.265685 0.06089,-0.132842 0.09133,-0.345943 0.09133,-0.639304 h 0.431737 c 0,0.780449 -0.273987,1.209419 -0.821961,1.286911 v 0.56458 c 0.547974,0.07196 0.821961,0.500926 0.821961,1.28691 0,0.79152 -0.273987,1.22049 -0.821961,1.286911 v 0.572882 c 0.547974,0.07196 0.821961,0.500927 0.821961,1.286911 h -0.431737 c 0,-0.298895 -0.03044,-0.514764 -0.09133,-0.647606 -0.06089,-0.138378 -0.160517,-0.224172 -0.298895,-0.257382 v 0.09963 c 0,0.0941 -0.01384,0.157751 -0.04151,0.190961 -0.02214,0.02768 -0.06642,0.04151 -0.132842,0.04151 -0.07196,0 -0.121773,-0.01384 -0.149448,-0.04151 -0.02214,-0.03321 -0.03321,-0.09686 -0.03321,-0.190961 v -0.09963 c -0.166053,0.03875 -0.273987,0.143912 -0.323803,0.3155 -0.04428,0.166054 -0.06642,0.362549 -0.06642,0.589488 z m 0.821962,-2.233412 v -0.09963 c 0,-0.0941 0.01107,-0.154983 0.03321,-0.182658 0.02768,-0.03321 0.07749,-0.04982 0.149448,-0.04982 0.06642,0 0.110702,0.0166 0.132842,0.04982 0.02768,0.02767 0.04151,0.08856 0.04151,0.182658 v 0.09963 c 0.138378,-0.03321 0.238009,-0.116237 0.298895,-0.24908 0.06089,-0.138377 0.09133,-0.359781 0.09133,-0.664212 0,-0.298895 -0.03044,-0.514764 -0.09133,-0.647606 -0.06089,-0.132842 -0.160517,-0.218637 -0.298895,-0.257382 v 0.09133 c 0,0.0941 -0.01384,0.15775 -0.04151,0.190961 -0.02214,0.02768 -0.06642,0.04151 -0.132842,0.04151 -0.07196,0 -0.121773,-0.01384 -0.149448,-0.04151 -0.02214,-0.03321 -0.03321,-0.09686 -0.03321,-0.190961 v -0.09133 c -0.138377,0.03874 -0.238009,0.121772 -0.298895,0.249079 -0.06089,0.127307 -0.09133,0.345944 -0.09133,0.655909 0,0.23801 0.02214,0.440041 0.06642,0.606094 0.04982,0.160518 0.15775,0.262917 0.323803,0.307198 z"
       class="UnoptimicedTransforms"
       transform="translate(0,2.6458334)" />
  </g>
</svg>
