<?xml version="1.0" encoding="UTF-8" standalone="no"?>
<!-- Created with Inkscape (http://www.inkscape.org/) -->

<svg
   width="61mm"
   height="39mm"
   viewBox="0 0 61 39"
   version="1.1"
   id="svg5"
   xmlns="http://www.w3.org/2000/svg"
   xmlns:svg="http://www.w3.org/2000/svg">
  <defs
     id="defs2">
    <rect
       x="59.259369"
       y="21.105612"
       width="58.717213"
       height="40.806007"
       id="rect4710" />
    <rect
       x="51.972706"
       y="157.83955"
       width="675.21393"
       height="414.89182"
       id="rect236" />
    <rect
       x="51.972706"
       y="157.83955"
       width="675.21393"
       height="414.89182"
       id="rect236-3" />
  </defs>
  <g
     id="layer1">
    <g
       aria-label="k"
       transform="matrix(0.26458333,0,0,0.26458333,-90.171266,-23.234754)"
       id="text234"
       style="font-size:53.3333px;line-height:0;font-family:APL333;-inkscape-font-specification:APL333;text-align:center;white-space:pre;shape-inside:url(#rect236);display:inline;fill:#61ddeb;stroke-width:1.13386;stroke-linejoin:round">
      <path
         d="m 380.67341,139.49319 q 0,-0.96 0.64,-1.6 0.64,-0.64 1.6,-0.64 0.95999,0 1.59999,0.64 0.64,0.64 0.64,1.6 v 17.49332 l 10.13333,-9.22666 q 0.64,-0.58667 1.54667,-0.58667 0.96,0 1.6,0.64 0.64,0.64 0.64,1.6 0,1.01333 -0.69334,1.65333 l -7.67999,7.04 9.54666,12.47999 q 0.48,0.64 0.48,1.38667 0,0.96 -0.69333,1.6 -0.64,0.64 -1.6,0.64 -1.12,0 -1.81334,-0.85334 l -9.27999,-12.21332 -2.18667,2.02666 v 8.8 q 0,0.96 -0.64,1.6 -0.64,0.64 -1.59999,0.64 -0.96,0 -1.6,-0.64 -0.64,-0.64 -0.64,-1.6 v -9.81333 z"
         style="font-family:Uiua386;-inkscape-font-specification:Uiua386;fill:#75eb61"
         id="path503" />
    </g>
    <g
       aria-label="at"
       transform="matrix(0.26458333,0,0,0.26458333,-75.367767,-23.253956)"
       id="text234-6"
       style="font-size:53.3333px;line-height:0;font-family:APL333;-inkscape-font-specification:APL333;text-align:center;letter-spacing:-7px;word-spacing:-1.73px;white-space:pre;shape-inside:url(#rect236-3);display:inline;fill:#dc60eb;stroke-width:1.13386;stroke-linejoin:round">
      <path
         d="m 386.89339,167.97317 q 0,1.44 0.26667,1.97333 0.42667,0.21334 0.74667,0.48 0.64,0.69334 0.64,1.65334 0,0.90666 -0.69334,1.59999 -0.64,0.64 -1.49333,0.64 -0.37333,0 -0.8,-0.16 -0.90666,-0.26666 -1.65333,-1.01333 -0.32,-0.32 -0.58667,-0.74666 -1.86666,0.74666 -4.53333,1.33333 -2.24,0.42666 -3.89333,0.42666 -2.56,0 -4.37333,-0.69333 -1.81333,-0.69333 -2.98666,-1.81333 -2.08,-2.13333 -2.08,-5.54666 0,-3.09334 2.13333,-5.17333 1.6,-1.65334 4.42666,-2.56 2.4,-0.8 5.17333,-0.8 1.76,0 5.17333,0.85333 v -1.86667 q 0,-1.43999 -0.74666,-2.18666 -0.32,-0.26667 -0.74667,-0.53333 -1.49333,-0.8 -3.09333,-0.8 -1.54667,0 -3.94666,0.32 -2.34667,0.32 -4.21333,1.01333 -0.42667,0.16 -0.85334,0.16 -0.85333,0 -1.54666,-0.64 -0.64,-0.69333 -0.64,-1.65333 0,-0.96 0.64,-1.6 0.37333,-0.37334 0.85333,-0.53333 2.34666,-0.8 5.06666,-1.17334 2.77333,-0.42666 4.53333,-0.42666 2.88,0 5.38667,1.38666 1.01333,0.53333 1.76,1.28 2.07999,2.08 2.07999,5.38666 z m -4.53333,-4.90666 q -3.67999,-0.96 -5.17333,-0.96 -2.02666,0 -3.78666,0.58666 -1.76,0.58667 -2.61333,1.44 -0.8,0.8 -0.8,1.97334 0,1.54666 0.74666,2.34666 0.48,0.42667 1.44,0.8 1.01334,0.37333 2.45334,0.37333 1.43999,0 3.46666,-0.37333 2.02667,-0.42667 3.25333,-0.96 0.58667,-0.21333 1.01333,-0.42667 z"
         style="font-family:Uiua386;-inkscape-font-specification:Uiua386"
         id="path498" />
      <path
         d="m 409.76006,168.3465 q 0.96,0 1.6,0.69334 0.64,0.64 0.64,1.6 0,1.17333 -0.90666,1.81333 -2.4,1.76 -6.34667,1.76 -3.94666,0 -5.86666,-1.92 -0.74667,-0.74667 -1.17333,-1.70667 -0.8,-1.92 -0.8,-6.23999 v -11.04 h -2.29333 q -0.96,0 -1.6,-0.64 -0.64,-0.64 -0.64,-1.6 0,-0.95999 0.64,-1.59999 0.64,-0.64 1.6,-0.64 h 2.29333 v -9.01333 q 0,-0.96 0.64,-1.6 0.64,-0.64 1.6,-0.64 0.96,0 1.59999,0.64 0.64,0.64 0.64,1.6 v 9.01333 h 5.76 q 0.96,0 1.6,0.64 0.64,0.64 0.64,1.59999 0,0.96 -0.64,1.6 -0.64,0.64 -1.6,0.64 h -5.76 v 11.04 q 0,1.97333 0.16,3.03999 0.16,1.01334 0.26667,1.28 0.16,0.26667 0.26667,0.42667 0.64,0.64 2.66666,0.64 2.45333,0 3.68,-0.90667 0.58667,-0.48 1.33333,-0.48 z"
         style="font-family:Uiua386;-inkscape-font-specification:Uiua386"
         id="path500" />
    </g>
    <path
       id="rect2314"
       style="fill:none;stroke:#74ea5f;stroke-width:0.6;stroke-linecap:round;stroke-linejoin:round;stroke-dasharray:1.2, 1.2"
       d="M 8.2668724,10.815864 H 18.41281 V 25.206315 H 8.2668724 Z" />
    <path
       id="rect2314-7"
       style="fill:none;stroke:#dc5fea;stroke-width:0.6;stroke-linecap:round;stroke-linejoin:round;stroke-dasharray:1.2, 1.2"
       d="m 19.953386,10.731849 h 15.28312 c 0.003,0 0.0055,0.0024 0.0055,0.0055 v 14.456232 c 0,0.003 -0.0024,0.0055 -0.0055,0.0055 h -15.28312 c -0.003,0 -0.0055,-0.0024 -0.0055,-0.0055 V 10.73733 c 0,-0.003 0.0024,-0.0055 0.0055,-0.0055 z" />
    <path
       style="fill:none;fill-opacity:1;stroke:#74ea5f;stroke-width:0.600001;stroke-linecap:butt;stroke-linejoin:round;stroke-dasharray:none;stroke-dashoffset:0;stroke-opacity:1"
       d="m 13.630677,25.256552 v 7.650688 h 8.172178"
       id="path2969" />
    <path
       style="fill:none;fill-opacity:1;stroke:#74ea5f;stroke-width:0.600001;stroke-linecap:round;stroke-linejoin:round;stroke-dasharray:none;stroke-dashoffset:0;stroke-opacity:1"
       d="m 20.392663,31.468181 1.23953,1.423695"
       id="path3229" />
    <path
       style="fill:none;fill-opacity:1;stroke:#74ea5f;stroke-width:0.600001;stroke-linecap:round;stroke-linejoin:round;stroke-dasharray:none;stroke-dashoffset:0;stroke-opacity:1"
       d="M 21.5578,32.989857 20.50343,34.55563"
       id="path3229-5" />
    <path
       style="fill:none;fill-opacity:1;stroke:#dc5fea;stroke-width:0.600001;stroke-linecap:round;stroke-linejoin:round;stroke-dasharray:none;stroke-dashoffset:0;stroke-opacity:1"
       d="m 44.287736,16.403841 1.23953,1.423695"
       id="path3229-8" />
    <path
       style="fill:none;fill-opacity:1;stroke:#dc5fea;stroke-width:0.600001;stroke-linecap:round;stroke-linejoin:round;stroke-dasharray:none;stroke-dashoffset:0;stroke-opacity:1"
       d="m 45.452873,17.925517 -1.05437,1.565773"
       id="path3229-5-4" />
    <path
       style="fill:none;fill-opacity:1;stroke:#eaa25f;stroke-width:0.600001;stroke-linecap:round;stroke-linejoin:round;stroke-dasharray:none;stroke-dashoffset:0;stroke-opacity:1"
       d="M 33.32107,3.3840293 34.5606,4.8077237"
       id="path3229-8-4" />
    <path
       style="fill:none;fill-opacity:1;stroke:#eaa25f;stroke-width:0.600001;stroke-linecap:round;stroke-linejoin:round;stroke-dasharray:none;stroke-dashoffset:0;stroke-opacity:1"
       d="m 34.486207,4.9057047 -1.05437,1.5657721"
       id="path3229-5-4-4" />
    <g
       aria-label="initial"
       id="text3362"
       style="font-size:4.58611px;line-height:0;font-family:APL333;-inkscape-font-specification:APL333;text-align:center;text-anchor:middle;fill:#76ea61;stroke:#74ea5f;stroke-width:0;stroke-linecap:round;stroke-linejoin:round">
      <path
         d="m 23.240724,34.398437 v -2.178402 h 0.41275 v 2.178402 z m 0.206375,-2.614082 q -0.114653,0 -0.188031,-0.07338 -0.07338,-0.07796 -0.07338,-0.192617 0,-0.110066 0.07338,-0.183444 0.07338,-0.07796 0.188031,-0.07796 0.114652,0 0.18803,0.07796 0.07338,0.07338 0.07338,0.183444 0,0.114653 -0.07338,0.192617 -0.07338,0.07338 -0.18803,0.07338 z"
         style="font-family:Outfit;-inkscape-font-specification:Outfit;stroke:none"
         id="path481" />
      <path
         d="m 25.804364,34.398437 v -1.270352 q 0,-0.24765 -0.155928,-0.408164 -0.155928,-0.160514 -0.403578,-0.160514 -0.1651,0 -0.293511,0.07338 -0.128411,0.07338 -0.201789,0.201789 -0.07338,0.128411 -0.07338,0.293511 l -0.169687,-0.09631 q 0,-0.24765 0.110067,-0.440267 0.110067,-0.192617 0.30727,-0.302683 0.197202,-0.114653 0.444852,-0.114653 0.24765,0 0.435681,0.123825 0.192616,0.123825 0.302683,0.325614 0.110067,0.197203 0.110067,0.421922 v 1.352902 z m -1.540933,0 v -2.178402 h 0.41275 v 2.178402 z"
         style="font-family:Outfit;-inkscape-font-specification:Outfit;stroke:none"
         id="path483" />
      <path
         d="m 26.781207,34.398437 v -2.178402 h 0.412749 v 2.178402 z m 0.206375,-2.614082 q -0.114653,0 -0.188031,-0.07338 -0.07338,-0.07796 -0.07338,-0.192617 0,-0.110066 0.07338,-0.183444 0.07338,-0.07796 0.188031,-0.07796 0.114652,0 0.18803,0.07796 0.07338,0.07338 0.07338,0.183444 0,0.114653 -0.07338,0.192617 -0.07338,0.07338 -0.18803,0.07338 z"
         style="font-family:Outfit;-inkscape-font-specification:Outfit;stroke:none"
         id="path485" />
      <path
         d="m 28.138699,34.398437 v -3.091038 h 0.41275 v 3.091038 z m -0.536574,-1.802341 v -0.376061 h 1.485899 v 0.376061 z"
         style="font-family:Outfit;-inkscape-font-specification:Outfit;stroke:none"
         id="path487" />
      <path
         d="m 29.496188,34.398437 v -2.178402 h 0.41275 v 2.178402 z m 0.206375,-2.614082 q -0.114652,0 -0.18803,-0.07338 -0.07338,-0.07796 -0.07338,-0.192617 0,-0.110066 0.07338,-0.183444 0.07338,-0.07796 0.18803,-0.07796 0.114653,0 0.188031,0.07796 0.07338,0.07338 0.07338,0.183444 0,0.114653 -0.07338,0.192617 -0.07338,0.07338 -0.188031,0.07338 z"
         style="font-family:Outfit;-inkscape-font-specification:Outfit;stroke:none"
         id="path489" />
      <path
         d="m 31.445289,34.444299 q -0.298097,0 -0.541161,-0.146756 -0.243064,-0.151342 -0.385233,-0.408164 -0.137583,-0.256822 -0.137583,-0.57785 0,-0.321027 0.137583,-0.577849 0.142169,-0.256823 0.380647,-0.408164 0.243064,-0.151342 0.545747,-0.151342 0.24765,0 0.440267,0.105481 0.197203,0.100894 0.316441,0.284338 0.119239,0.178859 0.132998,0.417336 v 0.655814 q -0.01376,0.233892 -0.132998,0.417336 -0.114652,0.183445 -0.311855,0.288925 -0.192617,0.100895 -0.444853,0.100895 z m 0.06879,-0.38982 q 0.307269,0 0.4953,-0.206375 0.18803,-0.210961 0.18803,-0.536575 0,-0.224719 -0.08714,-0.389819 -0.08255,-0.169686 -0.238478,-0.261408 -0.155927,-0.09631 -0.362302,-0.09631 -0.206375,0 -0.366889,0.09631 -0.155928,0.09631 -0.24765,0.265994 -0.08714,0.1651 -0.08714,0.380647 0,0.220134 0.08714,0.38982 0.09172,0.1651 0.252236,0.261408 0.160514,0.09631 0.366889,0.09631 z m 0.655814,0.343958 v -0.587022 l 0.07796,-0.531988 -0.07796,-0.527403 v -0.531989 h 0.417336 v 2.178402 z"
         style="font-family:Outfit;-inkscape-font-specification:Outfit;stroke:none"
         id="path491" />
      <path
         d="m 33.188014,34.398437 v -3.274482 h 0.41275 v 3.274482 z"
         style="font-family:Outfit;-inkscape-font-specification:Outfit;stroke:none"
         id="path493" />
    </g>
    <g
       aria-label="end
"
       id="text3362-1"
       style="font-size:4.58611px;line-height:0;font-family:APL333;-inkscape-font-specification:APL333;text-align:center;text-anchor:middle;fill:#76ea61;stroke:#dc5fea;stroke-width:0;stroke-linecap:round;stroke-linejoin:round">
      <path
         d="m 47.734729,19.496281 q -0.325614,0 -0.587022,-0.146755 -0.261409,-0.151342 -0.41275,-0.408164 -0.151342,-0.256822 -0.151342,-0.582436 0,-0.321028 0.146756,-0.57785 0.151341,-0.256822 0.403577,-0.403577 0.256823,-0.151342 0.573264,-0.151342 0.302683,0 0.531989,0.137583 0.233892,0.137584 0.362303,0.380647 0.132997,0.243064 0.132997,0.550334 0,0.04586 -0.0046,0.100894 -0.0046,0.05045 -0.01834,0.119239 h -1.83903 v -0.343958 h 1.618897 l -0.151342,0.132997 q 0,-0.220133 -0.07796,-0.371475 -0.07796,-0.155928 -0.220133,-0.238478 -0.142169,-0.08714 -0.343958,-0.08714 -0.210961,0 -0.371475,0.09172 -0.160514,0.09172 -0.24765,0.256822 -0.08714,0.1651 -0.08714,0.38982 0,0.229305 0.09172,0.403578 0.09172,0.169686 0.261408,0.265994 0.169687,0.09172 0.38982,0.09172 0.183444,0 0.334786,-0.06421 0.155928,-0.06421 0.265994,-0.192617 l 0.265995,0.27058 q -0.155928,0.183445 -0.385234,0.279753 -0.224719,0.09631 -0.481541,0.09631 z"
         style="font-family:Outfit;-inkscape-font-specification:Outfit;fill:#dc61ea;stroke:none"
         id="path474" />
      <path
         d="m 50.724869,19.45042 v -1.270352 q 0,-0.24765 -0.155927,-0.408164 -0.155928,-0.160514 -0.403578,-0.160514 -0.1651,0 -0.293511,0.07338 -0.128411,0.07338 -0.201789,0.201789 -0.07338,0.128411 -0.07338,0.293511 L 49.427,18.08376 q 0,-0.24765 0.110067,-0.440267 0.110067,-0.192617 0.307269,-0.302683 0.197203,-0.114653 0.444853,-0.114653 0.24765,0 0.43568,0.123825 0.192617,0.123825 0.302684,0.325614 0.110066,0.197203 0.110066,0.421922 v 1.352902 z m -1.540933,0 v -2.178402 h 0.41275 v 2.178402 z"
         style="font-family:Outfit;-inkscape-font-specification:Outfit;fill:#dc61ea;stroke:none"
         id="path476" />
      <path
         d="m 52.618934,19.496281 q -0.302683,0 -0.541161,-0.146755 -0.238477,-0.151342 -0.380647,-0.408164 -0.137583,-0.256822 -0.137583,-0.57785 0,-0.321027 0.137583,-0.57785 0.14217,-0.256822 0.380647,-0.408163 0.238478,-0.151342 0.541161,-0.151342 0.243064,0 0.440267,0.105481 0.197203,0.100894 0.316442,0.284338 0.123824,0.178859 0.137583,0.417336 v 0.655814 q -0.01376,0.233892 -0.132997,0.417336 -0.119239,0.183445 -0.316442,0.288925 -0.197203,0.100894 -0.444853,0.100894 z m 0.06879,-0.389819 q 0.206375,0 0.357717,-0.09631 0.155927,-0.09631 0.243063,-0.261408 0.08714,-0.169687 0.08714,-0.385234 0,-0.224719 -0.09172,-0.389819 -0.08714,-0.1651 -0.243064,-0.261408 -0.151341,-0.09631 -0.357716,-0.09631 -0.206375,0 -0.362303,0.09631 -0.155928,0.09631 -0.24765,0.265994 -0.08714,0.1651 -0.08714,0.380647 0,0.220133 0.08714,0.38982 0.09172,0.165099 0.24765,0.261408 0.160514,0.09631 0.366889,0.09631 z m 1.077736,0.343958 h -0.417336 v -0.587022 l 0.07796,-0.531988 -0.07796,-0.527403 v -1.628069 h 0.417336 z"
         style="font-family:Outfit;-inkscape-font-specification:Outfit;fill:#dc61ea;stroke:none"
         id="path478" />
    </g>
    <g
       aria-label="tone"
       id="text3362-1-4"
       style="font-size:4.58611px;line-height:0;font-family:APL333;-inkscape-font-specification:APL333;text-align:center;text-anchor:middle;fill:#76ea61;stroke:#eaa25f;stroke-width:0;stroke-linecap:round;stroke-linejoin:round">
      <path
         d="M 36.950407,6.3553581 V 3.2643199 h 0.41275 V 6.3553581 Z M 36.413832,4.5530168 v -0.376061 h 1.4859 v 0.376061 z"
         style="font-family:Outfit;-inkscape-font-specification:Outfit;fill:#eaa361;stroke:none"
         id="path465" />
      <path
         d="m 39.227406,6.4012192 q -0.321027,0 -0.577849,-0.1513416 -0.256823,-0.1513416 -0.408164,-0.4081638 -0.151342,-0.2614083 -0.151342,-0.582436 0,-0.3164416 0.151342,-0.5686776 0.151341,-0.2568222 0.408164,-0.4081638 0.256822,-0.1513417 0.577849,-0.1513417 0.316442,0 0.573264,0.1513417 0.261408,0.1467555 0.41275,0.4035776 0.151342,0.2568222 0.151342,0.5732638 0,0.3210277 -0.151342,0.582436 -0.151342,0.2568222 -0.41275,0.4081638 -0.256822,0.1513416 -0.573264,0.1513416 z m 0,-0.3989916 q 0.206375,0 0.366889,-0.096308 0.160514,-0.096308 0.252236,-0.2614082 0.09172,-0.1696861 0.09172,-0.3852333 0,-0.2109611 -0.09631,-0.376061 -0.09172,-0.1651 -0.252236,-0.2568222 -0.155928,-0.096308 -0.362303,-0.096308 -0.206375,0 -0.366888,0.096308 -0.160514,0.091722 -0.252236,0.2568222 -0.09172,0.1650999 -0.09172,0.376061 0,0.2155472 0.09172,0.3852333 0.09172,0.1650999 0.252236,0.2614082 0.160513,0.096308 0.366888,0.096308 z"
         style="font-family:Outfit;-inkscape-font-specification:Outfit;fill:#eaa361;stroke:none"
         id="path467" />
      <path
         d="M 42.368892,6.3553581 V 5.0850056 q 0,-0.2476499 -0.155928,-0.4081638 -0.155928,-0.1605138 -0.403578,-0.1605138 -0.1651,0 -0.293511,0.073378 -0.128411,0.073378 -0.201789,0.2017889 -0.07338,0.1284111 -0.07338,0.293511 l -0.169686,-0.096308 q 0,-0.2476499 0.110066,-0.4402666 0.110067,-0.1926166 0.30727,-0.3026832 0.197202,-0.1146528 0.444852,-0.1146528 0.24765,0 0.435681,0.123825 0.192616,0.123825 0.302683,0.3256138 0.110067,0.1972027 0.110067,0.4219221 v 1.3529025 z m -1.540933,0 V 4.1769558 h 0.41275 v 2.1784023 z"
         style="font-family:Outfit;-inkscape-font-specification:Outfit;fill:#eaa361;stroke:none"
         id="path469" />
      <path
         d="m 44.350093,6.4012192 q -0.325614,0 -0.587022,-0.1467555 -0.261409,-0.1513416 -0.41275,-0.4081638 -0.151342,-0.2568222 -0.151342,-0.582436 0,-0.3210277 0.146756,-0.5778499 0.151341,-0.2568221 0.403577,-0.4035776 0.256822,-0.1513417 0.573264,-0.1513417 0.302683,0 0.531989,0.1375833 0.233891,0.1375833 0.362303,0.3806472 0.132997,0.2430638 0.132997,0.5503332 0,0.045861 -0.0046,0.1008944 -0.0046,0.050447 -0.01834,0.1192389 h -1.83903 V 5.0758334 h 1.618897 l -0.151342,0.1329972 q 0,-0.2201333 -0.07796,-0.3714749 -0.07796,-0.1559278 -0.220133,-0.2384778 -0.142169,-0.087136 -0.343958,-0.087136 -0.210961,0 -0.371475,0.091722 -0.160514,0.091722 -0.24765,0.2568221 -0.08714,0.1651 -0.08714,0.3898194 0,0.2293055 0.09172,0.4035777 0.09172,0.1696861 0.261408,0.2659944 0.169686,0.091722 0.38982,0.091722 0.183444,0 0.334786,-0.064206 0.155927,-0.064205 0.265994,-0.1926166 l 0.265995,0.2705805 q -0.155928,0.1834444 -0.385234,0.2797527 -0.224719,0.096308 -0.481541,0.096308 z"
         style="font-family:Outfit;-inkscape-font-specification:Outfit;fill:#eaa361;stroke:none"
         id="path471" />
    </g>
    <path
       style="fill:none;fill-opacity:1;stroke:#dc5fea;stroke-width:0.6;stroke-linecap:round;stroke-linejoin:round;stroke-dasharray:none;stroke-dashoffset:0;stroke-opacity:1"
       d="m 35.352254,17.763464 h 9.817698"
       id="path3622" />
    <g
       aria-label="´"
       transform="matrix(0.25548019,0.06880559,-0.06880559,0.25548019,1.4759773,7.450474)"
       id="text4708"
       style="font-size:65.3333px;line-height:0;font-family:Outfit;-inkscape-font-specification:Outfit;text-align:center;white-space:pre;shape-inside:url(#rect4710);display:inline;fill:#eaa361;stroke-width:2.26772;stroke-linecap:round;stroke-linejoin:round">
      <path
         d="m 82.770814,1.2937881 q -0.979999,0.9146662 -1.110666,2.2866655 -0.130667,1.110666 0.457333,1.9599989 0.653333,0.7839996 1.698666,0.7839996 0.914666,0 2.286665,-1.3719993 l 8.558662,-8.2973288 q 1.110666,-1.0453328 1.241333,-2.0253322 -0.196,-2.2866655 -2.482665,-2.417332 -1.241333,-0.065333 -2.090666,0.7839995 z"
         style="font-family:APL333;-inkscape-font-specification:APL333"
         id="path462" />
    </g>
    <path
       style="fill:none;fill-opacity:1;stroke:#eaa25f;stroke-width:0.600001;stroke-linecap:round;stroke-linejoin:round;stroke-dasharray:none;stroke-dashoffset:0;stroke-opacity:1"
       d="M 24.11962,13.351598 V 4.8236705 h 10.409751"
       id="path4768" />
  </g>
</svg>
